STARTFONT 2.1
COMMENT
COMMENT Converted from OpenType font "BeVietnam-Regular.ttf" by "otf2bdf 3.0".
COMMENT
FONT -FreeType-Be Vietnam-Medium-R-Normal--55-400-100-100-P-258-ISO10646-1
SIZE 40 100 100
FONTBOUNDINGBOX 85 75 -21 -14
STARTPROPERTIES 19
FOUNDRY "FreeType"
FAMILY_NAME "Be Vietnam"
WEIGHT_NAME "Medium"
SLANT "R"
SETWIDTH_NAME "Normal"
ADD_STYLE_NAME ""
PIXEL_SIZE 55
POINT_SIZE 400
RESOLUTION_X 100
RESOLUTION_Y 100
SPACING "P"
AVERAGE_WIDTH 258
CHARSET_REGISTRY "ISO10646"
CHARSET_ENCODING "1"
FONT_ASCENT 66
FONT_DESCENT 14
COPYRIGHT "Copyright 2019 The Bevietnam Project Authors (https://github.com/bettergui/beVietnam)"
_OTF_FONTFILE "BeVietnam-Regular.ttf"
_OTF_PSNAME "BeVietnam-Regular"
ENDPROPERTIES
CHARS 445
STARTCHAR 000D
ENCODING 13
SWIDTH 594 0
DWIDTH 33 0
BBX 0 0 0 0
BITMAP
ENDCHAR
STARTCHAR 0020
ENCODING 32
SWIDTH 216 0
DWIDTH 12 0
BBX 0 0 0 0
BITMAP
ENDCHAR
STARTCHAR 0021
ENCODING 33
SWIDTH 234 0
DWIDTH 13 0
BBX 6 43 4 -1
BITMAP
F8
F8
F8
F8
F8
F8
F8
F8
F8
F8
F8
F8
F8
F8
F8
78
78
78
78
78
78
78
78
78
78
78
78
78
78
78
78
70
00
00
00
00
30
F8
FC
FC
FC
78
20
ENDCHAR
STARTCHAR 0022
ENCODING 34
SWIDTH 504 0
DWIDTH 28 0
BBX 19 14 5 28
BITMAP
0C00C0
3C03C0
700700
600600
E00E00
C00E00
C00E00
E00E00
FC0FC0
FE0FE0
FE0FE0
FE0FE0
FC07E0
380380
ENDCHAR
STARTCHAR 0023
ENCODING 35
SWIDTH 864 0
DWIDTH 48 0
BBX 40 39 4 0
BITMAP
0001F003C0
0001E003C0
0001E007C0
0001E00780
0003E00780
0003C00780
0003C00780
0003C00F00
0003C00F00
0007C00F00
0007800F00
1FFFFFFFFF
1FFFFFFFFF
1FFFFFFFFF
1FFFFFFFFE
000F001E00
000F003E00
000F003C00
001F003C00
001E003C00
001E007C00
001E007800
001E007800
003E007800
003C007800
7FFFFFFFFC
7FFFFFFFFC
7FFFFFFFF8
FFFFFFFFF8
007801F000
007801F000
007801E000
00F801E000
00F001E000
00F003E000
00F003C000
00F003C000
01F003C000
01E003C000
ENDCHAR
STARTCHAR 0024
ENCODING 36
SWIDTH 558 0
DWIDTH 31 0
BBX 26 46 3 -4
BITMAP
000C0000
000C0000
000C0000
001E0000
01FFE000
07FFF800
0FFFFC00
1FFFFE00
3F0C7F00
7E0C1F00
7C0C1F80
7C0C0F80
780C0F80
F80C07C0
F80C07C0
F80C0000
7C0C0000
7C0C0000
7E0C0000
3F8C0000
1FFC0000
0FFFC000
07FFF800
00FFFC00
000FFF00
000C7F80
000C1F80
000C0FC0
000C07C0
000C07C0
F00C03C0
F80C03C0
F80C03C0
FC0C07C0
7C0C07C0
7E0C0FC0
3F0C1F80
3FCC7F00
1FFFFF00
0FFFFE00
03FFF800
00FFE000
000C0000
000C0000
000C0000
000C0000
ENDCHAR
STARTCHAR 0025
ENCODING 37
SWIDTH 810 0
DWIDTH 45 0
BBX 42 40 2 -1
BITMAP
1FE000078000
3FF8000F0000
7EF8000F0000
783C001E0000
F01C001E0000
F01C003C0000
F01E003C0000
E01E00780000
E01E00780000
F01C00F00000
F01C00F00000
703C01E00000
7C7803E00000
3FF803C00000
1FF007C00000
038007800000
00000F800000
00000F000000
00001F000000
00001E000000
00003E000000
00003C000000
00007C000000
000078000000
0000F801FE00
0000F007FF00
0001F007CF80
0001E00F0380
0003C00E03C0
0003C01E03C0
0007801E01C0
0007801E01C0
000F001E01C0
000F001E03C0
001E000E03C0
001E000F0380
003C0007CF80
003C0007FF00
00780001FE00
000000002000
ENDCHAR
STARTCHAR 0026
ENCODING 38
SWIDTH 630 0
DWIDTH 35 0
BBX 33 40 3 0
BITMAP
0001800000
001FF80000
007FFE0000
00FFFF0000
01FFFF8000
03F81FC000
03E00FC000
03E007C000
07C003E000
07C003E000
07C003E000
07C003E000
03C0000000
03E0000000
03E0000000
01F0000000
00F8000000
00FC000000
007E000000
003F000000
01FF807C00
07FF80F800
0FE7C0F800
1F83E1F000
3E03F1E000
7C01FBE000
7C00FFC000
F8007FC000
F8003F8000
F8001F0000
F8001F8000
F8001FC000
F8003FE000
7C007FF000
7E00F9F800
7F01F0FC00
3FFFF07E00
1FFFE03E00
0FFF801F00
03FE000F80
ENDCHAR
STARTCHAR 0027
ENCODING 39
SWIDTH 288 0
DWIDTH 16 0
BBX 7 14 5 30
BITMAP
78
FC
FE
FE
FE
7E
0E
0E
0C
0C
1C
38
70
40
ENDCHAR
STARTCHAR 0028
ENCODING 40
SWIDTH 450 0
DWIDTH 25 0
BBX 15 56 6 -12
BITMAP
0004
000E
003C
0078
00F0
01F0
01E0
03C0
07C0
0780
0F80
0F00
1F00
1F00
3E00
3E00
3E00
7C00
7C00
7C00
7C00
7C00
F800
F800
F800
F800
F800
F800
F800
F800
F800
F800
F800
7800
7C00
7C00
7C00
7C00
3C00
3E00
3E00
1E00
1F00
1F00
0F00
0F80
0780
03C0
03E0
01E0
00F0
0078
0038
001C
000E
0004
ENDCHAR
STARTCHAR 0029
ENCODING 41
SWIDTH 486 0
DWIDTH 27 0
BBX 15 56 6 -12
BITMAP
4000
F000
7800
3C00
1E00
1F00
0F00
0780
07C0
03C0
03E0
01E0
01F0
00F0
00F8
00F8
0078
007C
007C
007C
007C
003E
003E
003E
003E
003E
003E
003E
003E
003E
003E
003E
003E
003E
003E
007C
007C
007C
007C
00F8
00F8
00F8
01F0
01F0
01E0
03E0
03C0
07C0
0780
0F00
1E00
1E00
3C00
7800
E000
4000
ENDCHAR
STARTCHAR 002A
ENCODING 42
SWIDTH 504 0
DWIDTH 28 0
BBX 18 20 5 23
BITMAP
01E000
01E000
01E000
00E000
40E080
F0C3C0
F8C7C0
FECFC0
1FFF00
07F800
03F000
0FFC00
3FFF00
FCCFC0
F8C7C0
60C1C0
40E080
00E000
01E000
01E000
ENDCHAR
STARTCHAR 002B
ENCODING 43
SWIDTH 576 0
DWIDTH 32 0
BBX 22 22 5 6
BITMAP
007800
007800
007800
007800
007800
007800
007800
007800
FFFFFC
FFFFFC
FFFFFC
FFFFFC
FFFFFC
007800
007800
007800
007800
007800
007800
007800
007800
007800
ENDCHAR
STARTCHAR 002C
ENCODING 44
SWIDTH 270 0
DWIDTH 15 0
BBX 8 15 4 -9
BITMAP
18
7E
FE
FF
FF
7F
0F
07
06
06
0E
0C
3C
70
60
ENDCHAR
STARTCHAR 002D
ENCODING 45
SWIDTH 594 0
DWIDTH 33 0
BBX 21 4 6 15
BITMAP
FFFFF8
FFFFF8
FFFFF8
FFFFF8
ENDCHAR
STARTCHAR 002E
ENCODING 46
SWIDTH 270 0
DWIDTH 15 0
BBX 7 6 4 0
BITMAP
38
7C
FE
FE
7E
7C
ENDCHAR
STARTCHAR 002F
ENCODING 47
SWIDTH 504 0
DWIDTH 28 0
BBX 24 54 3 -9
BITMAP
00001F
00001E
00003E
00003E
00003C
00007C
00007C
000078
0000F8
0000F8
0000F0
0001F0
0001F0
0003E0
0003E0
0003C0
0007C0
0007C0
000780
000F80
000F80
000F00
001F00
001F00
001E00
003E00
003C00
007C00
007C00
007800
00F800
00F800
00F000
01F000
01F000
01E000
03E000
03E000
07C000
07C000
078000
0F8000
0F8000
0F0000
1F0000
1F0000
1E0000
3E0000
3E0000
7C0000
7C0000
780000
F80000
F80000
ENDCHAR
STARTCHAR 0030
ENCODING 48
SWIDTH 594 0
DWIDTH 33 0
BBX 28 41 3 -1
BITMAP
000F0000
00FFF000
03FFFC00
07FFFE00
0FFFFF00
1FC03F80
3F001F80
3F000FC0
7E0007C0
7C0007C0
7C0003E0
FC0003E0
F80003E0
F80003E0
F80003F0
F80003F0
F80003F0
F80003F0
F80003F0
F80003F0
F80003F0
F80003F0
F80003F0
F80003F0
F80003F0
F80003F0
F80003F0
F80003E0
F80003E0
FC0003E0
7C0007E0
7C0007C0
7E0007C0
3F000FC0
3F801F80
1FC07F00
0FFFFF00
07FFFE00
03FFF800
00FFF000
00040000
ENDCHAR
STARTCHAR 0031
ENCODING 49
SWIDTH 486 0
DWIDTH 27 0
BBX 20 39 5 0
BITMAP
00F800
01F800
07F800
0FF800
1FF800
3FF800
7EF800
FCF800
F8F800
F0F800
E0F800
C0F800
80F800
00F800
00F800
00F800
00F800
00F800
00F800
00F800
00F800
00F800
00F800
00F800
00F800
00F800
00F800
00F800
00F800
00F800
00F800
00F800
00F800
00F800
00F800
FFFFF0
FFFFF0
FFFFF0
FFFFF0
ENDCHAR
STARTCHAR 0032
ENCODING 50
SWIDTH 576 0
DWIDTH 32 0
BBX 26 40 4 0
BITMAP
001E0000
01FFE000
07FFF800
0FFFFC00
1FFFFE00
3F007F00
3E003F00
7C001F00
7C000F80
78000F80
F8000F80
F8000780
F8000780
00000F80
00000F80
00000F80
00000F00
00001F00
00003F00
00003E00
00007C00
0000FC00
0001F800
0003F000
0007E000
000FC000
003F8000
007F0000
00FC0000
01F80000
03F00000
07E00000
0FC00000
1F800000
7F000000
FE000000
FFFFFFC0
FFFFFFC0
FFFFFFC0
FFFFFFC0
ENDCHAR
STARTCHAR 0033
ENCODING 51
SWIDTH 576 0
DWIDTH 32 0
BBX 27 40 3 0
BITMAP
003F8000
01FFF000
03FFFC00
0FFFFE00
0FF1FF00
1F803F80
3F000F80
3E000FC0
3C0007C0
7C0007C0
000003C0
000003C0
000007C0
000007C0
000007C0
00000F80
00001F80
00007F00
003FFE00
003FF800
003FF800
003FFE00
00003F00
00001F80
000007C0
000007C0
000003C0
000003E0
000003E0
000003E0
F80003E0
7C0003E0
7C0007C0
7E000FC0
3F001FC0
1FC03F80
1FFFFF00
0FFFFE00
03FFFC00
00FFF000
ENDCHAR
STARTCHAR 0034
ENCODING 52
SWIDTH 594 0
DWIDTH 33 0
BBX 28 39 3 0
BITMAP
0000FC00
0001FC00
0001FC00
0003FC00
0007FC00
0007FC00
000FFC00
001F7C00
001F7C00
003E7C00
007C7C00
007C7C00
00F87C00
01F07C00
01F07C00
03E07C00
07C07C00
07C07C00
0F807C00
1F007C00
1F007C00
3E007C00
7C007C00
7C007C00
F8007C00
FFFFFFF0
FFFFFFF0
FFFFFFF0
FFFFFFF0
00007C00
00007C00
00007C00
00007C00
00007C00
00007C00
00007C00
00007C00
00007C00
00007C00
ENDCHAR
STARTCHAR 0035
ENCODING 53
SWIDTH 594 0
DWIDTH 33 0
BBX 27 39 4 0
BITMAP
3FFFFF00
3FFFFF00
3FFFFF00
3FFFFF00
3FFFFF00
7C000000
7C000000
7C000000
7C000000
7C000000
78000000
78000000
78000000
783FE000
78FFF800
79FFFC00
7BFBFE00
7F803F00
7F001F80
7E000F80
7C0007C0
000007C0
000007C0
000003C0
000003E0
000003E0
000003E0
000003C0
000007C0
F80007C0
FC0007C0
7C000F80
7E001F80
3F003F00
1FC0FF00
0FFFFE00
07FFFC00
03FFF000
007FC000
ENDCHAR
STARTCHAR 0036
ENCODING 54
SWIDTH 576 0
DWIDTH 32 0
BBX 27 39 3 0
BITMAP
0007C000
000F8000
001F0000
001F0000
003E0000
007C0000
00F80000
00F80000
01F00000
03E00000
03E00000
07C00000
07800000
0F800000
1F1FC000
1E7FF000
3FFFFC00
3FFFFE00
7FC07F00
7F001F80
7E000F80
7C0007C0
FC0007C0
F80007C0
F80003C0
F80003E0
F80003E0
F80003E0
F80003E0
F80003C0
7C0007C0
7C0007C0
7E000F80
3F001F80
1F803F00
0FFFFE00
07FFFC00
03FFF800
00FFE000
ENDCHAR
STARTCHAR 0037
ENCODING 55
SWIDTH 504 0
DWIDTH 28 0
BBX 25 39 1 0
BITMAP
FFFFFF80
FFFFFF80
FFFFFF80
FFFFFF80
FFFFFF80
00000F80
00000F00
00001F00
00001F00
00003E00
00003E00
00007C00
00007C00
00007800
0000F800
0000F800
0001F000
0001F000
0003E000
0003E000
0007C000
0007C000
0007C000
000F8000
000F8000
001F0000
001F0000
003E0000
003E0000
007E0000
007C0000
007C0000
00F80000
00F80000
01F00000
01F00000
03E00000
03E00000
07E00000
ENDCHAR
STARTCHAR 0038
ENCODING 56
SWIDTH 594 0
DWIDTH 33 0
BBX 28 41 3 -1
BITMAP
000F0000
00FFF000
03FFFC00
07FFFE00
0FF8FF00
1F801F80
1F000FC0
3E0007C0
3E0007C0
3C0003C0
3C0003E0
3C0003E0
3C0003C0
3E0003C0
3E0007C0
1F000780
1F800F80
0FC03F00
07FFFE00
01FFF800
07FFFE00
0FE07F00
1F800F80
3E0007C0
7C0003E0
7C0003E0
780001F0
F80001F0
F80001F0
F80001F0
F80001F0
F80001F0
7C0003F0
7E0003E0
7F0007E0
3F801FC0
1FFFFF80
0FFFFF00
07FFFE00
01FFF800
00068000
ENDCHAR
STARTCHAR 0039
ENCODING 57
SWIDTH 576 0
DWIDTH 32 0
BBX 27 40 3 0
BITMAP
000E0000
01FFE000
07FFF800
0FFFFC00
1FF1FE00
3F803F00
3F001F80
7E000F80
7C0007C0
780007C0
F80003C0
F80003C0
F80003E0
F80003E0
F80003E0
F80003E0
F80007C0
7C0007C0
7C000FC0
3E000FC0
3F001FC0
1FC07F80
0FFFF780
07FFEF00
03FFDF00
007E1E00
00003E00
00007C00
00007C00
0000F800
0001F000
0001F000
0003E000
0007C000
000FC000
000F8000
001F0000
003F0000
003E0000
007C0000
ENDCHAR
STARTCHAR 003A
ENCODING 58
SWIDTH 288 0
DWIDTH 16 0
BBX 6 29 4 0
BITMAP
78
FC
FC
FC
FC
78
00
00
00
00
00
00
00
00
00
00
00
00
00
00
00
00
00
78
FC
FC
FC
FC
78
ENDCHAR
STARTCHAR 003B
ENCODING 59
SWIDTH 306 0
DWIDTH 17 0
BBX 7 38 5 -9
BITMAP
78
FC
FC
FC
FC
78
00
00
00
00
00
00
00
00
00
00
00
00
00
00
00
00
00
38
FC
FE
FE
FE
FE
1E
0E
0E
0E
0E
1C
38
70
40
ENDCHAR
STARTCHAR 003C
ENCODING 60
SWIDTH 558 0
DWIDTH 31 0
BBX 20 24 6 6
BITMAP
000070
0000F0
0003F0
000FF0
003FE0
00FF80
03FE00
07F800
1FE000
7F8000
FE0000
F80000
FC0000
FF0000
3FC000
1FF000
07F800
01FE00
007F80
001FE0
0007F0
0003F0
0000F0
000030
ENDCHAR
STARTCHAR 003D
ENCODING 61
SWIDTH 702 0
DWIDTH 39 0
BBX 26 17 7 9
BITMAP
FFFFFFC0
FFFFFFC0
FFFFFFC0
FFFFFFC0
FFFFFFC0
00000000
00000000
00000000
00000000
00000000
00000000
00000000
00000000
FFFFFFC0
FFFFFFC0
FFFFFFC0
FFFFFFC0
ENDCHAR
STARTCHAR 003E
ENCODING 62
SWIDTH 558 0
DWIDTH 31 0
BBX 20 24 6 6
BITMAP
C00000
F00000
FC0000
FF0000
7F8000
1FE000
07F800
01FE00
007F80
001FE0
0007F0
0001F0
0003F0
000FF0
003FC0
00FF00
03FC00
0FF000
3FE000
FF8000
FE0000
F80000
E00000
800000
ENDCHAR
STARTCHAR 003F
ENCODING 63
SWIDTH 576 0
DWIDTH 32 0
BBX 26 41 3 -1
BITMAP
001F0000
01FFF000
07FFF800
0FFFFE00
1FFFFF00
3F807F00
3F001F80
7E000F80
7C0007C0
7C0007C0
F80007C0
F80007C0
F80007C0
000007C0
000007C0
00000F80
00001F80
00003F00
00003E00
00007C00
0000F800
0001F000
0003E000
0007C000
000F8000
001F8000
001F0000
003E0000
003E0000
003E0000
00000000
00000000
00000000
00000000
000C0000
003E0000
003F0000
003F0000
003F0000
003E0000
00080000
ENDCHAR
STARTCHAR 0040
ENCODING 64
SWIDTH 1008 0
DWIDTH 56 0
BBX 48 49 4 -9
BITMAP
000000800000
00007FFF0000
0003FFFFE000
000FFFFFF800
003FF00FFC00
007F0000FF00
01FC00003F80
03F000000FC0
07E0000003E0
07C0000001F0
0F80000000F8
1F0000000078
1E000000007C
3E001F00003C
3C007FCF001E
7C00FFEF001E
7801FFFF001E
7803E03F000F
7807C01F000F
F007801F000F
F007800F000F
F00F800F000F
F00F000F0007
F00F00070007
F00F00070007
F00F0007000F
F00F000F000F
F00F000F800F
F007800F800E
F007800F801E
F007C01F801E
7803E03BC03C
7803F8F9E078
7801FFF1FFF0
3C00FFE0FFE0
3C003F803F80
3E0000000000
1F0000000000
1F0000000000
0F8000000000
07C000000000
03F000000000
01F800000000
00FE00000000
007FC0000000
001FFFFFFF00
000FFFFFFF00
0001FFFFFF00
00003FFFFF00
ENDCHAR
STARTCHAR 0041
ENCODING 65
SWIDTH 666 0
DWIDTH 37 0
BBX 34 39 2 0
BITMAP
0003E00000
0003F00000
0003F00000
0007F00000
0007F80000
0007F80000
000FFC0000
000F7C0000
001F3C0000
001F3E0000
001E1E0000
003E1E0000
003C1F0000
003C0F0000
007C0F8000
00780F8000
00F8078000
00F807C000
00F007C000
01F003E000
01F003E000
01E001E000
03E001F000
03E001F000
07FFFFF000
07FFFFF800
07FFFFF800
0FFFFFFC00
0F80007C00
0F00003C00
1F00003E00
1F00003E00
3E00001E00
3E00001F00
3E00001F00
7C00000F80
7C00000F80
7800000F80
F8000007C0
ENDCHAR
STARTCHAR 0042
ENCODING 66
SWIDTH 612 0
DWIDTH 34 0
BBX 28 39 4 0
BITMAP
FFFFE000
FFFFFC00
FFFFFE00
FFFFFF00
F8007F80
F8000FC0
F80007C0
F80007C0
F80003E0
F80003E0
F80003E0
F80003E0
F80003C0
F80007C0
F80007C0
F8000F80
F8003F00
FFFFFE00
FFFFF000
FFFFFE00
FFFFFF80
F8001FC0
F80007E0
F80003E0
F80001F0
F80001F0
F80000F0
F80000F0
F80000F0
F80000F0
F80001F0
F80001F0
F80003F0
F80007E0
F8001FC0
FFFFFFC0
FFFFFF00
FFFFFE00
FFFFF800
ENDCHAR
STARTCHAR 0043
ENCODING 67
SWIDTH 702 0
DWIDTH 39 0
BBX 34 40 3 0
BITMAP
0003F80000
001FFF0000
007FFFC000
01FFFFF000
03FFFFF800
07F803FC00
0FE000FE00
1FC0007E00
1F80001F00
3F00001F80
3E00000F80
7E00000F80
7C000007C0
7C000007C0
7C00000000
FC00000000
F800000000
F800000000
F800000000
F800000000
F800000000
F800000000
F800000000
F800000000
F800000000
FC00000000
7C00000000
7C00000000
7C000007C0
3E00000F80
3E00000F80
1F00001F00
1F80003F00
0FC0007E00
0FE000FC00
07FC07FC00
03FFFFF800
00FFFFE000
007FFFC000
000FFE0000
ENDCHAR
STARTCHAR 0044
ENCODING 68
SWIDTH 684 0
DWIDTH 38 0
BBX 32 39 4 0
BITMAP
FFFFC000
FFFFFC00
FFFFFF00
FFFFFF80
F803FFC0
F8001FE0
F80007F0
F80003F8
F80001F8
F80000FC
F800007C
F800007E
F800003E
F800003E
F800003E
F800003E
F800003F
F800001F
F800001F
F800001F
F800001F
F800001F
F800003F
F800003E
F800003E
F800003E
F800003E
F800007E
F800007C
F80000FC
F80001F8
F80003F8
F80007F0
F8001FE0
F803FFC0
FFFFFF80
FFFFFF00
FFFFFC00
FFFFE000
ENDCHAR
STARTCHAR 0045
ENCODING 69
SWIDTH 558 0
DWIDTH 31 0
BBX 24 39 4 0
BITMAP
FFFFFF
FFFFFF
FFFFFF
FFFFFF
F80000
F80000
F80000
F80000
F80000
F80000
F80000
F80000
F80000
F80000
F80000
F80000
F80000
FFFFFC
FFFFFC
FFFFFC
FFFFFC
F80000
F80000
F80000
F80000
F80000
F80000
F80000
F80000
F80000
F80000
F80000
F80000
F80000
F80000
FFFFFF
FFFFFF
FFFFFF
FFFFFF
ENDCHAR
STARTCHAR 0046
ENCODING 70
SWIDTH 504 0
DWIDTH 28 0
BBX 23 39 4 0
BITMAP
FFFFFE
FFFFFE
FFFFFE
FFFFFE
F80000
F80000
F80000
F80000
F80000
F80000
F80000
F80000
F80000
F80000
F80000
F80000
F80000
FFFFF8
FFFFF8
FFFFF8
FFFFF8
F80000
F80000
F80000
F80000
F80000
F80000
F80000
F80000
F80000
F80000
F80000
F80000
F80000
F80000
F80000
F80000
F80000
F80000
ENDCHAR
STARTCHAR 0047
ENCODING 71
SWIDTH 702 0
DWIDTH 39 0
BBX 33 40 3 0
BITMAP
0003F00000
003FFF0000
007FFFC000
01FFFFE000
03FFFFF800
07F803F800
0FE000FC00
1F80007E00
1F00003F00
3F00001F00
3E00001F80
7E00000F80
7C00000F80
7C00000000
7800000000
F800000000
F800000000
F800000000
F800000000
F800000000
F8003FFF80
F8003FFF80
F8003FFF80
F8003FFF80
F800000780
F800000780
7800000780
7C00000F80
7C00000F80
3E00000F80
3E00000F80
3F00001F80
1F80003F80
0F80007F80
0FE000FF80
07F803F780
03FFFFE780
01FFFFC780
007FFF0780
001FFC0780
ENDCHAR
STARTCHAR 0048
ENCODING 72
SWIDTH 666 0
DWIDTH 37 0
BBX 30 39 4 0
BITMAP
F800007C
F800007C
F800007C
F800007C
F800007C
F800007C
F800007C
F800007C
F800007C
F800007C
F800007C
F800007C
F800007C
F800007C
F800007C
F800007C
F800007C
FFFFFFFC
FFFFFFFC
FFFFFFFC
FFFFFFFC
F800007C
F800007C
F800007C
F800007C
F800007C
F800007C
F800007C
F800007C
F800007C
F800007C
F800007C
F800007C
F800007C
F800007C
F800007C
F800007C
F800007C
F800007C
ENDCHAR
STARTCHAR 0049
ENCODING 73
SWIDTH 234 0
DWIDTH 13 0
BBX 5 39 4 0
BITMAP
F8
F8
F8
F8
F8
F8
F8
F8
F8
F8
F8
F8
F8
F8
F8
F8
F8
F8
F8
F8
F8
F8
F8
F8
F8
F8
F8
F8
F8
F8
F8
F8
F8
F8
F8
F8
F8
F8
F8
ENDCHAR
STARTCHAR 004A
ENCODING 74
SWIDTH 342 0
DWIDTH 19 0
BBX 12 39 3 0
BITMAP
01E0
01E0
01E0
01E0
01E0
01E0
01E0
01E0
01E0
01E0
01E0
01E0
01E0
01E0
01E0
01E0
01E0
01E0
01E0
01E0
01E0
01E0
01E0
01E0
01E0
01E0
01E0
01E0
01E0
01E0
01E0
01F0
01E0
03E0
03E0
FFE0
FFC0
FF80
FF00
ENDCHAR
STARTCHAR 004B
ENCODING 75
SWIDTH 612 0
DWIDTH 34 0
BBX 27 39 4 0
BITMAP
F8000FC0
F8001F80
F8003F00
F8003E00
F8007C00
F800F800
F801F800
F803F000
F807E000
F80FC000
F81F8000
F83F0000
F87E0000
F87C0000
F8F80000
F9F00000
FBE00000
FFF00000
FFF00000
FFF80000
FFFC0000
FE7E0000
FC3E0000
F83F0000
F81F8000
F80FC000
F807C000
F807E000
F803F000
F801F000
F800F800
F800FC00
F8007E00
F8003E00
F8001F00
F8001F80
F8000FC0
F80007C0
F80003E0
ENDCHAR
STARTCHAR 004C
ENCODING 76
SWIDTH 522 0
DWIDTH 29 0
BBX 23 39 4 0
BITMAP
F80000
F80000
F80000
F80000
F80000
F80000
F80000
F80000
F80000
F80000
F80000
F80000
F80000
F80000
F80000
F80000
F80000
F80000
F80000
F80000
F80000
F80000
F80000
F80000
F80000
F80000
F80000
F80000
F80000
F80000
F80000
F80000
F80000
F80000
F80000
FFFFFE
FFFFFE
FFFFFE
FFFFFE
ENDCHAR
STARTCHAR 004D
ENCODING 77
SWIDTH 810 0
DWIDTH 45 0
BBX 38 39 4 0
BITMAP
FE000003FC
FF000003FC
FF000003FC
FF800007FC
FF800007FC
FF80000FFC
FFC0000FFC
FFC0000FFC
FFC0001F7C
FBE0001F7C
FBE0003E7C
F9F0003E7C
F9F0003E7C
F9F0007C7C
F8F8007C7C
F8F8007C7C
F87C00F87C
F87C00F87C
F87C01F07C
F83E01F07C
F83E01F07C
F83F03E07C
F81F03E07C
F81F07E07C
F80F87C07C
F80F87C07C
F80F8F807C
F807CF807C
F807DF807C
F807FF007C
F803FF007C
F803FE007C
F801FE007C
F801FE007C
F801FC007C
F800FC007C
F800FC007C
F80078007C
F80078007C
ENDCHAR
STARTCHAR 004E
ENCODING 78
SWIDTH 702 0
DWIDTH 39 0
BBX 31 39 4 0
BITMAP
FC00001E
FC00001E
FE00001E
FF00001E
FF80001E
FF80001E
FFC0001E
FFE0001E
FFE0001E
FBF0001E
F9F8001E
F9F8001E
F8FC001E
F87E001E
F87E001E
F83F001E
F81F801E
F81F801E
F80FC01E
F807E01E
F807E01E
F803F01E
F801F81E
F801F81E
F800FC1E
F8007E1E
F8007E1E
F8003F1E
F8001F9E
F8001F9E
F8000FDE
F80007FE
F80007FE
F80003FE
F80001FE
F80000FE
F80000FE
F800007E
F800003E
ENDCHAR
STARTCHAR 004F
ENCODING 79
SWIDTH 720 0
DWIDTH 40 0
BBX 35 40 3 0
BITMAP
0003F80000
001FFF0000
007FFFC000
01FFFFF000
03FFFFF800
07F803FC00
0FE000FE00
1FC0007E00
1F80003F00
3F00001F80
3E00000F80
7E00000F80
7C00000FC0
7C000007C0
FC000007C0
F8000007C0
F8000003E0
F8000003E0
F8000003E0
F8000003E0
F8000003E0
F8000003E0
F8000003E0
F8000003E0
F8000003E0
F8000007C0
FC000007C0
7C000007C0
7C00000FC0
7E00000F80
3E00001F80
3F00001F00
1F80003F00
1FC0007E00
0FF001FE00
07FC07FC00
03FFFFF800
01FFFFE000
007FFFC000
001FFE0000
ENDCHAR
STARTCHAR 0050
ENCODING 80
SWIDTH 576 0
DWIDTH 32 0
BBX 27 39 4 0
BITMAP
FFFF8000
FFFFF000
FFFFFC00
FFFFFE00
F807FF00
F8003F80
F8000F80
F80007C0
F80007C0
F80003C0
F80003E0
F80003E0
F80003E0
F80003E0
F80003E0
F80003E0
F80003C0
F80007C0
F8000FC0
F8001F80
F8003F80
FFFFFF00
FFFFFE00
FFFFF800
FFFFF000
FFFC0000
F8000000
F8000000
F8000000
F8000000
F8000000
F8000000
F8000000
F8000000
F8000000
F8000000
F8000000
F8000000
F8000000
ENDCHAR
STARTCHAR 0051
ENCODING 81
SWIDTH 720 0
DWIDTH 40 0
BBX 35 43 3 -3
BITMAP
0003F80000
001FFF0000
007FFFC000
01FFFFF000
03FFFFF800
07F803FC00
0FE000FE00
1FC0007E00
1F80003F00
3F00001F80
3E00000F80
7E00000F80
7C00000FC0
7C000007C0
FC000007C0
F8000007C0
F8000003E0
F8000003E0
F8000003E0
F8000003E0
F8000003E0
F8000003E0
F8000003E0
F8000003E0
F8000003E0
F801F007C0
FC00F807C0
7C007C07C0
7C003C0FC0
7E003E0F80
3E001F1F80
3F000F9F00
1F8007BF00
1FC003FE00
0FF003FE00
07FC07FC00
03FFFFF800
01FFFFF800
007FFFFC00
001FFE3E00
0000001F00
0000000F80
0000000780
ENDCHAR
STARTCHAR 0052
ENCODING 82
SWIDTH 594 0
DWIDTH 33 0
BBX 27 39 4 0
BITMAP
FFFFC000
FFFFF800
FFFFFC00
FFFFFE00
F807FF00
F8003F80
F8000FC0
F80007C0
F80003C0
F80003E0
F80003E0
F80003E0
F80003E0
F80003E0
F80003E0
F80007C0
F80007C0
F8000F80
F8003F80
FFFFFF00
FFFFFE00
FFFFFC00
FFFFF000
FFFF8000
F807C000
F807C000
F803E000
F803F000
F801F000
F800F800
F800FC00
F8007C00
F8003E00
F8003F00
F8001F00
F8000F80
F8000FC0
F80007C0
F80003E0
ENDCHAR
STARTCHAR 0053
ENCODING 83
SWIDTH 594 0
DWIDTH 33 0
BBX 28 40 3 0
BITMAP
001F0000
01FFF000
07FFFC00
0FFFFE00
1FFFFF00
3F803F80
3F001FC0
7E000FC0
7C0007C0
7C0007E0
7C0003E0
7C0003E0
7C000000
7C000000
7E000000
3F000000
3F800000
1FF00000
0FFF8000
07FFF800
01FFFE00
003FFF00
0001FF80
00001FC0
00000FE0
000007E0
000003E0
F80003F0
F80001F0
F80001F0
FC0003F0
FC0003E0
7E0003E0
7E0007E0
3F800FC0
1FE03F80
0FFFFF80
07FFFE00
03FFFC00
00FFF000
ENDCHAR
STARTCHAR 0054
ENCODING 84
SWIDTH 576 0
DWIDTH 32 0
BBX 28 39 2 0
BITMAP
FFFFFFF0
FFFFFFF0
FFFFFFF0
FFFFFFF0
000F8000
000F8000
000F8000
000F8000
000F8000
000F8000
000F8000
000F8000
000F8000
000F8000
000F8000
000F8000
000F8000
000F8000
000F8000
000F8000
000F8000
000F8000
000F8000
000F8000
000F8000
000F8000
000F8000
000F8000
000F8000
000F8000
000F8000
000F8000
000F8000
000F8000
000F8000
000F8000
000F8000
000F8000
000F8000
ENDCHAR
STARTCHAR 0055
ENCODING 85
SWIDTH 684 0
DWIDTH 38 0
BBX 30 40 4 -1
BITMAP
F000003C
F000003C
F000003C
F000003C
F000003C
F000003C
F000003C
F000003C
F000003C
F000003C
F000003C
F000003C
F000003C
F000003C
F000003C
F000003C
F000003C
F000003C
F000003C
F000003C
F000003C
F000003C
F000003C
F000003C
F000007C
F800007C
F800007C
F800007C
F80000FC
7C0000F8
7C0000F8
7E0001F8
3F0003F0
1F8007E0
1FF01FE0
0FFFFFC0
07FFFF80
01FFFE00
007FF800
00030000
ENDCHAR
STARTCHAR 0056
ENCODING 86
SWIDTH 630 0
DWIDTH 35 0
BBX 33 39 1 0
BITMAP
F800000F80
F800000F80
7C00000F80
7C00001F00
7C00001F00
3E00001F00
3E00003E00
3E00003E00
1F00003E00
1F00007C00
1F00007C00
0F80007800
0F8000F800
0F8000F800
07C000F000
07C001F000
07C001F000
03E001E000
03E003E000
01E003E000
01F007C000
01F007C000
00F007C000
00F80F8000
00F80F8000
00780F8000
007C1F0000
007C1F0000
003C1F0000
003E3E0000
003E3E0000
001F3E0000
001F7C0000
001F7C0000
000FFC0000
000FF80000
000FF80000
0007F00000
0007F00000
ENDCHAR
STARTCHAR 0057
ENCODING 87
SWIDTH 990 0
DWIDTH 55 0
BBX 53 39 1 0
BITMAP
F80000F80000F8
F80000F80000F8
F80000FC0000F8
7C0001FC0000F0
7C0001FC0001F0
7C0001FE0001F0
3C0003FE0001F0
3E0003FE0001E0
3E0003FE0003E0
3E0007DF0003E0
1E0007DF0003E0
1F00078F0003C0
1F000F8F8007C0
1F000F8F8007C0
0F000F07800780
0F801F07C00F80
0F801F07C00F80
0F801F03C00F80
07803E03E00F00
07C03E03E01F00
07C03E01E01F00
03C07C01F01F00
03C07C01F01E00
03E07C00F03E00
03E0F800F83E00
01E0F800F83E00
01F0F800783C00
01F1F0007C7C00
01F1F0007C7C00
00F1F0003C7800
00FBE0003E7800
00FBE0003EF800
00FBE0003EF800
007FC0001FF000
007FC0001FF000
007FC0001FF000
003F80000FF000
003F80000FE000
003F80000FE000
ENDCHAR
STARTCHAR 0058
ENCODING 88
SWIDTH 648 0
DWIDTH 36 0
BBX 31 39 3 0
BITMAP
F800003E
FC00007E
7C0000FC
3E0000F8
3F0001F8
1F0001F0
0F8003E0
0FC007E0
07C007C0
03E00F80
03E01F80
01F01F00
01F83E00
00F87E00
007C7C00
007EF800
003FF800
001FF000
001FE000
000FE000
000FE000
001FF000
003FF800
003EF800
007C7C00
00FC7E00
00F83E00
01F01F00
03F01F80
03E00F80
07C00FC0
0FC007C0
0F8003E0
1F0003F0
3F0001F0
3E0000F8
7C0000FC
FC00007C
F800003E
ENDCHAR
STARTCHAR 0059
ENCODING 89
SWIDTH 612 0
DWIDTH 34 0
BBX 30 39 2 0
BITMAP
F800007C
7C0000F8
7C0000F8
3E0001F0
3E0001F0
1F0003E0
1F0003E0
0F8007C0
0F8007C0
07C00F80
07C00F80
03E01F00
03E01F00
01F03E00
01F03E00
00F87C00
00F87C00
007CF800
007CF800
003FF000
003FF000
001FE000
001FE000
000FC000
000FC000
00078000
00078000
00078000
00078000
00078000
00078000
00078000
00078000
00078000
00078000
00078000
00078000
00078000
00078000
ENDCHAR
STARTCHAR 005A
ENCODING 90
SWIDTH 612 0
DWIDTH 34 0
BBX 27 39 3 0
BITMAP
FFFFFFE0
FFFFFFE0
FFFFFFE0
FFFFFFE0
FFFFFFE0
000007E0
00000FC0
00001F80
00001F80
00003F00
00007E00
00007C00
0000FC00
0001F800
0003F000
0003E000
0007E000
000FC000
000F8000
001F8000
003F0000
007E0000
007C0000
00FC0000
01F80000
03F00000
03E00000
07E00000
0FC00000
0F800000
1F800000
3F000000
7E000000
7C000000
FC000000
FFFFFFE0
FFFFFFE0
FFFFFFE0
FFFFFFE0
ENDCHAR
STARTCHAR 005B
ENCODING 91
SWIDTH 432 0
DWIDTH 24 0
BBX 16 55 4 -10
BITMAP
FFFF
FFFF
FFFF
F000
F000
F000
F000
F000
F000
F000
F000
F000
F000
F000
F000
F000
F000
F000
F000
F000
F000
F000
F000
F000
F000
F000
F000
F000
F000
F000
F000
F000
F000
F000
F000
F000
F000
F000
F000
F000
F000
F000
F000
F000
F000
F000
F000
F000
F000
F000
F000
FFFF
FFFF
FFFF
FFFF
ENDCHAR
STARTCHAR 005C
ENCODING 92
SWIDTH 504 0
DWIDTH 28 0
BBX 24 54 1 -9
BITMAP
F80000
7C0000
7C0000
3C0000
3E0000
3E0000
1E0000
1F0000
1F0000
0F0000
0F8000
0F8000
078000
07C000
03C000
03E000
03E000
01E000
01F000
01F000
00F000
00F800
00F800
007800
007C00
003C00
003E00
003E00
001E00
001F00
001F00
000F00
000F80
000F80
000780
0007C0
0003C0
0003E0
0003E0
0001E0
0001F0
0001F0
0000F0
0000F8
0000F8
000078
00007C
00007C
00003C
00003E
00001E
00001F
00001F
00000F
ENDCHAR
STARTCHAR 005D
ENCODING 93
SWIDTH 432 0
DWIDTH 24 0
BBX 16 55 4 -10
BITMAP
FFFF
FFFF
FFFF
000F
000F
000F
000F
000F
000F
000F
000F
000F
000F
000F
000F
000F
000F
000F
000F
000F
000F
000F
000F
000F
000F
000F
000F
000F
000F
000F
000F
000F
000F
000F
000F
000F
000F
000F
000F
000F
000F
000F
000F
000F
000F
000F
000F
000F
000F
000F
000F
FFFF
FFFF
FFFF
FFFF
ENDCHAR
STARTCHAR 005E
ENCODING 94
SWIDTH 414 0
DWIDTH 23 0
BBX 19 10 2 32
BITMAP
03F800
03F800
07FC00
0FBE00
0F1E00
1E0F00
3E0F80
7C07C0
7803C0
F803E0
ENDCHAR
STARTCHAR 005F
ENCODING 95
SWIDTH 702 0
DWIDTH 39 0
BBX 27 4 6 0
BITMAP
FFFFFFE0
FFFFFFE0
FFFFFFE0
FFFFFFE0
ENDCHAR
STARTCHAR 0060
ENCODING 96
SWIDTH 234 0
DWIDTH 13 0
BBX 10 10 2 35
BITMAP
F800
F800
7C00
3C00
3E00
1F00
0F00
0F80
0780
03C0
ENDCHAR
STARTCHAR 0061
ENCODING 97
SWIDTH 612 0
DWIDTH 34 0
BBX 27 30 3 0
BITMAP
00FF0000
03FFC3E0
07FFE3E0
0FFFF3E0
1FC0FBE0
3F003FE0
7E001FE0
7E000FE0
7C0007E0
F80007E0
F80003E0
F80003E0
F80003E0
F80003E0
F80003E0
F80003E0
F80003E0
F80003E0
F80003E0
F80003E0
F80007E0
7C0007E0
7C000FE0
7E000FE0
3F001FE0
3FC07BE0
1FFFF3E0
0FFFE3E0
07FFC3E0
01FF03E0
ENDCHAR
STARTCHAR 0062
ENCODING 98
SWIDTH 612 0
DWIDTH 34 0
BBX 28 42 4 0
BITMAP
F8000000
F8000000
F8000000
F8000000
F8000000
F8000000
F8000000
F8000000
F8000000
F8000000
F8000000
F8000000
F81FE000
F87FF800
F8FFFE00
F9FFFF00
FBE07F80
FB801F80
FF000FC0
FE0007C0
FE0007E0
FC0003E0
FC0003E0
F80003E0
F80001F0
F80001F0
F80001F0
F80001F0
F80001F0
F80001F0
F80003E0
FC0003E0
FC0003E0
FC0007E0
FE0007C0
FF000FC0
FB801F80
FBC03F80
F9FFFF00
F8FFFE00
F87FFC00
F81FF000
ENDCHAR
STARTCHAR 0063
ENCODING 99
SWIDTH 576 0
DWIDTH 32 0
BBX 26 30 3 0
BITMAP
007FC000
01FFF000
07FFFC00
0FFFFE00
1FE07F00
1F801F00
3F000F80
7E000F80
7C0007C0
7C0007C0
F80003C0
F8000000
F8000000
F8000000
F8000000
F8000000
F8000000
F8000000
F8000000
F80003C0
7C0007C0
7C0007C0
7E0007C0
3E000F80
3F001F80
1FC03F00
0FFFFE00
07FFFC00
03FFF800
00FFE000
ENDCHAR
STARTCHAR 0064
ENCODING 100
SWIDTH 612 0
DWIDTH 34 0
BBX 27 42 3 0
BITMAP
000003E0
000003E0
000003E0
000003E0
000003E0
000003E0
000003E0
000003E0
000003E0
000003E0
000003E0
000003E0
00FF03E0
03FFC3E0
07FFE3E0
0FFFF3E0
1FE0FBE0
3F803FE0
3E001FE0
7E000FE0
7C0007E0
FC0007E0
F80003E0
F80003E0
F80003E0
F80003E0
F80003E0
F80003E0
F80003E0
F80003E0
F80003E0
F80003E0
F80007E0
7C0007E0
7C000FE0
7E000FE0
3F001FE0
1FC07BE0
1FFFF3E0
0FFFE3E0
07FFC3E0
01FF83E0
ENDCHAR
STARTCHAR 0065
ENCODING 101
SWIDTH 576 0
DWIDTH 32 0
BBX 27 30 3 0
BITMAP
007FC000
01FFF000
07FFFC00
0FFFFE00
1FC07E00
1F001F00
3E000F80
7C000F80
7C0007C0
780007C0
F80007C0
F80003C0
F80003C0
FFFFFFC0
FFFFFFC0
FFFFFFE0
FFFFFFE0
F8000000
F8000000
F8000000
78000000
7C0007C0
7C0007C0
3E000F80
3F001F80
1FC07F00
0FFFFE00
07FFFC00
03FFF800
00FFE000
ENDCHAR
STARTCHAR 0066
ENCODING 102
SWIDTH 360 0
DWIDTH 20 0
BBX 15 41 3 0
BITMAP
00FE
03FE
07FE
0FFE
0FC0
0F80
0F80
0F00
0F00
0F00
0F00
0F00
FFFE
FFFE
FFFE
FFFE
0F00
0F00
0F00
0F00
0F00
0F00
0F00
0F00
0F00
0F00
0F00
0F00
0F00
0F00
0F00
0F00
0F00
0F00
0F00
0F00
0F00
0F00
0F00
0F00
0F00
ENDCHAR
STARTCHAR 0067
ENCODING 103
SWIDTH 612 0
DWIDTH 34 0
BBX 27 42 3 -12
BITMAP
00FF0000
03FFC1E0
07FFE1E0
0FFFF1E0
1FE079E0
3F801DE0
3F000FE0
7E000FE0
7C0007E0
FC0003E0
F80003E0
F80003E0
F80003E0
F80003E0
F80003E0
F80003E0
F80003E0
F80003E0
F80003E0
FC0003E0
7C0007E0
7E0007E0
7E000FE0
3F001DE0
1FC079E0
1FFFF9E0
0FFFF1E0
07FFE1E0
01FF81E0
001801E0
000003E0
000003E0
000003E0
000007E0
000007C0
00000FC0
00003F80
007FFF00
007FFE00
007FFC00
007FF800
001F8000
ENDCHAR
STARTCHAR 0068
ENCODING 104
SWIDTH 612 0
DWIDTH 34 0
BBX 26 42 4 0
BITMAP
F8000000
F8000000
F8000000
F8000000
F8000000
F8000000
F8000000
F8000000
F8000000
F8000000
F8000000
F8000000
F81FE000
F87FF800
F8FFFC00
F9FFFE00
FBE1FF00
FB803F80
FE001F80
FE000F80
FC0007C0
FC0007C0
F80007C0
F80007C0
F80007C0
F80007C0
F80007C0
F80007C0
F80007C0
F80007C0
F80007C0
F80007C0
F80007C0
F80007C0
F80007C0
F80007C0
F80007C0
F80007C0
F80007C0
F80007C0
F80007C0
F80007C0
ENDCHAR
STARTCHAR 0069
ENCODING 105
SWIDTH 234 0
DWIDTH 13 0
BBX 6 41 4 0
BITMAP
78
FC
FC
FC
FC
78
00
00
00
00
00
00
78
78
78
78
78
78
78
78
78
78
78
78
78
78
78
78
78
78
78
78
78
78
78
78
78
78
78
78
78
ENDCHAR
STARTCHAR 006A
ENCODING 106
SWIDTH 252 0
DWIDTH 14 0
BBX 12 53 -2 -12
BITMAP
00E0
01F0
03F0
03F0
03F0
01E0
0000
0000
0000
0000
0000
01F0
01F0
01F0
01F0
01F0
01F0
01F0
01F0
01F0
01F0
01F0
01F0
01F0
01F0
01F0
01F0
01F0
01F0
01F0
01F0
01F0
01F0
01F0
01F0
01F0
01F0
01F0
01F0
01F0
01F0
01F0
01F0
01F0
01F0
01F0
01F0
03E0
03E0
FFE0
FFC0
FFC0
FF00
ENDCHAR
STARTCHAR 006B
ENCODING 107
SWIDTH 504 0
DWIDTH 28 0
BBX 22 42 4 0
BITMAP
F80000
F80000
F80000
F80000
F80000
F80000
F80000
F80000
F80000
F80000
F80000
F80000
F80000
F800F8
F801F0
F803E0
F807C0
F80F80
F81F00
F83E00
F87C00
F8F800
F9F000
FBE000
FFC000
FF8000
FFC000
FFC000
FBE000
F9F000
F8F800
F8FC00
F87E00
F83E00
F81F00
F80F80
F807C0
F807E0
F803F0
F801F0
F800F8
F8007C
ENDCHAR
STARTCHAR 006C
ENCODING 108
SWIDTH 306 0
DWIDTH 17 0
BBX 11 42 4 0
BITMAP
F800
F800
F800
F800
F800
F800
F800
F800
F800
F800
F800
F800
F800
F800
F800
F800
F800
F800
F800
F800
F800
F800
F800
F800
F800
F800
F800
F800
F800
F800
F800
F800
F800
F800
F800
F800
F800
7C00
7E00
7FE0
3FE0
1FE0
ENDCHAR
STARTCHAR 006D
ENCODING 109
SWIDTH 954 0
DWIDTH 53 0
BBX 45 30 4 0
BITMAP
001FC001FC00
F87FF007FF00
F8FFF80FFFC0
F9FFFC1FFFE0
FBE3FE3E1FE0
FB807F7807F0
FE003F7001F0
FC001FE001F8
FC000FC000F8
F8000FC000F8
F8000F800078
F8000F800078
F8000F800078
F8000F800078
F8000F800078
F8000F800078
F8000F800078
F8000F800078
F8000F800078
F8000F800078
F8000F800078
F8000F800078
F8000F800078
F8000F800078
F8000F800078
F8000F800078
F8000F800078
F8000F800078
F8000F800078
F8000F800078
ENDCHAR
STARTCHAR 006E
ENCODING 110
SWIDTH 612 0
DWIDTH 34 0
BBX 26 30 4 0
BITMAP
001FE000
F87FF800
F8FFFC00
F9FFFE00
FBE0FF00
FB803F80
FE001F80
FE000F80
FC0007C0
FC0007C0
F80007C0
F80007C0
F80007C0
F80007C0
F80007C0
F80007C0
F80007C0
F80007C0
F80007C0
F80007C0
F80007C0
F80007C0
F80007C0
F80007C0
F80007C0
F80007C0
F80007C0
F80007C0
F80007C0
F80007C0
ENDCHAR
STARTCHAR 006F
ENCODING 111
SWIDTH 594 0
DWIDTH 33 0
BBX 27 30 3 0
BITMAP
007FC000
01FFF000
07FFFC00
0FFFFE00
1FE0FF00
1F803F00
3F001F80
7E000FC0
7C0007C0
7C0007C0
F80003E0
F80003E0
F80003E0
F80003E0
F80003E0
F80003E0
F80003E0
F80003E0
F80003E0
F80003E0
7C0007C0
7C0007C0
7E000FC0
3E000F80
3F001F80
1FC07F00
0FFFFE00
07FFFC00
03FFF800
00FFE000
ENDCHAR
STARTCHAR 0070
ENCODING 112
SWIDTH 612 0
DWIDTH 34 0
BBX 28 41 4 -11
BITMAP
001FE000
F87FF800
F8FFFE00
F9FFFF00
FBE07F80
FB801F80
FF000FC0
FE0007C0
FE0007E0
FC0003E0
FC0003E0
F80003E0
F80001F0
F80001F0
F80001F0
F80001F0
F80001F0
F80001F0
F80003E0
FC0003E0
FC0003E0
FC0007E0
FE0007C0
FF000FC0
FB801F80
FBC03F80
F9FFFF00
F8FFFE00
F87FFC00
F81FF000
F8000000
F8000000
F8000000
F8000000
F8000000
F8000000
F8000000
F8000000
F8000000
F8000000
F8000000
ENDCHAR
STARTCHAR 0071
ENCODING 113
SWIDTH 612 0
DWIDTH 34 0
BBX 27 41 3 -11
BITMAP
00FF0000
03FFC1E0
07FFE1E0
0FFFF1E0
1FE0F9E0
3F803DE0
3F000FE0
7E000FE0
7C0007E0
7C0007E0
FC0003E0
F80003E0
F80003E0
F80003E0
F80003E0
F80003E0
F80003E0
F80003E0
F80003E0
F80003E0
FC0003E0
7C0007E0
7E0007E0
3E000FE0
3F001DE0
1FC079E0
1FFFF9E0
0FFFF1E0
03FFC1E0
01FF81E0
000001E0
000001E0
000001E0
000001E0
000001E0
000001E0
000001E0
000001E0
000001E0
000001E0
000001E0
ENDCHAR
STARTCHAR 0072
ENCODING 114
SWIDTH 342 0
DWIDTH 19 0
BBX 15 29 4 0
BITMAP
F87E
F9FE
FBFE
FFFE
FFC2
FE00
FC00
FC00
F800
F800
F800
F800
F800
F800
F800
F800
F800
F800
F800
F800
F800
F800
F800
F800
F800
F800
F800
F800
F800
ENDCHAR
STARTCHAR 0073
ENCODING 115
SWIDTH 486 0
DWIDTH 27 0
BBX 22 30 3 0
BITMAP
01FE00
0FFF80
1FFFE0
3FFFF0
7E03F0
7C01F8
7800F8
F80078
F8007C
F80000
780000
7C0000
7F8000
3FFC00
1FFF80
07FFE0
00FFF0
0003F8
0000FC
00007C
F0007C
F8007C
F8007C
F8007C
7C00FC
7E01F8
3FFFF0
1FFFF0
0FFFC0
03FF00
ENDCHAR
STARTCHAR 0074
ENCODING 116
SWIDTH 378 0
DWIDTH 21 0
BBX 17 39 2 0
BITMAP
07C000
07C000
07C000
07C000
07C000
07C000
07C000
07C000
07C000
07C000
FFFF80
FFFF80
FFFF80
FFFF80
07C000
07C000
07C000
07C000
07C000
07C000
07C000
07C000
07C000
07C000
07C000
07C000
07C000
07C000
07C000
07C000
07C000
07C000
07C000
07C000
07E000
03F180
03FF80
01FF80
00FF80
ENDCHAR
STARTCHAR 0075
ENCODING 117
SWIDTH 594 0
DWIDTH 33 0
BBX 26 30 4 -1
BITMAP
F80007C0
F80007C0
F80007C0
F80007C0
F80007C0
F80007C0
F80007C0
F80007C0
F80007C0
F80007C0
F80007C0
F80007C0
F80007C0
F80007C0
F80007C0
F80007C0
F80007C0
F80007C0
F80007C0
F8000FC0
7C000FC0
7C000FC0
7E001FC0
7F0037C0
3F80F7C0
1FFFE7C0
1FFFC7C0
07FF87C0
03FF07C0
00200000
ENDCHAR
STARTCHAR 0076
ENCODING 118
SWIDTH 540 0
DWIDTH 30 0
BBX 27 29 2 0
BITMAP
F80003E0
F80003C0
780007C0
7C0007C0
3C000780
3E000F80
3E000F80
1E001F00
1F001F00
1F001E00
0F003E00
0F803E00
0F803C00
07807C00
07C07C00
07C07800
03E0F800
03E0F000
01E1F000
01F1F000
01F1E000
00F3E000
00FBE000
00FBC000
007FC000
007FC000
007F8000
003F8000
003F0000
ENDCHAR
STARTCHAR 0077
ENCODING 119
SWIDTH 810 0
DWIDTH 45 0
BBX 41 29 2 0
BITMAP
F8003E000780
F8003E000780
78003F000F80
78007F000F80
7C007F000F00
7C007F800F00
3C00FF801F00
3E00FF801E00
3E00F7C01E00
1E00F3C03E00
1E01F3C03E00
1F01E3E03C00
1F01E3E03C00
0F03E1E07C00
0F03C1F07C00
0F83C1F07800
0F87C0F07800
0787C0F0F800
078780F8F000
07CF8078F000
03CF8078F000
03CF007DF000
03EF007DE000
03FF003DE000
01FE003FE000
01FE003FE000
01FE001FC000
00FE001FC000
00FC001FC000
ENDCHAR
STARTCHAR 0078
ENCODING 120
SWIDTH 540 0
DWIDTH 30 0
BBX 25 29 2 0
BITMAP
FC000F80
7C001F80
3E001F00
3F003E00
1F007E00
0F807C00
0FC0F800
07C0F800
03E1F000
03E3E000
01F3E000
00FFC000
00FF8000
007F8000
007F0000
007F8000
00FFC000
01FFC000
01F3E000
03E3F000
07E1F000
07C0F800
0F80F800
1F807C00
1F003E00
3F003E00
3E001F00
7C001F80
FC000F80
ENDCHAR
STARTCHAR 0079
ENCODING 121
SWIDTH 522 0
DWIDTH 29 0
BBX 26 40 2 -11
BITMAP
F80007C0
F80007C0
7C0007C0
7C000F80
7C000F80
3E001F00
3E001F00
1E001E00
1F003E00
1F003E00
0F803C00
0F807C00
07807800
07C0F800
07C0F800
03C0F000
03E1F000
01E1E000
01E1E000
01F3E000
00F3C000
00F7C000
00FF8000
007F8000
007F8000
003F0000
003F0000
003E0000
003E0000
003C0000
007C0000
007C0000
00F80000
00F80000
01F00000
03F00000
5FE00000
7FE00000
7FC00000
7F000000
ENDCHAR
STARTCHAR 007A
ENCODING 122
SWIDTH 486 0
DWIDTH 27 0
BBX 22 29 3 0
BITMAP
7FFFFC
7FFFFC
7FFFFC
7FFFFC
0000FC
0000F8
0001F0
0003E0
0007C0
000FC0
000F80
001F00
003E00
007C00
00FC00
00F800
01F000
03E000
07C000
0FC000
0F8000
1F0000
3E0000
7C0000
FC0000
FFFFFC
FFFFFC
FFFFFC
FFFFFC
ENDCHAR
STARTCHAR 007B
ENCODING 123
SWIDTH 450 0
DWIDTH 25 0
BBX 17 58 5 -12
BITMAP
007F80
01FF80
03FF80
03E000
03C000
07C000
078000
078000
078000
078000
078000
078000
078000
078000
078000
078000
078000
078000
078000
078000
078000
078000
078000
078000
078000
078000
078000
3F0000
FE0000
FF0000
0F8000
078000
078000
078000
078000
078000
078000
078000
078000
078000
078000
078000
078000
078000
078000
078000
078000
078000
078000
078000
078000
078000
07C000
03C000
03F800
01FF80
00FF80
007F80
ENDCHAR
STARTCHAR 007C
ENCODING 124
SWIDTH 288 0
DWIDTH 16 0
BBX 4 66 6 -13
BITMAP
F0
F0
F0
F0
F0
F0
F0
F0
F0
F0
F0
F0
F0
F0
F0
F0
F0
F0
F0
F0
F0
F0
F0
F0
F0
F0
F0
F0
F0
F0
F0
F0
F0
F0
F0
F0
F0
F0
F0
F0
F0
F0
F0
F0
F0
F0
F0
F0
F0
F0
F0
F0
F0
F0
F0
F0
F0
F0
F0
F0
F0
F0
F0
F0
F0
F0
ENDCHAR
STARTCHAR 007D
ENCODING 125
SWIDTH 468 0
DWIDTH 26 0
BBX 17 58 7 -12
BITMAP
FF0000
FFC000
FFE000
03E000
01E000
01F000
00F000
00F000
00F000
00F000
00F000
00F000
00F000
00F000
00F000
00F000
00F000
00F000
00F000
00F000
00F000
00F000
00F000
00F000
00F000
00F000
00F000
007E00
003F80
007F80
00F800
00F000
00F000
00F000
00F000
00F000
00F000
00F000
00F000
00F000
00F000
00F000
00F000
00F000
00F000
00F000
00F000
00F000
00F000
00F000
00F000
00F000
01F000
01E000
0FE000
FFC000
FF8000
FF0000
ENDCHAR
STARTCHAR 007E
ENCODING 126
SWIDTH 558 0
DWIDTH 31 0
BBX 21 6 5 18
BITMAP
1FC038
3FF078
7FFFF0
78FFF0
F03FE0
F00700
ENDCHAR
STARTCHAR 00A0
ENCODING 160
SWIDTH 216 0
DWIDTH 12 0
BBX 0 0 0 0
BITMAP
ENDCHAR
STARTCHAR 00A1
ENCODING 161
SWIDTH 216 0
DWIDTH 12 0
BBX 6 42 4 -14
BITMAP
78
FC
FC
FC
F8
30
00
00
00
00
70
78
78
78
78
78
78
78
78
78
78
78
78
78
78
78
78
F8
F8
F8
F8
F8
F8
F8
F8
F8
F8
F8
F8
F8
F8
F8
ENDCHAR
STARTCHAR 00A2
ENCODING 162
SWIDTH 594 0
DWIDTH 33 0
BBX 26 38 3 -4
BITMAP
000C0000
000C0000
000C0000
000C0000
003FC000
01FFF000
07FFFC00
0FFFFE00
1FEC7F00
1F8C1F00
3F0C0F80
7E0C0F80
7C0C07C0
7C0C07C0
F80C03C0
F80C0000
F80C0000
F80C0000
F80C0000
F80C0000
F80C0000
F80C0000
F80C0000
F80C03C0
7C0C07C0
7C0C07C0
7E0C07C0
3E0C0F80
3F0C1F80
1FCC3F00
0FFFFE00
07FFFC00
03FFF800
00FFE000
000C0000
000C0000
000C0000
000C0000
ENDCHAR
STARTCHAR 00A3
ENCODING 163
SWIDTH 594 0
DWIDTH 33 0
BBX 28 40 2 0
BITMAP
001FC000
00FFF800
03FFFE00
07FFFF00
0FF9FF80
0FC01F80
1F800FC0
1F0007C0
3F0007E0
3F0003E0
3E0003E0
3E0003E0
3F0003E0
3F000000
1F000000
1F800000
1F800000
0FC00000
07E00000
07E00000
03F00000
01F00000
7FFFF800
7FFFF800
7FFFF800
00F80000
007C0000
007C0000
00780000
00780000
00F80000
00F00000
01F00000
01E00000
07C00000
1F000000
FFFFFFF0
FFFFFFF0
FFFFFFF0
FFFFFFF0
ENDCHAR
STARTCHAR 00A4
ENCODING 164
SWIDTH 576 0
DWIDTH 32 0
BBX 25 26 4 6
BITMAP
20000600
703E0F00
F9FF8F80
7FFFFF00
3FFFFE00
1FC1FC00
3F007C00
3C003E00
7C001E00
78000F00
78000F00
F0000F00
F0000F00
F0000F00
F0000F00
70000F00
78000F00
78001E00
3C003E00
3E007C00
1F00FC00
3FFFFE00
7FFFFF00
FBFFCF80
F0FF0780
60000600
ENDCHAR
STARTCHAR 00A5
ENCODING 165
SWIDTH 612 0
DWIDTH 34 0
BBX 30 39 2 0
BITMAP
F800007C
7C0000F8
7C0000F8
3E0001F0
3E0001F0
1F0003E0
1F0003E0
0F8007C0
0F8007C0
07C00F80
07C00F80
03E01F00
03E01F00
01F03E00
01F03E00
00F87C00
00F87C00
007CF800
007CF800
003FF000
003FF000
001FE000
001FE000
0FFFFF80
0FFFFF80
0FFFFF80
00078000
00078000
00078000
0FFFFF80
0FFFFF80
0FFFFF80
00078000
00078000
00078000
00078000
00078000
00078000
00078000
ENDCHAR
STARTCHAR 00A6
ENCODING 166
SWIDTH 288 0
DWIDTH 16 0
BBX 4 66 6 -13
BITMAP
F0
F0
F0
F0
F0
F0
F0
F0
F0
F0
F0
F0
F0
F0
F0
F0
F0
F0
F0
F0
F0
F0
F0
F0
F0
F0
F0
F0
F0
F0
00
00
00
00
00
00
00
00
00
F0
F0
F0
F0
F0
F0
F0
F0
F0
F0
F0
F0
F0
F0
F0
F0
F0
F0
F0
F0
F0
F0
F0
F0
F0
F0
F0
ENDCHAR
STARTCHAR 00A7
ENCODING 167
SWIDTH 540 0
DWIDTH 30 0
BBX 25 40 3 0
BITMAP
003E0000
03FFC000
0FFFF000
1FFFF800
3F81FC00
3E007C00
3C007E00
3C003E00
7C003E00
3C000000
3E000000
3F800000
1FFC0000
0FFFC000
3FFFF800
7FFFFC00
7C01FE00
F8003F00
F8001F80
F8000F80
F8000F80
F8000F80
7C000F80
7F801F00
3FFE3F00
0FFFFE00
03FFFC00
007FF800
0001FC00
00007E00
00003E00
78001E00
7C001E00
7C003E00
7E003E00
3F007E00
1FFFFC00
0FFFF800
07FFF000
01FFC000
ENDCHAR
STARTCHAR 00A8
ENCODING 168
SWIDTH 360 0
DWIDTH 20 0
BBX 17 6 2 35
BITMAP
780E00
FC1F00
FC1F80
FC1F80
FC1F80
780F00
ENDCHAR
STARTCHAR 00A9
ENCODING 169
SWIDTH 810 0
DWIDTH 45 0
BBX 41 41 2 -1
BITMAP
00003E000000
0007FFF00000
001FFFFC0000
007FFFFF0000
00FE003F8000
01F00007E000
03E00001F000
07800000F000
0F0000007800
1E00FF803C00
1E03FFE03C00
3C07FFF01E00
3C0F80F80E00
381F003C0E00
781E001E0F00
703C000E0700
7038000F0700
703800000700
F07800000700
F07800000780
F07800000780
F07800000780
F07800000700
703800080700
7038000E0700
703C000E0F00
781E001E0F00
381F003C0E00
3C0FC0F81E00
3C07FFF01E00
1E03FFE03C00
1F00FF807C00
0F8000007800
07C00000F000
03E00003E000
01F80007C000
00FE003F8000
007FFFFF0000
001FFFFC0000
0007FFF00000
00002E000000
ENDCHAR
STARTCHAR 00AA
ENCODING 170
SWIDTH 144 0
DWIDTH 8 0
BBX 8 7 0 22
BITMAP
7B
E7
C3
C3
C7
E7
7B
ENDCHAR
STARTCHAR 00AB
ENCODING 171
SWIDTH 630 0
DWIDTH 35 0
BBX 31 23 2 6
BITMAP
003F007E
003E007C
007C00F8
00F801F0
01F003E0
03E007C0
07C00F80
0F801F00
1F003E00
3E007C00
7C00F800
F801F000
7C00F800
3E007C00
1F003E00
0F801F00
07C00F80
03E007C0
01F003E0
00F801F0
007C00F8
003E007C
001F003E
ENDCHAR
STARTCHAR 00AC
ENCODING 172
SWIDTH 648 0
DWIDTH 36 0
BBX 28 14 4 15
BITMAP
FFFFFFF0
FFFFFFF0
FFFFFFF0
FFFFFFF0
000000F0
000000F0
000000F0
000000F0
000000F0
000000F0
000000F0
000000F0
000000F0
000000F0
ENDCHAR
STARTCHAR 00AD
ENCODING 173
SWIDTH 594 0
DWIDTH 33 0
BBX 21 4 6 15
BITMAP
FFFFF8
FFFFF8
FFFFF8
FFFFF8
ENDCHAR
STARTCHAR 00AE
ENCODING 174
SWIDTH 324 0
DWIDTH 18 0
BBX 13 14 3 25
BITMAP
0F80
3FE0
6030
C018
CF98
8C88
8C88
8F88
8D08
CD98
CC98
6030
3FE0
0F80
ENDCHAR
STARTCHAR 00AF
ENCODING 175
SWIDTH 360 0
DWIDTH 20 0
BBX 16 2 2 36
BITMAP
FFFF
FFFF
ENDCHAR
STARTCHAR 00B0
ENCODING 176
SWIDTH 288 0
DWIDTH 16 0
BBX 11 11 3 37
BITMAP
1F00
3F80
7BC0
E0C0
E0E0
E0E0
E0E0
71C0
7FC0
3F80
0400
ENDCHAR
STARTCHAR 00B1
ENCODING 177
SWIDTH 594 0
DWIDTH 33 0
BBX 22 30 6 0
BITMAP
007800
007800
007800
007800
007800
007800
007800
007800
FFFFFC
FFFFFC
FFFFFC
FFFFFC
FFFFFC
007800
007800
007800
007800
007800
007800
007800
007800
007800
000000
000000
000000
000000
000000
FFFFFC
FFFFFC
FFFFFC
ENDCHAR
STARTCHAR 00B2
ENCODING 178
SWIDTH 288 0
DWIDTH 16 0
BBX 14 21 1 21
BITMAP
0FE0
1FF0
3EF8
783C
701C
701C
701C
001C
003C
0038
0070
00F0
01E0
07C0
0F00
1E00
3C00
7800
FFFC
FFFC
FFFC
ENDCHAR
STARTCHAR 00B3
ENCODING 179
SWIDTH 306 0
DWIDTH 17 0
BBX 15 21 1 21
BITMAP
0FF0
1FF8
3E7C
781C
701E
000E
000E
001C
003C
03F8
03F0
00FC
001C
000E
000E
F00E
701E
781C
3FFC
1FF8
0FF0
ENDCHAR
STARTCHAR 00B4
ENCODING 180
SWIDTH 234 0
DWIDTH 13 0
BBX 10 10 2 35
BITMAP
07C0
07C0
0F80
0F00
1F00
3E00
3C00
7C00
7800
F000
ENDCHAR
STARTCHAR 00B5
ENCODING 181
SWIDTH 630 0
DWIDTH 35 0
BBX 30 41 4 -12
BITMAP
F8001F00
F8001F00
F8001F00
F8001F00
F8001F00
F8001F00
F8001F00
F8001F00
F8001F00
F8001F00
F8001F00
F8001F00
F8001F00
F8001F00
F8001F00
F8001F00
F8001F00
F8001F00
F8003F00
F8003F00
F8003F00
F8007F00
FC007F00
FC00FF00
FE03DF00
FFFF8FC0
FFFF8FFC
F7FF07FC
F3FC03FC
F0000000
F8000000
F8000000
F8000000
F8000000
F8000000
F8000000
F8000000
F8000000
F8000000
F8000000
F8000000
ENDCHAR
STARTCHAR 00B6
ENCODING 182
SWIDTH 522 0
DWIDTH 29 0
BBX 25 39 1 0
BITMAP
00FFFF80
07FFFF80
0FFFFF80
1FFFFF80
3FFFC380
7FFFC380
7FFFC380
7FFFC380
FFFFC380
FFFFC380
FFFFC380
FFFFC380
7FFFC380
7FFFC380
7FFFC380
3FFFC380
3FFFC380
1FFFC380
07FFC380
01FFC380
0003C380
0003C380
0003C380
0003C380
0003C380
0003C380
0003C380
0003C380
0003C380
0003C380
0003C380
0003C380
0003C380
0003C380
0003C380
0003C380
0003C380
0003C380
0003C380
ENDCHAR
STARTCHAR 00B7
ENCODING 183
SWIDTH 270 0
DWIDTH 15 0
BBX 6 7 5 17
BITMAP
30
F8
FC
FC
FC
F8
70
ENDCHAR
STARTCHAR 00B8
ENCODING 184
SWIDTH 234 0
DWIDTH 13 0
BBX 10 14 2 -14
BITMAP
7000
7000
6000
FE00
FF80
FF80
01C0
01C0
01C0
01C0
0380
FF80
FF00
7C00
ENDCHAR
STARTCHAR 00B9
ENCODING 185
SWIDTH 252 0
DWIDTH 14 0
BBX 12 21 1 21
BITMAP
0F00
1F00
3F00
7F00
F700
E700
8700
0700
0700
0700
0700
0700
0700
0700
0700
0700
0700
0700
7FF0
7FF0
7FF0
ENDCHAR
STARTCHAR 00BA
ENCODING 186
SWIDTH 144 0
DWIDTH 8 0
BBX 7 9 1 21
BITMAP
18
7C
C6
C6
C6
C6
C6
7C
10
ENDCHAR
STARTCHAR 00BB
ENCODING 187
SWIDTH 630 0
DWIDTH 35 0
BBX 30 23 3 6
BITMAP
F801F000
7C00F800
3E007C00
1F003E00
0F801F00
07C00F80
07E00FC0
03F007E0
01F003E0
00F801F0
007C00F8
003E007C
007C00F8
00F801F0
01F003E0
03E007C0
07C00F80
0F801F00
1F003E00
3F007E00
3E007C00
7C00F800
F801F000
ENDCHAR
STARTCHAR 00BC
ENCODING 188
SWIDTH 810 0
DWIDTH 45 0
BBX 41 39 2 0
BITMAP
0F000003E000
1F000003C000
3F000007C000
7F00000F8000
FF00000F0000
EF00001F0000
CF00001E0000
8F00003E0000
0F00007C0000
0F0000780000
0F0000F80000
0F0000F00000
0F0001F00000
0F0003E00000
0F0003C00000
0F0007C00000
FFE007800000
FFE00F800000
FFE01F000000
FFE01E000000
00003E007C00
00003C007C00
00007C00FC00
0000F801DC00
0000F001DC00
0001F0039C00
0001E0031C00
0003E0071C00
0007C00E1C00
0007800C1C00
000F801C1C00
000F00381C00
001F003FFF80
003E003FFF80
003C00001C00
007C00001C00
007800001C00
00F800001C00
00F000001C00
ENDCHAR
STARTCHAR 00BD
ENCODING 189
SWIDTH 828 0
DWIDTH 46 0
BBX 43 39 2 0
BITMAP
0F000001F000
1F000001E000
3F000003E000
7F000007C000
FF0000078000
EF00000F8000
CF00000F0000
8F00001F0000
0F00003E0000
0F00003C0000
0F00007C0000
0F0000780000
0F0000F80000
0F0001F00000
0F0001E00000
0F0003E00000
FFE003C00000
FFE007C00000
FFE007800000
FFE00F003E00
00001F00FF00
00001E01FF80
00003E03C7C0
00003C0381C0
0000780381C0
0000F80781C0
0000F00001C0
0001F00003C0
0001E0000380
0003C0000700
0007C0000F00
000780003E00
000F80007800
000F0000F000
001E0001E000
003E0003C000
003C0007FFE0
007C0007FFE0
00780007FFE0
ENDCHAR
STARTCHAR 00BE
ENCODING 190
SWIDTH 828 0
DWIDTH 46 0
BBX 43 39 2 0
BITMAP
0FE00000F000
3FF00001F000
3FF80001E000
787C0003E000
703C0007C000
003C00078000
003C000F8000
003C000F0000
03F8001F0000
03F0003E0000
03F0003C0000
0078007C0000
003C00780000
001C00F80000
001C01F00000
F03C01E00000
787C03E00000
7FF803C00000
3FF007C00000
0FE00F800000
00000F001F00
00001F001F00
00001E003F00
00003E007700
00007C007700
00007800E700
0000F801C700
0000F001C700
0001F0038700
0003E0070700
0003C0070700
0007C00E0700
0007800FFFE0
000F800FFFE0
001F00000700
001E00000700
003E00000700
003C00000700
007C00000700
ENDCHAR
STARTCHAR 00BF
ENCODING 191
SWIDTH 576 0
DWIDTH 32 0
BBX 26 40 3 -13
BITMAP
001F0000
001F0000
003F8000
001F8000
001F0000
000E0000
00000000
00000000
00000000
00000000
001F0000
001F0000
001F0000
003F0000
003E0000
007C0000
00FC0000
01F80000
03F00000
07E00000
0FC00000
1F800000
3F000000
3E000000
7C000000
7C000000
78000000
F80007C0
F80007C0
F80007C0
F80007C0
7C000F80
7C001F80
7E003F80
3F807F00
1FFFFE00
0FFFFC00
07FFF800
01FFE000
003F0000
ENDCHAR
STARTCHAR 00C0
ENCODING 192
SWIDTH 666 0
DWIDTH 37 0
BBX 34 53 2 0
BITMAP
00F8000000
007C000000
003C000000
003E000000
001F000000
000F000000
000F800000
0007800000
0003C00000
0003C00000
0000000000
0000000000
0000000000
0000000000
0003E00000
0003F00000
0003F00000
0007F00000
0007F80000
0007F80000
000FFC0000
000F7C0000
001F3C0000
001F3E0000
001E1E0000
003E1E0000
003C1F0000
003C0F0000
007C0F8000
00780F8000
00F8078000
00F807C000
00F007C000
01F003E000
01F003E000
01E001E000
03E001F000
03E001F000
07FFFFF000
07FFFFF800
07FFFFF800
0FFFFFFC00
0F80007C00
0F00003C00
1F00003E00
1F00003E00
3E00001E00
3E00001F00
3E00001F00
7C00000F80
7C00000F80
7800000F80
F8000007C0
ENDCHAR
STARTCHAR 00C1
ENCODING 193
SWIDTH 666 0
DWIDTH 37 0
BBX 34 53 2 0
BITMAP
00000F8000
00000F8000
00001F0000
00001E0000
00003E0000
00003C0000
0000780000
0000780000
0000F00000
0001E00000
0000000000
0000000000
0000000000
0000000000
0003E00000
0003F00000
0003F00000
0007F00000
0007F80000
0007F80000
000FFC0000
000F7C0000
001F3C0000
001F3E0000
001E1E0000
003E1E0000
003C1F0000
003C0F0000
007C0F8000
00780F8000
00F8078000
00F807C000
00F007C000
01F003E000
01F003E000
01E001E000
03E001F000
03E001F000
07FFFFF000
07FFFFF800
07FFFFF800
0FFFFFFC00
0F80007C00
0F00003C00
1F00003E00
1F00003E00
3E00001E00
3E00001F00
3E00001F00
7C00000F80
7C00000F80
7800000F80
F8000007C0
ENDCHAR
STARTCHAR 00C2
ENCODING 194
SWIDTH 666 0
DWIDTH 37 0
BBX 34 51 2 0
BITMAP
0001E00000
0003F00000
0007F80000
000FFC0000
001F3E0000
003E1F0000
007C0F0000
00F8078000
0000004000
0000000000
0000000000
0000000000
0003E00000
0003F00000
0003F00000
0007F00000
0007F80000
0007F80000
000FFC0000
000F7C0000
001F3C0000
001F3E0000
001E1E0000
003E1E0000
003C1F0000
003C0F0000
007C0F8000
00780F8000
00F8078000
00F807C000
00F007C000
01F003E000
01F003E000
01E001E000
03E001F000
03E001F000
07FFFFF000
07FFFFF800
07FFFFF800
0FFFFFFC00
0F80007C00
0F00003C00
1F00003E00
1F00003E00
3E00001E00
3E00001F00
3E00001F00
7C00000F80
7C00000F80
7800000F80
F8000007C0
ENDCHAR
STARTCHAR 00C3
ENCODING 195
SWIDTH 666 0
DWIDTH 37 0
BBX 34 50 2 0
BITMAP
001F038000
003FC38000
007FE70000
0071FF0000
0070FE0000
00703C0000
0000000000
0000000000
0000000000
0000000000
0000000000
0003E00000
0003F00000
0003F00000
0007F00000
0007F80000
0007F80000
000FFC0000
000F7C0000
001F3C0000
001F3E0000
001E1E0000
003E1E0000
003C1F0000
003C0F0000
007C0F8000
00780F8000
00F8078000
00F807C000
00F007C000
01F003E000
01F003E000
01E001E000
03E001F000
03E001F000
07FFFFF000
07FFFFF800
07FFFFF800
0FFFFFFC00
0F80007C00
0F00003C00
1F00003E00
1F00003E00
3E00001E00
3E00001F00
3E00001F00
7C00000F80
7C00000F80
7800000F80
F8000007C0
ENDCHAR
STARTCHAR 00C4
ENCODING 196
SWIDTH 666 0
DWIDTH 37 0
BBX 34 51 2 0
BITMAP
0010020000
007C0F8000
007C1F8000
00FE1FC000
00FE1F8000
007C0F8000
0010070000
0000000000
0000000000
0000000000
0000000000
0000000000
0003E00000
0003F00000
0003F00000
0007F00000
0007F80000
0007F80000
000FFC0000
000F7C0000
001F3C0000
001F3E0000
001E1E0000
003E1E0000
003C1F0000
003C0F0000
007C0F8000
00780F8000
00F8078000
00F807C000
00F007C000
01F003E000
01F003E000
01E001E000
03E001F000
03E001F000
07FFFFF000
07FFFFF800
07FFFFF800
0FFFFFFC00
0F80007C00
0F00003C00
1F00003E00
1F00003E00
3E00001E00
3E00001F00
3E00001F00
7C00000F80
7C00000F80
7800000F80
F8000007C0
ENDCHAR
STARTCHAR 00C5
ENCODING 197
SWIDTH 666 0
DWIDTH 37 0
BBX 34 53 2 0
BITMAP
0003F00000
0007F80000
000E380000
000C1C0000
000C1C0000
000C1C0000
000E380000
0007F80000
0003F00000
0000000000
0000000000
0000000000
0000000000
0000000000
0003E00000
0003F00000
0003F00000
0007F00000
0007F80000
0007F80000
000FFC0000
000F7C0000
001F3C0000
001F3E0000
001E1E0000
003E1E0000
003C1F0000
003C0F0000
007C0F8000
00780F8000
00F8078000
00F807C000
00F007C000
01F003E000
01F003E000
01E001E000
03E001F000
03E001F000
07FFFFF000
07FFFFF800
07FFFFF800
0FFFFFFC00
0F80007C00
0F00003C00
1F00003E00
1F00003E00
3E00001E00
3E00001F00
3E00001F00
7C00000F80
7C00000F80
7800000F80
F8000007C0
ENDCHAR
STARTCHAR 00C6
ENCODING 198
SWIDTH 954 0
DWIDTH 53 0
BBX 49 39 1 0
BITMAP
000007FFFFFF80
00000FFFFFFF80
00000FFFFFFF80
00001FFFFFFF80
00001F7C000000
00003F7C000000
00003E7C000000
00007E7C000000
0000FC7C000000
0000F87C000000
0001F87C000000
0001F07C000000
0003F07C000000
0003E07C000000
0007E07C000000
0007C07C000000
000FC07C000000
000F807FFFFC00
001F807FFFFC00
001F007FFFFC00
003E007FFFFC00
007E007C000000
007C007C000000
00FC007C000000
00FFFFFC000000
01FFFFFC000000
01FFFFFC000000
03FFFFFC000000
03E0007C000000
07E0007C000000
07C0007C000000
0FC0007C000000
0F80007C000000
1F00007C000000
1F00007C000000
3E00007FFFFF80
7E00007FFFFF80
7C00007FFFFF80
FC00007FFFFF80
ENDCHAR
STARTCHAR 00C7
ENCODING 199
SWIDTH 702 0
DWIDTH 39 0
BBX 34 54 3 -14
BITMAP
0003F80000
001FFF0000
007FFFC000
01FFFFF000
03FFFFF800
07F803FC00
0FE000FE00
1FC0007E00
1F80001F00
3F00001F80
3E00000F80
7E00000F80
7C000007C0
7C000007C0
7C00000000
FC00000000
F800000000
F800000000
F800000000
F800000000
F800000000
F800000000
F800000000
F800000000
F800000000
7C00000000
7C00000000
7C00000000
7C000007C0
3E00000F80
3E00000F80
1F00001F00
1F80003F00
0FC0007E00
0FE000FC00
07FC07FC00
03FFFFF800
00FFFFE000
007FFFC000
000FFE0000
0000E00000
0000E00000
0000C00000
0001FC0000
0001FF0000
0001FF8000
0000038000
0000038000
0000038000
0000038000
00010F0000
0001FF0000
0001FE0000
0000780000
ENDCHAR
STARTCHAR 00C8
ENCODING 200
SWIDTH 558 0
DWIDTH 31 0
BBX 24 53 4 0
BITMAP
0F8000
0F8000
07C000
03C000
03E000
01E000
00F000
00F000
007800
003C00
000000
000000
000000
000000
FFFFFF
FFFFFF
FFFFFF
FFFFFF
F80000
F80000
F80000
F80000
F80000
F80000
F80000
F80000
F80000
F80000
F80000
F80000
F80000
FFFFFC
FFFFFC
FFFFFC
FFFFFC
F80000
F80000
F80000
F80000
F80000
F80000
F80000
F80000
F80000
F80000
F80000
F80000
F80000
F80000
FFFFFF
FFFFFF
FFFFFF
FFFFFF
ENDCHAR
STARTCHAR 00C9
ENCODING 201
SWIDTH 558 0
DWIDTH 31 0
BBX 24 53 4 0
BITMAP
0000F8
0001F0
0001E0
0003E0
0007C0
000780
000F80
000F00
001E00
001E00
000000
000000
000000
000000
FFFFFF
FFFFFF
FFFFFF
FFFFFF
F80000
F80000
F80000
F80000
F80000
F80000
F80000
F80000
F80000
F80000
F80000
F80000
F80000
FFFFFC
FFFFFC
FFFFFC
FFFFFC
F80000
F80000
F80000
F80000
F80000
F80000
F80000
F80000
F80000
F80000
F80000
F80000
F80000
F80000
FFFFFF
FFFFFF
FFFFFF
FFFFFF
ENDCHAR
STARTCHAR 00CA
ENCODING 202
SWIDTH 558 0
DWIDTH 31 0
BBX 24 51 4 0
BITMAP
003C00
007E00
00FF00
01FF80
03E7C0
07C3E0
0781F0
0F00F8
100000
000000
000000
000000
FFFFFF
FFFFFF
FFFFFF
FFFFFF
F80000
F80000
F80000
F80000
F80000
F80000
F80000
F80000
F80000
F80000
F80000
F80000
F80000
FFFFFC
FFFFFC
FFFFFC
FFFFFC
F80000
F80000
F80000
F80000
F80000
F80000
F80000
F80000
F80000
F80000
F80000
F80000
F80000
F80000
FFFFFF
FFFFFF
FFFFFF
FFFFFF
ENDCHAR
STARTCHAR 00CB
ENCODING 203
SWIDTH 558 0
DWIDTH 31 0
BBX 24 51 4 0
BITMAP
020040
0F81F0
0FC1F8
0FC3F8
0FC1F8
0F81F0
0300E0
000000
000000
000000
000000
000000
FFFFFF
FFFFFF
FFFFFF
FFFFFF
F80000
F80000
F80000
F80000
F80000
F80000
F80000
F80000
F80000
F80000
F80000
F80000
F80000
FFFFFC
FFFFFC
FFFFFC
FFFFFC
F80000
F80000
F80000
F80000
F80000
F80000
F80000
F80000
F80000
F80000
F80000
F80000
F80000
F80000
FFFFFF
FFFFFF
FFFFFF
FFFFFF
ENDCHAR
STARTCHAR 00CC
ENCODING 204
SWIDTH 234 0
DWIDTH 13 0
BBX 11 53 -2 0
BITMAP
F800
7C00
3C00
3E00
1E00
0F00
0F80
0780
03C0
03C0
0000
0000
0000
0000
03E0
03E0
03E0
03E0
03E0
03E0
03E0
03E0
03E0
03E0
03E0
03E0
03E0
03E0
03E0
03E0
03E0
03E0
03E0
03E0
03E0
03E0
03E0
03E0
03E0
03E0
03E0
03E0
03E0
03E0
03E0
03E0
03E0
03E0
03E0
03E0
03E0
03E0
03E0
ENDCHAR
STARTCHAR 00CD
ENCODING 205
SWIDTH 234 0
DWIDTH 13 0
BBX 11 53 4 0
BITMAP
03E0
03E0
07C0
0780
0F80
0F00
1E00
3E00
3C00
7800
0000
0000
0000
0000
F800
F800
F800
F800
F800
F800
F800
F800
F800
F800
F800
F800
F800
F800
F800
F800
F800
F800
F800
F800
F800
F800
F800
F800
F800
F800
F800
F800
F800
F800
F800
F800
F800
F800
F800
F800
F800
F800
F800
ENDCHAR
STARTCHAR 00CE
ENCODING 206
SWIDTH 234 0
DWIDTH 13 0
BBX 18 51 -2 0
BITMAP
01E000
03F000
07F800
0FFC00
1F3E00
3E1F00
7C0F00
F80780
000040
000000
000000
000000
03E000
03E000
03E000
03E000
03E000
03E000
03E000
03E000
03E000
03E000
03E000
03E000
03E000
03E000
03E000
03E000
03E000
03E000
03E000
03E000
03E000
03E000
03E000
03E000
03E000
03E000
03E000
03E000
03E000
03E000
03E000
03E000
03E000
03E000
03E000
03E000
03E000
03E000
03E000
ENDCHAR
STARTCHAR 00CF
ENCODING 207
SWIDTH 234 0
DWIDTH 13 0
BBX 17 51 -2 0
BITMAP
100200
7C0F80
FC1F80
FE1F80
FC1F80
7C0F80
380600
000000
000000
000000
000000
000000
03E000
03E000
03E000
03E000
03E000
03E000
03E000
03E000
03E000
03E000
03E000
03E000
03E000
03E000
03E000
03E000
03E000
03E000
03E000
03E000
03E000
03E000
03E000
03E000
03E000
03E000
03E000
03E000
03E000
03E000
03E000
03E000
03E000
03E000
03E000
03E000
03E000
03E000
03E000
ENDCHAR
STARTCHAR 00D0
ENCODING 208
SWIDTH 702 0
DWIDTH 39 0
BBX 34 39 3 0
BITMAP
1FFFF00000
1FFFFE0000
1FFFFFC000
1FFFFFE000
1E01FFF000
1E0007F800
1E0001FC00
1E00007E00
1E00003F00
1E00001F00
1E00001F80
1E00000F80
1E00000F80
1E000007C0
1E000007C0
1E000007C0
1E000007C0
FFFE0007C0
FFFE0007C0
FFFE0007C0
FFFE0007C0
1E000007C0
1E000007C0
1E000007C0
1E000007C0
1E000007C0
1E00000F80
1E00000F80
1E00001F80
1E00001F00
1E00003F00
1E00007E00
1E0000FC00
1E0003FC00
1E007FF800
1FFFFFE000
1FFFFFC000
1FFFFF0000
1FFFF00000
ENDCHAR
STARTCHAR 00D1
ENCODING 209
SWIDTH 702 0
DWIDTH 39 0
BBX 31 50 4 0
BITMAP
003E0700
007F8700
00FFCE00
00E3FE00
00E1FC00
00E07800
00000000
00000000
00000000
00000000
00000000
FC00001E
FC00001E
FE00001E
FF00001E
FF80001E
FF80001E
FFC0001E
FFE0001E
FFE0001E
FBF0001E
F9F8001E
F9F8001E
F8FC001E
F87E001E
F87E001E
F83F001E
F81F801E
F81F801E
F80FC01E
F807E01E
F807E01E
F803F01E
F801F81E
F801F81E
F800FC1E
F8007E1E
F8007E1E
F8003F1E
F8001F9E
F8001F9E
F8000FDE
F80007FE
F80007FE
F80003FE
F80001FE
F80000FE
F80000FE
F800007E
F800003E
ENDCHAR
STARTCHAR 00D2
ENCODING 210
SWIDTH 720 0
DWIDTH 40 0
BBX 35 53 3 0
BITMAP
007C000000
003C000000
003E000000
001F000000
000F000000
000F800000
0007800000
0003C00000
0003C00000
0001E00000
0000000000
0000000000
0000000000
0003F80000
001FFF0000
007FFFC000
01FFFFF000
03FFFFF800
07F803FC00
0FE000FE00
1FC0007E00
1F80003F00
3F00001F80
3E00000F80
7E00000F80
7C00000FC0
7C000007C0
FC000007C0
F8000007C0
F8000003E0
F8000003E0
F8000003E0
F8000003E0
F8000003E0
F8000003E0
F8000003E0
F8000003E0
F8000003E0
F8000007C0
FC000007C0
7C000007C0
7C00000FC0
7E00000F80
3E00001F80
3F00001F00
1F80003F00
1FC0007E00
0FF001FE00
07FC07FC00
03FFFFF800
01FFFFE000
007FFFC000
001FFE0000
ENDCHAR
STARTCHAR 00D3
ENCODING 211
SWIDTH 720 0
DWIDTH 40 0
BBX 35 53 3 0
BITMAP
000007C000
00000F8000
00000F8000
00001F0000
00001E0000
00003E0000
00003C0000
0000780000
0000780000
0000F00000
0000000000
0000000000
0000000000
0003F80000
001FFF0000
007FFFC000
01FFFFF000
03FFFFF800
07F803FC00
0FE000FE00
1FC0007E00
1F80003F00
3F00001F80
3E00000F80
7E00000F80
7C00000FC0
7C000007C0
FC000007C0
F8000007C0
F8000003E0
F8000003E0
F8000003E0
F8000003E0
F8000003E0
F8000003E0
F8000003E0
F8000003E0
F8000003E0
F8000007C0
FC000007C0
7C000007C0
7C00000FC0
7E00000F80
3E00001F80
3F00001F00
1F80003F00
1FC0007E00
0FF001FE00
07FC07FC00
03FFFFF800
01FFFFE000
007FFFC000
001FFE0000
ENDCHAR
STARTCHAR 00D4
ENCODING 212
SWIDTH 720 0
DWIDTH 40 0
BBX 35 51 3 0
BITMAP
0001F00000
0003F80000
0007FC0000
0007BC0000
000F1E0000
001E1F0000
003E0F8000
007C07C000
0000000000
0000000000
0000000000
0003F80000
001FFF0000
007FFFC000
01FFFFF000
03FFFFF800
07F803FC00
0FE000FE00
1FC0007E00
1F80003F00
3F00001F80
3E00000F80
7E00000F80
7C00000FC0
7C000007C0
FC000007C0
F8000007C0
F8000003E0
F8000003E0
F8000003E0
F8000003E0
F8000003E0
F8000003E0
F8000003E0
F8000003E0
F8000003E0
F8000007C0
FC000007C0
7C000007C0
7C00000FC0
7E00000F80
3E00001F80
3F00001F00
1F80003F00
1FC0007E00
0FF001FE00
07FC07FC00
03FFFFF800
01FFFFE000
007FFFC000
001FFE0000
ENDCHAR
STARTCHAR 00D5
ENCODING 213
SWIDTH 720 0
DWIDTH 40 0
BBX 35 50 3 0
BITMAP
000F838000
001FC38000
003FF78000
0038FF8000
00307F0000
00701E0000
0000000000
0000000000
0000000000
0000000000
0003F80000
001FFF0000
007FFFC000
01FFFFF000
03FFFFF800
07F803FC00
0FE000FE00
1FC0007E00
1F80003F00
3F00001F80
3E00000F80
7E00000F80
7C00000FC0
7C000007C0
FC000007C0
F8000007C0
F8000003E0
F8000003E0
F8000003E0
F8000003E0
F8000003E0
F8000003E0
F8000003E0
F8000003E0
F8000003E0
F8000007C0
FC000007C0
7C000007C0
7C00000FC0
7E00000F80
3E00001F80
3F00001F00
1F80003F00
1FC0007E00
0FF001FE00
07FC07FC00
03FFFFF800
01FFFFE000
007FFFC000
001FFE0000
ENDCHAR
STARTCHAR 00D6
ENCODING 214
SWIDTH 720 0
DWIDTH 40 0
BBX 35 51 3 0
BITMAP
0010000000
003C078000
007E0FC000
007E0FC000
007E0FC000
003E078000
0018030000
0000000000
0000000000
0000000000
0000000000
0003F80000
001FFF0000
007FFFC000
01FFFFF000
03FFFFF800
07F803FC00
0FE000FE00
1FC0007E00
1F80003F00
3F00001F80
3E00000F80
7E00000F80
7C00000FC0
7C000007C0
FC000007C0
F8000007C0
F8000003E0
F8000003E0
F8000003E0
F8000003E0
F8000003E0
F8000003E0
F8000003E0
F8000003E0
F8000003E0
F8000007C0
FC000007C0
7C000007C0
7C00000FC0
7E00000F80
3E00001F80
3F00001F00
1F80003F00
1FC0007E00
0FF001FE00
07FC07FC00
03FFFFF800
01FFFFE000
007FFFC000
001FFE0000
ENDCHAR
STARTCHAR 00D7
ENCODING 215
SWIDTH 540 0
DWIDTH 30 0
BBX 19 18 6 9
BITMAP
300180
7803C0
FC07E0
7E0FC0
3F1F80
1FBF00
0FFE00
07FC00
03F800
03F800
07FC00
0FFE00
1FBF00
3F1F80
7E0FC0
7C07C0
380380
100100
ENDCHAR
STARTCHAR 00D8
ENCODING 216
SWIDTH 738 0
DWIDTH 41 0
BBX 35 43 3 -2
BITMAP
0000000780
0001F80F80
001FFF0F00
007FFFFE00
01FFFFFE00
03FFFFFC00
07F803FC00
0FE000FE00
0FC000FF00
1F8001FF00
3F0003FF80
3F0003CF80
3E0007CFC0
7E000F87C0
7C000F07C0
7C001F07C0
FC001E03E0
F8003C03E0
F8007C03E0
F8007803E0
F800F803E0
F801F003E0
F801E003E0
F803E003E0
F807C003E0
F8078003E0
FC0F8007E0
7C1F0007C0
7C1E0007C0
7E3E0007C0
3E3C000FC0
3F78001F80
3FF8001F80
1FF0003F00
0FF0007F00
0FF001FE00
07FC07FC00
07FFFFF800
0FFFFFF000
0F7FFFC000
1F0FFE0000
1E00000000
3C00000000
ENDCHAR
STARTCHAR 00D9
ENCODING 217
SWIDTH 684 0
DWIDTH 38 0
BBX 30 54 4 -1
BITMAP
03F00000
01F00000
00F80000
00F80000
007C0000
003C0000
001E0000
001E0000
000F0000
00070000
00000000
00000000
00000000
00000000
F000003C
F000003C
F000003C
F000003C
F000003C
F000003C
F000003C
F000003C
F000003C
F000003C
F000003C
F000003C
F000003C
F000003C
F000003C
F000003C
F000003C
F000003C
F000003C
F000003C
F000003C
F000003C
F000003C
F000003C
F000007C
F800007C
F800007C
F800007C
F80000FC
7C0000F8
7C0000F8
7E0001F8
3F0003F0
1F8007E0
1FF01FE0
0FFFFFC0
07FFFF80
01FFFE00
007FF800
00030000
ENDCHAR
STARTCHAR 00DA
ENCODING 218
SWIDTH 684 0
DWIDTH 38 0
BBX 30 54 4 -1
BITMAP
00001F00
00003E00
00007C00
00007C00
0000F800
0000F000
0001F000
0001E000
0003C000
0003C000
00000000
00000000
00000000
00000000
F000003C
F000003C
F000003C
F000003C
F000003C
F000003C
F000003C
F000003C
F000003C
F000003C
F000003C
F000003C
F000003C
F000003C
F000003C
F000003C
F000003C
F000003C
F000003C
F000003C
F000003C
F000003C
F000003C
F000003C
F000007C
F800007C
F800007C
F800007C
F80000FC
7C0000F8
7C0000F8
7E0001F8
3F0003F0
1F8007E0
1FF01FE0
0FFFFFC0
07FFFF80
01FFFE00
007FF800
00030000
ENDCHAR
STARTCHAR 00DB
ENCODING 219
SWIDTH 684 0
DWIDTH 38 0
BBX 30 52 4 -1
BITMAP
00078000
000FC000
001FE000
003FF000
007CF800
00F87C00
01F03E00
01E01F00
02000000
00000000
00000000
00000000
F000003C
F000003C
F000003C
F000003C
F000003C
F000003C
F000003C
F000003C
F000003C
F000003C
F000003C
F000003C
F000003C
F000003C
F000003C
F000003C
F000003C
F000003C
F000003C
F000003C
F000003C
F000003C
F000003C
F000003C
F000007C
F800007C
F800007C
F800007C
F80000FC
7C0000F8
7C0000F8
7E0001F8
3F0003F0
1F8007E0
1FF01FE0
0FFFFFC0
07FFFF80
01FFFE00
007FF800
00030000
ENDCHAR
STARTCHAR 00DC
ENCODING 220
SWIDTH 684 0
DWIDTH 38 0
BBX 30 52 4 -1
BITMAP
00400800
01F03E00
01F83F00
01F87F00
01F83F00
01F03E00
00600800
00000000
00000000
00000000
00000000
00000000
F000003C
F000003C
F000003C
F000003C
F000003C
F000003C
F000003C
F000003C
F000003C
F000003C
F000003C
F000003C
F000003C
F000003C
F000003C
F000003C
F000003C
F000003C
F000003C
F000003C
F000003C
F000003C
F000003C
F000003C
F000007C
F800007C
F800007C
F800007C
F80000FC
7C0000F8
7C0000F8
7E0001F8
3F0003F0
1F8007E0
1FF01FE0
0FFFFFC0
07FFFF80
01FFFE00
007FF800
00030000
ENDCHAR
STARTCHAR 00DD
ENCODING 221
SWIDTH 612 0
DWIDTH 34 0
BBX 30 53 2 0
BITMAP
00003F00
00003E00
00007C00
00007C00
0000F800
0000F000
0001F000
0001E000
0003C000
00038000
00000000
00000000
00000000
00000000
F800007C
7C0000F8
7C0000F8
3E0001F0
3E0001F0
1F0003E0
1F0003E0
0F8007C0
0F8007C0
07C00F80
07C00F80
03E01F00
03E01F00
01F03E00
01F03E00
00F87C00
00F87C00
007CF800
007CF800
003FF000
003FF000
001FE000
001FE000
000FC000
000FC000
00078000
00078000
00078000
00078000
00078000
00078000
00078000
00078000
00078000
00078000
00078000
00078000
00078000
00078000
ENDCHAR
STARTCHAR 00DE
ENCODING 222
SWIDTH 576 0
DWIDTH 32 0
BBX 27 39 4 0
BITMAP
F8000000
F8000000
F8000000
F8000000
F8000000
F8000000
F8000000
FFFFC000
FFFFF800
FFFFFC00
FFFFFE00
F801FF00
F8003F80
F8000FC0
F80007C0
F80007C0
F80003E0
F80003E0
F80003E0
F80003E0
F80003E0
F80003E0
F80003E0
F80003C0
F80007C0
F8000FC0
F8001F80
F8007F00
FFFFFF00
FFFFFE00
FFFFF800
FFFFE000
F8000000
F8000000
F8000000
F8000000
F8000000
F8000000
F8000000
ENDCHAR
STARTCHAR 00DF
ENCODING 223
SWIDTH 558 0
DWIDTH 31 0
BBX 25 40 4 0
BITMAP
007E0000
03FFC000
0FFFF000
1FFFF800
3FC3FC00
3E007C00
7C003E00
7C003E00
78001E00
F8001F00
F8001F00
F8001F00
F8001F00
F8001E00
F8003E00
F8007C00
F800FC00
F8FFF800
F8FFE000
F8FF8000
F8FFF000
F803F800
F8007C00
F8003E00
F8001F00
F8000F00
F8000F00
F8000F80
F8000F80
F8000F80
F8000F80
F8000F00
F8001F00
F8001F00
F8003E00
F800FE00
F87FFC00
F87FF800
F87FF000
F87FC000
ENDCHAR
STARTCHAR 00E0
ENCODING 224
SWIDTH 612 0
DWIDTH 34 0
BBX 27 43 3 0
BITMAP
03E00000
03E00000
01F00000
00F00000
00F80000
00780000
003C0000
003E0000
001E0000
000F0000
00000000
00000000
00000000
00FF0000
03FFC3E0
07FFE3E0
0FFFF3E0
1FC0FBE0
3F003FE0
7E001FE0
7E000FE0
7C0007E0
F80007E0
F80003E0
F80003E0
F80003E0
F80003E0
F80003E0
F80003E0
F80003E0
F80003E0
F80003E0
F80003E0
F80007E0
7C0007E0
7C000FE0
7E000FE0
3F001FE0
3FC07BE0
1FFFF3E0
0FFFE3E0
07FFC3E0
01FF03E0
ENDCHAR
STARTCHAR 00E1
ENCODING 225
SWIDTH 612 0
DWIDTH 34 0
BBX 27 43 3 0
BITMAP
00007C00
00007C00
0000F800
0000F000
0001F000
0001E000
0003C000
0007C000
00078000
000F0000
00000000
00000000
00000000
00FF0000
03FFC3E0
07FFE3E0
0FFFF3E0
1FC0FBE0
3F003FE0
7E001FE0
7E000FE0
7C0007E0
F80007E0
F80003E0
F80003E0
F80003E0
F80003E0
F80003E0
F80003E0
F80003E0
F80003E0
F80003E0
F80003E0
F80007E0
7C0007E0
7C000FE0
7E000FE0
3F001FE0
3FC07BE0
1FFFF3E0
0FFFE3E0
07FFC3E0
01FF03E0
ENDCHAR
STARTCHAR 00E2
ENCODING 226
SWIDTH 612 0
DWIDTH 34 0
BBX 27 41 3 0
BITMAP
001F8000
001FC000
003FC000
0079E000
00F9F000
01F0F800
03E07C00
07C03E00
00000000
00000000
00000000
00FF0000
03FFC3E0
07FFE3E0
0FFFF3E0
1FC0FBE0
3F003FE0
7E001FE0
7E000FE0
7C0007E0
F80007E0
F80003E0
F80003E0
F80003E0
F80003E0
F80003E0
F80003E0
F80003E0
F80003E0
F80003E0
F80003E0
F80007E0
7C0007E0
7C000FE0
7E000FE0
3F001FE0
3FC07BE0
1FFFF3E0
0FFFE3E0
07FFC3E0
01FF03E0
ENDCHAR
STARTCHAR 00E3
ENCODING 227
SWIDTH 612 0
DWIDTH 34 0
BBX 27 41 3 0
BITMAP
00201C00
00FC1C00
01FE1C00
03FFF800
0387F800
0383F000
03804000
00000000
00000000
00000000
00000000
00FF0000
03FFC3E0
07FFE3E0
0FFFF3E0
1FC0FBE0
3F003FE0
7E001FE0
7E000FE0
7C0007E0
F80007E0
F80003E0
F80003E0
F80003E0
F80003E0
F80003E0
F80003E0
F80003E0
F80003E0
F80003E0
F80003E0
F80007E0
7C0007E0
7C000FE0
7E000FE0
3F001FE0
3FC07BE0
1FFFF3E0
0FFFE3E0
07FFC3E0
01FF03E0
ENDCHAR
STARTCHAR 00E4
ENCODING 228
SWIDTH 612 0
DWIDTH 34 0
BBX 27 41 3 0
BITMAP
01C03800
03E07C00
03F0FE00
03F0FE00
03E07C00
01E07C00
00000000
00000000
00000000
00000000
00000000
00FF0000
03FFC3E0
07FFE3E0
0FFFF3E0
1FC0FBE0
3F003FE0
7E001FE0
7E000FE0
7C0007E0
F80007E0
F80003E0
F80003E0
F80003E0
F80003E0
F80003E0
F80003E0
F80003E0
F80003E0
F80003E0
F80003E0
F80007E0
7C0007E0
7C000FE0
7E000FE0
3F001FE0
3FC07BE0
1FFFF3E0
0FFFE3E0
07FFC3E0
01FF03E0
ENDCHAR
STARTCHAR 00E5
ENCODING 229
SWIDTH 612 0
DWIDTH 34 0
BBX 27 44 3 0
BITMAP
00060000
001F8000
003FC000
0070E000
0060E000
0060E000
0070E000
0039C000
003F8000
000F0000
00000000
00000000
00000000
00000000
00FF0000
03FFC3E0
07FFE3E0
0FFFF3E0
1FC0FBE0
3F003FE0
7E001FE0
7E000FE0
7C0007E0
F80007E0
F80003E0
F80003E0
F80003E0
F80003E0
F80003E0
F80003E0
F80003E0
F80003E0
F80003E0
F80003E0
F80007E0
7C0007E0
7C000FE0
7E000FE0
3F001FE0
3FC07BE0
1FFFF3E0
0FFFE3E0
07FFC3E0
01FF03E0
ENDCHAR
STARTCHAR 00E6
ENCODING 230
SWIDTH 936 0
DWIDTH 52 0
BBX 46 30 3 0
BITMAP
007F0003FC00
03FFC01FFF00
07FFF03FFF80
1FFFF87FFFC0
1F80F8FC07E0
3E007DF001F0
7C003DE000F0
7C001FC000F8
78001FC00078
00001F80007C
00000F80007C
00000F80003C
00000F80003C
001FFFFFFFFC
07FFFFFFFFFC
1FFFFFFFFFFC
3FFFFFFFFFFC
7E000F800000
FC000F800000
F8000F800000
F8001F800000
F8001FC0007C
F8001FC0007C
F8003BE000F8
FC0079F001F8
7E00F1F807F0
7FCFF0FFFFE0
3FFFE07FFFC0
1FFF803FFF80
07FE000FFE00
ENDCHAR
STARTCHAR 00E7
ENCODING 231
SWIDTH 576 0
DWIDTH 32 0
BBX 26 44 3 -14
BITMAP
007FC000
01FFF000
07FFFC00
0FFFFE00
1FE07F00
1F801F00
3F000F80
7E000F80
7C0007C0
7C0007C0
F80003C0
F8000000
F8000000
F8000000
F8000000
F8000000
F8000000
F8000000
F8000000
F80003C0
7C0007C0
7C0007C0
7E0007C0
3E000F80
3F001F80
1FC03F00
0FFFFE00
07FFFC00
03FFF800
00FFE000
000E0000
000E0000
000C0000
001FC000
001FF000
001FF000
00003800
00003800
00003800
00003800
00107000
001FF000
001FE000
000F0000
ENDCHAR
STARTCHAR 00E8
ENCODING 232
SWIDTH 576 0
DWIDTH 32 0
BBX 27 43 3 0
BITMAP
07C00000
03E00000
01E00000
01F00000
00F00000
00780000
007C0000
003C0000
001E0000
001E0000
00000000
00000000
00000000
007FC000
01FFF000
07FFFC00
0FFFFE00
1FC07E00
1F001F00
3E000F80
7C000F80
7C0007C0
780007C0
F80007C0
F80003C0
F80003C0
FFFFFFC0
FFFFFFC0
FFFFFFE0
FFFFFFE0
F8000000
F8000000
F8000000
78000000
7C0007C0
7C0007C0
3E000F80
3F001F80
1FC07F00
0FFFFE00
07FFFC00
03FFF800
00FFE000
ENDCHAR
STARTCHAR 00E9
ENCODING 233
SWIDTH 576 0
DWIDTH 32 0
BBX 27 43 3 0
BITMAP
00007C00
0000F800
0000F800
0001F000
0001E000
0003E000
0003C000
00078000
000F0000
000F0000
00000000
00000000
00000000
007FC000
01FFF000
07FFFC00
0FFFFE00
1FC07E00
1F001F00
3E000F80
7C000F80
7C0007C0
780007C0
F80007C0
F80003C0
F80003C0
FFFFFFC0
FFFFFFC0
FFFFFFE0
FFFFFFE0
F8000000
F8000000
F8000000
78000000
7C0007C0
7C0007C0
3E000F80
3F001F80
1FC07F00
0FFFFE00
07FFFC00
03FFF800
00FFE000
ENDCHAR
STARTCHAR 00EA
ENCODING 234
SWIDTH 576 0
DWIDTH 32 0
BBX 27 41 3 0
BITMAP
001F0000
003F8000
007FC000
00FBE000
01F1F000
03E0F800
03C07C00
07803C00
00000000
00000000
00000000
007FC000
01FFF000
07FFFC00
0FFFFE00
1FC07E00
1F001F00
3E000F80
7C000F80
7C0007C0
780007C0
F80007C0
F80003C0
F80003C0
FFFFFFC0
FFFFFFC0
FFFFFFE0
FFFFFFE0
F8000000
F8000000
F8000000
78000000
7C0007C0
7C0007C0
3E000F80
3F001F80
1FC07F00
0FFFFE00
07FFFC00
03FFF800
00FFE000
ENDCHAR
STARTCHAR 00EB
ENCODING 235
SWIDTH 576 0
DWIDTH 32 0
BBX 27 41 3 0
BITMAP
01C07800
07E0FC00
07E0FC00
07E0FC00
07E0FC00
03C07800
00000000
00000000
00000000
00000000
00000000
007FC000
01FFF000
07FFFC00
0FFFFE00
1FC07E00
1F001F00
3E000F80
7C000F80
7C0007C0
780007C0
F80007C0
F80003C0
F80003C0
FFFFFFC0
FFFFFFC0
FFFFFFE0
FFFFFFE0
F8000000
F8000000
F8000000
78000000
7C0007C0
7C0007C0
3E000F80
3F001F80
1FC07F00
0FFFFE00
07FFFC00
03FFF800
00FFE000
ENDCHAR
STARTCHAR 00EC
ENCODING 236
SWIDTH 234 0
DWIDTH 13 0
BBX 10 43 -1 0
BITMAP
F800
F800
7C00
3C00
3E00
1E00
0F00
0F00
0780
03C0
0000
0000
0000
0000
03C0
03C0
03C0
03C0
03C0
03C0
03C0
03C0
03C0
03C0
03C0
03C0
03C0
03C0
03C0
03C0
03C0
03C0
03C0
03C0
03C0
03C0
03C0
03C0
03C0
03C0
03C0
03C0
03C0
ENDCHAR
STARTCHAR 00ED
ENCODING 237
SWIDTH 234 0
DWIDTH 13 0
BBX 10 43 5 0
BITMAP
07C0
07C0
0F80
0F00
1F00
3E00
3C00
7C00
7800
F000
0000
0000
0000
0000
F000
F000
F000
F000
F000
F000
F000
F000
F000
F000
F000
F000
F000
F000
F000
F000
F000
F000
F000
F000
F000
F000
F000
F000
F000
F000
F000
F000
F000
ENDCHAR
STARTCHAR 00EE
ENCODING 238
SWIDTH 234 0
DWIDTH 13 0
BBX 18 41 -2 0
BITMAP
03F000
07F000
07F800
0F7C00
1F3E00
3E1F00
7C0F80
F807C0
000000
000000
000000
000000
01E000
01E000
01E000
01E000
01E000
01E000
01E000
01E000
01E000
01E000
01E000
01E000
01E000
01E000
01E000
01E000
01E000
01E000
01E000
01E000
01E000
01E000
01E000
01E000
01E000
01E000
01E000
01E000
01E000
ENDCHAR
STARTCHAR 00EF
ENCODING 239
SWIDTH 234 0
DWIDTH 13 0
BBX 18 41 -2 0
BITMAP
380700
7C0F80
FE1FC0
FE1FC0
7C0F80
7C0F80
000000
000000
000000
000000
000000
000000
01E000
01E000
01E000
01E000
01E000
01E000
01E000
01E000
01E000
01E000
01E000
01E000
01E000
01E000
01E000
01E000
01E000
01E000
01E000
01E000
01E000
01E000
01E000
01E000
01E000
01E000
01E000
01E000
01E000
ENDCHAR
STARTCHAR 00F0
ENCODING 240
SWIDTH 612 0
DWIDTH 34 0
BBX 28 44 2 0
BITMAP
003C0000
003F80C0
003FE3E0
003FFFC0
0003FF80
0000FE00
0001FF00
0007FF80
0007CF80
000707C0
000007C0
000003E0
000003E0
000003E0
007F81E0
01FFE1E0
07FFF1F0
0FFFF9F0
1FE07DF0
1F801DF0
3F000FF0
3E0007F0
7E0007F0
7C0003F0
7C0003F0
7C0003F0
F80001F0
F80001F0
F80001F0
F80001F0
F80001F0
F80001F0
780001E0
7C0003E0
7C0003E0
7C0003E0
3E0007C0
3F000FC0
1F801F80
0FC03F00
0FFFFF00
07FFFC00
01FFF800
007FE000
ENDCHAR
STARTCHAR 00F1
ENCODING 241
SWIDTH 612 0
DWIDTH 34 0
BBX 26 41 4 0
BITMAP
00403800
01F83800
03FC3800
07FFF000
070FF000
0707E000
07008000
00000000
00000000
00000000
00000000
001FE000
F87FF800
F8FFFC00
F9FFFE00
FBE0FF00
FB803F80
FE001F80
FE000F80
FC0007C0
FC0007C0
F80007C0
F80007C0
F80007C0
F80007C0
F80007C0
F80007C0
F80007C0
F80007C0
F80007C0
F80007C0
F80007C0
F80007C0
F80007C0
F80007C0
F80007C0
F80007C0
F80007C0
F80007C0
F80007C0
F80007C0
ENDCHAR
STARTCHAR 00F2
ENCODING 242
SWIDTH 594 0
DWIDTH 33 0
BBX 27 43 3 0
BITMAP
07C00000
03E00000
01E00000
01F00000
00F00000
00780000
007C0000
003C0000
001E0000
001E0000
00000000
00000000
00000000
007FC000
01FFF000
07FFFC00
0FFFFE00
1FE0FF00
1F803F00
3F001F80
7E000FC0
7C0007C0
7C0007C0
F80003E0
F80003E0
F80003E0
F80003E0
F80003E0
F80003E0
F80003E0
F80003E0
F80003E0
F80003E0
7C0007C0
7C0007C0
7E000FC0
3E000F80
3F001F80
1FC07F00
0FFFFE00
07FFFC00
03FFF800
00FFE000
ENDCHAR
STARTCHAR 00F3
ENCODING 243
SWIDTH 594 0
DWIDTH 33 0
BBX 27 43 3 0
BITMAP
00007C00
0000F800
0000F800
0001F000
0001E000
0003E000
0003C000
00078000
000F0000
000F0000
00000000
00000000
00000000
007FC000
01FFF000
07FFFC00
0FFFFE00
1FE0FF00
1F803F00
3F001F80
7E000FC0
7C0007C0
7C0007C0
F80003E0
F80003E0
F80003E0
F80003E0
F80003E0
F80003E0
F80003E0
F80003E0
F80003E0
F80003E0
7C0007C0
7C0007C0
7E000FC0
3E000F80
3F001F80
1FC07F00
0FFFFE00
07FFFC00
03FFF800
00FFE000
ENDCHAR
STARTCHAR 00F4
ENCODING 244
SWIDTH 594 0
DWIDTH 33 0
BBX 27 41 3 0
BITMAP
001F0000
003F8000
007FC000
00FBE000
01F1F000
03E0F800
03C07C00
07803C00
00000000
00000000
00000000
007FC000
01FFF000
07FFFC00
0FFFFE00
1FE0FF00
1F803F00
3F001F80
7E000FC0
7C0007C0
7C0007C0
F80003E0
F80003E0
F80003E0
F80003E0
F80003E0
F80003E0
F80003E0
F80003E0
F80003E0
F80003E0
7C0007C0
7C0007C0
7E000FC0
3E000F80
3F001F80
1FC07F00
0FFFFE00
07FFFC00
03FFF800
00FFE000
ENDCHAR
STARTCHAR 00F5
ENCODING 245
SWIDTH 594 0
DWIDTH 33 0
BBX 27 41 3 0
BITMAP
00201800
01F81800
03FE3800
03FFF800
038FF800
0383F000
03808000
00000000
00000000
00000000
00000000
007FC000
01FFF000
07FFFC00
0FFFFE00
1FE0FF00
1F803F00
3F001F80
7E000FC0
7C0007C0
7C0007C0
F80003E0
F80003E0
F80003E0
F80003E0
F80003E0
F80003E0
F80003E0
F80003E0
F80003E0
F80003E0
7C0007C0
7C0007C0
7E000FC0
3E000F80
3F001F80
1FC07F00
0FFFFE00
07FFFC00
03FFF800
00FFE000
ENDCHAR
STARTCHAR 00F6
ENCODING 246
SWIDTH 594 0
DWIDTH 33 0
BBX 27 41 3 0
BITMAP
01C07800
07E0FC00
07E0FC00
07E0FC00
07E0FC00
03C07800
00000000
00000000
00000000
00000000
00000000
007FC000
01FFF000
07FFFC00
0FFFFE00
1FE0FF00
1F803F00
3F001F80
7E000FC0
7C0007C0
7C0007C0
F80003E0
F80003E0
F80003E0
F80003E0
F80003E0
F80003E0
F80003E0
F80003E0
F80003E0
F80003E0
7C0007C0
7C0007C0
7E000FC0
3E000F80
3F001F80
1FC07F00
0FFFFE00
07FFFC00
03FFF800
00FFE000
ENDCHAR
STARTCHAR 00F7
ENCODING 247
SWIDTH 594 0
DWIDTH 33 0
BBX 22 27 4 4
BITMAP
003000
007C00
00FC00
00FC00
00FC00
007C00
003800
000000
000000
000000
000000
000000
FFFFFC
FFFFFC
FFFFFC
FFFFFC
000000
000000
000000
000000
003800
007C00
00FC00
00FC00
00FC00
007C00
001000
ENDCHAR
STARTCHAR 00F8
ENCODING 248
SWIDTH 594 0
DWIDTH 33 0
BBX 27 34 3 -2
BITMAP
00000780
00000F00
007FCE00
01FFFE00
07FFFC00
0FFFFE00
1FE0FF00
1F807F00
3F00FF80
7E00FFC0
7C01E7C0
7C01C7C0
F803C3E0
F80383E0
F80783E0
F80F03E0
F80F03E0
F81E03E0
F81E03E0
F83C03E0
F83803E0
F87803E0
7C7007C0
7CF007C0
7FE00FC0
3FE00F80
3FC01F80
1FC07F00
0FFFFE00
07FFFC00
0FFFF800
0E7FE000
1E000000
3C000000
ENDCHAR
STARTCHAR 00F9
ENCODING 249
SWIDTH 594 0
DWIDTH 33 0
BBX 26 44 4 -1
BITMAP
0F800000
0F800000
07C00000
03C00000
03E00000
01E00000
00F00000
00F80000
00780000
003C0000
00000000
00000000
00000000
00000000
F80007C0
F80007C0
F80007C0
F80007C0
F80007C0
F80007C0
F80007C0
F80007C0
F80007C0
F80007C0
F80007C0
F80007C0
F80007C0
F80007C0
F80007C0
F80007C0
F80007C0
F80007C0
F80007C0
F8000FC0
7C000FC0
7C000FC0
7E001FC0
7F0037C0
3F80F7C0
1FFFE7C0
1FFFC7C0
07FF87C0
03FF07C0
00200000
ENDCHAR
STARTCHAR 00FA
ENCODING 250
SWIDTH 594 0
DWIDTH 33 0
BBX 26 44 4 -1
BITMAP
0001F000
0001F000
0003E000
0003C000
0007C000
00078000
000F0000
000F0000
001E0000
003C0000
00000000
00000000
00000000
00000000
F80007C0
F80007C0
F80007C0
F80007C0
F80007C0
F80007C0
F80007C0
F80007C0
F80007C0
F80007C0
F80007C0
F80007C0
F80007C0
F80007C0
F80007C0
F80007C0
F80007C0
F80007C0
F80007C0
F8000FC0
7C000FC0
7C000FC0
7E001FC0
7F0037C0
3F80F7C0
1FFFE7C0
1FFFC7C0
07FF87C0
03FF07C0
00200000
ENDCHAR
STARTCHAR 00FB
ENCODING 251
SWIDTH 594 0
DWIDTH 33 0
BBX 26 42 4 -1
BITMAP
007E0000
007F0000
00FF0000
01F78000
03E7C000
07C3E000
0F81F000
1F00F800
00000000
00000000
00000000
00000000
F80007C0
F80007C0
F80007C0
F80007C0
F80007C0
F80007C0
F80007C0
F80007C0
F80007C0
F80007C0
F80007C0
F80007C0
F80007C0
F80007C0
F80007C0
F80007C0
F80007C0
F80007C0
F80007C0
F8000FC0
7C000FC0
7C000FC0
7E001FC0
7F0037C0
3F80F7C0
1FFFE7C0
1FFFC7C0
07FF87C0
03FF07C0
00200000
ENDCHAR
STARTCHAR 00FC
ENCODING 252
SWIDTH 594 0
DWIDTH 33 0
BBX 26 42 4 -1
BITMAP
0700E000
0F81F000
0FC3F800
0FC3F800
0FC1F000
0781F000
00000000
00000000
00000000
00000000
00000000
00000000
F80007C0
F80007C0
F80007C0
F80007C0
F80007C0
F80007C0
F80007C0
F80007C0
F80007C0
F80007C0
F80007C0
F80007C0
F80007C0
F80007C0
F80007C0
F80007C0
F80007C0
F80007C0
F80007C0
F8000FC0
7C000FC0
7C000FC0
7E001FC0
7F0037C0
3F80F7C0
1FFFE7C0
1FFFC7C0
07FF87C0
03FF07C0
00200000
ENDCHAR
STARTCHAR 00FD
ENCODING 253
SWIDTH 522 0
DWIDTH 29 0
BBX 26 54 2 -11
BITMAP
0000F800
0000F800
0001F000
0001E000
0003E000
0007C000
00078000
000F8000
000F0000
001E0000
00000000
00000000
00000000
00000000
F80007C0
F80007C0
7C0007C0
7C000F80
7C000F80
3E001F00
3E001F00
1E001E00
1F003E00
1F003E00
0F803C00
0F807C00
07807800
07C0F800
07C0F800
03C0F000
03E1F000
01E1E000
01E1E000
01F3E000
00F3C000
00F7C000
00FF8000
007F8000
007F8000
003F0000
003F0000
003E0000
003E0000
003C0000
007C0000
007C0000
00F80000
00F80000
01F00000
03F00000
5FE00000
7FE00000
7FC00000
7F000000
ENDCHAR
STARTCHAR 00FE
ENCODING 254
SWIDTH 612 0
DWIDTH 34 0
BBX 28 55 4 -13
BITMAP
F8000000
F8000000
F8000000
F8000000
F8000000
F8000000
F8000000
F8000000
F8000000
F8000000
F8000000
F8000000
F81FE000
F87FF800
F8FFFE00
F9FFFF00
FBE07F80
FB801F80
FF000FC0
FE0007C0
FE0007E0
FC0003E0
FC0003E0
F80003E0
F80001F0
F80001F0
F80001F0
F80001F0
F80001F0
F80001F0
F80003E0
FC0003E0
FC0003E0
FC0007E0
FE0007C0
FF000FC0
FB801F80
FBC03F80
F9FFFF00
F8FFFE00
F87FFC00
F81FF000
F8000000
F8000000
F8000000
F8000000
F8000000
F8000000
F8000000
F8000000
F8000000
F8000000
F8000000
F8000000
F8000000
ENDCHAR
STARTCHAR 00FF
ENCODING 255
SWIDTH 522 0
DWIDTH 29 0
BBX 26 52 2 -11
BITMAP
03807000
07C0F800
0FE1FC00
0FE1FC00
07C0F800
07C0F800
00000000
00000000
00000000
00000000
00000000
00000000
F80007C0
F80007C0
7C0007C0
7C000F80
7C000F80
3E001F00
3E001F00
1E001E00
1F003E00
1F003E00
0F803C00
0F807C00
07807800
07C0F800
07C0F800
03C0F000
03E1F000
01E1E000
01E1E000
01F3E000
00F3C000
00F7C000
00FF8000
007F8000
007F8000
003F0000
003F0000
003E0000
003E0000
003C0000
007C0000
007C0000
00F80000
00F80000
01F00000
03F00000
5FE00000
7FE00000
7FC00000
7F000000
ENDCHAR
STARTCHAR 0100
ENCODING 256
SWIDTH 666 0
DWIDTH 37 0
BBX 34 47 2 0
BITMAP
00FFFF8000
00FFFF8000
00FFFF8000
0000000000
0000000000
0000000000
0000000000
0000000000
0003E00000
0003F00000
0003F00000
0007F00000
0007F80000
0007F80000
000FFC0000
000F7C0000
001F3C0000
001F3E0000
001E1E0000
003E1E0000
003C1F0000
003C0F0000
007C0F8000
00780F8000
00F8078000
00F807C000
00F007C000
01F003E000
01F003E000
01E001E000
03E001F000
03E001F000
07FFFFF000
07FFFFF800
07FFFFF800
0FFFFFFC00
0F80007C00
0F00003C00
1F00003E00
1F00003E00
3E00001E00
3E00001F00
3E00001F00
7C00000F80
7C00000F80
7800000F80
F8000007C0
ENDCHAR
STARTCHAR 0101
ENCODING 257
SWIDTH 612 0
DWIDTH 34 0
BBX 27 37 3 0
BITMAP
03FFFC00
03FFFC00
00000000
00000000
00000000
00000000
00000000
00FF0000
03FFC3E0
07FFE3E0
0FFFF3E0
1FC0FBE0
3F003FE0
7E001FE0
7E000FE0
7C0007E0
F80007E0
F80003E0
F80003E0
F80003E0
F80003E0
F80003E0
F80003E0
F80003E0
F80003E0
F80003E0
F80003E0
F80007E0
7C0007E0
7C000FE0
7E000FE0
3F001FE0
3FC07BE0
1FFFF3E0
0FFFE3E0
07FFC3E0
01FF03E0
ENDCHAR
STARTCHAR 0102
ENCODING 258
SWIDTH 666 0
DWIDTH 37 0
BBX 34 49 2 0
BITMAP
00F003C000
0078078000
007E3F0000
003FFE0000
000FFC0000
0000C00000
0000000000
0000000000
0000000000
0000000000
0003E00000
0003F00000
0003F00000
0007F00000
0007F80000
0007F80000
000FFC0000
000F7C0000
001F3C0000
001F3E0000
001E1E0000
003E1E0000
003C1F0000
003C0F0000
007C0F8000
00780F8000
00F8078000
00F807C000
00F007C000
01F003E000
01F003E000
01E001E000
03E001F000
03E001F000
07FFFFF000
07FFFFF800
07FFFFF800
0FFFFFFC00
0F80007C00
0F00003C00
1F00003E00
1F00003E00
3E00001E00
3E00001F00
3E00001F00
7C00000F80
7C00000F80
7800000F80
F8000007C0
ENDCHAR
STARTCHAR 0103
ENCODING 259
SWIDTH 612 0
DWIDTH 34 0
BBX 27 40 3 0
BITMAP
07801E00
07C03E00
03E07C00
01FFF800
00FFF000
003FC000
00000000
00000000
00000000
00000000
00FF0000
03FFC3E0
07FFE3E0
0FFFF3E0
1FC0FBE0
3F003FE0
7E001FE0
7E000FE0
7C0007E0
F80007E0
F80003E0
F80003E0
F80003E0
F80003E0
F80003E0
F80003E0
F80003E0
F80003E0
F80003E0
F80003E0
F80007E0
7C0007E0
7C000FE0
7E000FE0
3F001FE0
3FC07BE0
1FFFF3E0
0FFFE3E0
07FFC3E0
01FF03E0
ENDCHAR
STARTCHAR 0104
ENCODING 260
SWIDTH 666 0
DWIDTH 37 0
BBX 35 48 2 -9
BITMAP
0003E00000
0003F00000
0003F00000
0007F00000
0007F80000
0007F80000
000FFC0000
000F7C0000
001F3C0000
001F3E0000
001E1E0000
003E1E0000
003C1F0000
003C0F0000
007C0F8000
00780F8000
00F8078000
00F807C000
00F007C000
01F003E000
01F003E000
01E001E000
03E001F000
03E001F000
07FFFFF000
07FFFFF800
07FFFFF800
0FFFFFFC00
0F80007C00
0F00003C00
1F00003E00
1F00003E00
3E00001E00
3E00001F00
3E00001F00
7C00000F80
7C00000F80
7800000F80
F8000007C0
0000000F00
0000001E00
0000001C00
0000003C00
0000003C00
0000001E00
0000001FE0
0000000FE0
00000007E0
ENDCHAR
STARTCHAR 0105
ENCODING 261
SWIDTH 612 0
DWIDTH 34 0
BBX 29 39 3 -9
BITMAP
00FF0000
03FFC3E0
07FFE3E0
0FFFF3E0
1FC0FBE0
3F003FE0
7E001FE0
7E000FE0
7C0007E0
F80007E0
F80003E0
F80003E0
F80003E0
F80003E0
F80003E0
F80003E0
F80003E0
F80003E0
F80003E0
F80003E0
F80007E0
7C0007E0
7C000FE0
7E000FE0
3F001FE0
3FC07BE0
1FFFF3E0
0FFFE3E0
07FFC3E0
01FF03E0
000003C0
00000780
00000700
00000700
00000700
00000780
000007F8
000003F8
000000F8
ENDCHAR
STARTCHAR 0106
ENCODING 262
SWIDTH 702 0
DWIDTH 39 0
BBX 34 53 3 0
BITMAP
00000FC000
00000F8000
00001F0000
00001F0000
00003E0000
00003C0000
00007C0000
0000780000
0000F00000
0000E00000
0000000000
0000000000
0000000000
0003F80000
001FFF0000
007FFFC000
01FFFFF000
03FFFFF800
07F803FC00
0FE000FE00
1FC0007E00
1F80001F00
3F00001F80
3E00000F80
7E00000F80
7C000007C0
7C000007C0
7C00000000
FC00000000
F800000000
F800000000
F800000000
F800000000
F800000000
F800000000
F800000000
F800000000
F800000000
FC00000000
7C00000000
7C00000000
7C000007C0
3E00000F80
3E00000F80
1F00001F00
1F80003F00
0FC0007E00
0FE000FC00
07FC07FC00
03FFFFF800
00FFFFE000
007FFFC000
000FFE0000
ENDCHAR
STARTCHAR 0107
ENCODING 263
SWIDTH 576 0
DWIDTH 32 0
BBX 26 43 3 0
BITMAP
00007C00
0000F800
0000F800
0001F000
0001E000
0003E000
0003C000
00078000
00078000
000F0000
00000000
00000000
00000000
007FC000
01FFF000
07FFFC00
0FFFFE00
1FE07F00
1F801F00
3F000F80
7E000F80
7C0007C0
7C0007C0
F80003C0
F8000000
F8000000
F8000000
F8000000
F8000000
F8000000
F8000000
F8000000
F80003C0
7C0007C0
7C0007C0
7E0007C0
3E000F80
3F001F80
1FC03F00
0FFFFE00
07FFFC00
03FFF800
00FFE000
ENDCHAR
STARTCHAR 010A
ENCODING 266
SWIDTH 702 0
DWIDTH 39 0
BBX 34 50 3 1
BITMAP
0001E00000
0003F00000
0003F00000
0003F00000
0003E00000
0000C00000
0000000000
0000000000
0000000000
0000000000
0003F80000
001FFF0000
007FFFC000
01FFFFF000
03FFFFF800
07F803FC00
0FE000FE00
1FC0007E00
1F80001F00
3F00001F80
3E00000F80
7E00000F80
7C000007C0
7C000007C0
7C00000000
FC00000000
F800000000
F800000000
F800000000
F800000000
F800000000
F800000000
F800000000
F800000000
F800000000
FC00000000
7C00000000
7C00000000
7C000007C0
3E00000F80
3E00000F80
1F00001F00
1F80003F00
0FC0007E00
0FE000FC00
07FC07FC00
03FFFFF800
00FFFFE000
007FFFC000
000FFE0000
ENDCHAR
STARTCHAR 010B
ENCODING 267
SWIDTH 576 0
DWIDTH 32 0
BBX 26 41 3 0
BITMAP
000E0000
001F0000
001F8000
001F8000
001F0000
000F0000
00000000
00000000
00000000
00000000
00000000
007FC000
01FFF000
07FFFC00
0FFFFE00
1FE07F00
1F801F00
3F000F80
7E000F80
7C0007C0
7C0007C0
F80003C0
F8000000
F8000000
F8000000
F8000000
F8000000
F8000000
F8000000
F8000000
F80003C0
7C0007C0
7C0007C0
7E0007C0
3E000F80
3F001F80
1FC03F00
0FFFFE00
07FFFC00
03FFF800
00FFE000
ENDCHAR
STARTCHAR 010C
ENCODING 268
SWIDTH 702 0
DWIDTH 39 0
BBX 34 51 3 0
BITMAP
00F007C000
00780F8000
003C0F0000
003E1E0000
001F3E0000
000FFC0000
0007F80000
0003F00000
0000000000
0000000000
0000000000
0003F80000
001FFF0000
007FFFC000
01FFFFF000
03FFFFF800
07F803FC00
0FE000FE00
1FC0007E00
1F80001F00
3F00001F80
3E00000F80
7E00000F80
7C000007C0
7C000007C0
7C00000000
FC00000000
F800000000
F800000000
F800000000
F800000000
F800000000
F800000000
F800000000
F800000000
F800000000
FC00000000
7C00000000
7C00000000
7C000007C0
3E00000F80
3E00000F80
1F00001F00
1F80003F00
0FC0007E00
0FE000FC00
07FC07FC00
03FFFFF800
00FFFFE000
007FFFC000
000FFE0000
ENDCHAR
STARTCHAR 010D
ENCODING 269
SWIDTH 576 0
DWIDTH 32 0
BBX 26 41 3 0
BITMAP
07C03E00
03C07C00
01E0F800
01F1F000
00FBE000
007FC000
003F8000
001F0000
00000000
00000000
00000000
007FC000
01FFF000
07FFFC00
0FFFFE00
1FE07F00
1F801F00
3F000F80
7E000F80
7C0007C0
7C0007C0
F80003C0
F8000000
F8000000
F8000000
F8000000
F8000000
F8000000
F8000000
F8000000
F80003C0
7C0007C0
7C0007C0
7E0007C0
3E000F80
3F001F80
1FC03F00
0FFFFE00
07FFFC00
03FFF800
00FFE000
ENDCHAR
STARTCHAR 010E
ENCODING 270
SWIDTH 684 0
DWIDTH 38 0
BBX 32 51 4 0
BITMAP
07C01F00
03E03E00
01F07C00
00F8F800
007DF000
003FE000
001FC000
000F8000
00000000
00000000
00000000
00000000
FFFFC000
FFFFFC00
FFFFFF00
FFFFFF80
F803FFC0
F8001FE0
F80007F0
F80003F8
F80001F8
F80000FC
F800007C
F800007E
F800003E
F800003E
F800003E
F800003E
F800003F
F800001F
F800001F
F800001F
F800001F
F800001F
F800003F
F800003E
F800003E
F800003E
F800003E
F800007E
F800007C
F80000FC
F80001F8
F80003F8
F80007F0
F8001FE0
F803FFC0
FFFFFF80
FFFFFF00
FFFFFC00
FFFFE000
ENDCHAR
STARTCHAR 010F
ENCODING 271
SWIDTH 738 0
DWIDTH 41 0
BBX 37 44 3 0
BITMAP
0000000040
00000003F0
000003E3F8
000003E3F8
000003E3F8
000003E3F8
000003E0F8
000003E038
000003E038
000003E038
000003E030
000003E070
000003E0E0
000003E1C0
00FF03E100
03FFC3E000
07FFE3E000
0FFFF3E000
1FE0FBE000
3F803FE000
3E001FE000
7E000FE000
7C0007E000
FC0007E000
F80003E000
F80003E000
F80003E000
F80003E000
F80003E000
F80003E000
F80003E000
F80003E000
F80003E000
F80003E000
F80007E000
7C0007E000
7C000FE000
7E000FE000
3F001FE000
1FC07BE000
1FFFF3E000
0FFFE3E000
07FFC3E000
01FF83E000
ENDCHAR
STARTCHAR 0110
ENCODING 272
SWIDTH 702 0
DWIDTH 39 0
BBX 34 39 3 0
BITMAP
1FFFF00000
1FFFFE0000
1FFFFFC000
1FFFFFE000
1E01FFF000
1E0007F800
1E0001FC00
1E00007E00
1E00003F00
1E00001F00
1E00001F80
1E00000F80
1E00000F80
1E000007C0
1E000007C0
1E000007C0
1E000007C0
FFFE0007C0
FFFE0007C0
FFFE0007C0
FFFE0007C0
1E000007C0
1E000007C0
1E000007C0
1E000007C0
1E000007C0
1E00000F80
1E00000F80
1E00001F80
1E00001F00
1E00003F00
1E00007E00
1E0000FC00
1E0003FC00
1E007FF800
1FFFFFE000
1FFFFFC000
1FFFFF0000
1FFFF00000
ENDCHAR
STARTCHAR 0111
ENCODING 273
SWIDTH 612 0
DWIDTH 34 0
BBX 31 42 3 0
BITMAP
000003E0
000003E0
000003E0
000003E0
000003E0
0003FFFE
0003FFFE
0003FFFE
000003E0
000003E0
000003E0
000003E0
00FF03E0
03FFC3E0
07FFE3E0
0FFFF3E0
1FE0FBE0
3F803FE0
3E001FE0
7E000FE0
7C0007E0
FC0007E0
F80003E0
F80003E0
F80003E0
F80003E0
F80003E0
F80003E0
F80003E0
F80003E0
F80003E0
F80003E0
F80007E0
7C0007E0
7C000FE0
7E000FE0
3F001FE0
1FC07BE0
1FFFF3E0
0FFFE3E0
07FFC3E0
01FF83E0
ENDCHAR
STARTCHAR 0112
ENCODING 274
SWIDTH 558 0
DWIDTH 31 0
BBX 24 47 4 0
BITMAP
0FFFF0
0FFFF0
0FFFF0
000000
000000
000000
000000
000000
FFFFFF
FFFFFF
FFFFFF
FFFFFF
F80000
F80000
F80000
F80000
F80000
F80000
F80000
F80000
F80000
F80000
F80000
F80000
F80000
FFFFFC
FFFFFC
FFFFFC
FFFFFC
F80000
F80000
F80000
F80000
F80000
F80000
F80000
F80000
F80000
F80000
F80000
F80000
F80000
F80000
FFFFFF
FFFFFF
FFFFFF
FFFFFF
ENDCHAR
STARTCHAR 0113
ENCODING 275
SWIDTH 576 0
DWIDTH 32 0
BBX 27 37 3 0
BITMAP
07FFFC00
07FFFC00
00000000
00000000
00000000
00000000
00000000
007FC000
01FFF000
07FFFC00
0FFFFE00
1FC07E00
1F001F00
3E000F80
7C000F80
7C0007C0
780007C0
F80007C0
F80003C0
F80003C0
FFFFFFC0
FFFFFFC0
FFFFFFE0
FFFFFFE0
F8000000
F8000000
F8000000
78000000
7C0007C0
7C0007C0
3E000F80
3F001F80
1FC07F00
0FFFFE00
07FFFC00
03FFF800
00FFE000
ENDCHAR
STARTCHAR 0116
ENCODING 278
SWIDTH 558 0
DWIDTH 31 0
BBX 24 50 4 1
BITMAP
003C00
007E00
007E00
007E00
003C00
001800
000000
000000
000000
000000
000000
FFFFFF
FFFFFF
FFFFFF
FFFFFF
F80000
F80000
F80000
F80000
F80000
F80000
F80000
F80000
F80000
F80000
F80000
F80000
F80000
FFFFFC
FFFFFC
FFFFFC
FFFFFC
F80000
F80000
F80000
F80000
F80000
F80000
F80000
F80000
F80000
F80000
F80000
F80000
F80000
F80000
FFFFFF
FFFFFF
FFFFFF
FFFFFF
ENDCHAR
STARTCHAR 0117
ENCODING 279
SWIDTH 576 0
DWIDTH 32 0
BBX 27 41 3 0
BITMAP
000E0000
001F0000
003F8000
003F8000
001F0000
001F0000
00000000
00000000
00000000
00000000
00000000
007FC000
01FFF000
07FFFC00
0FFFFE00
1FC07E00
1F001F00
3E000F80
7C000F80
7C0007C0
780007C0
F80007C0
F80003C0
F80003C0
FFFFFFC0
FFFFFFC0
FFFFFFE0
FFFFFFE0
F8000000
F8000000
F8000000
78000000
7C0007C0
7C0007C0
3E000F80
3F001F80
1FC07F00
0FFFFE00
07FFFC00
03FFF800
00FFE000
ENDCHAR
STARTCHAR 0118
ENCODING 280
SWIDTH 558 0
DWIDTH 31 0
BBX 26 48 4 -9
BITMAP
FFFFFF00
FFFFFF00
FFFFFF00
FFFFFF00
F8000000
F8000000
F8000000
F8000000
F8000000
F8000000
F8000000
F8000000
F8000000
F8000000
F8000000
F8000000
F8000000
FFFFFC00
FFFFFC00
FFFFFC00
FFFFFC00
F8000000
F8000000
F8000000
F8000000
F8000000
F8000000
F8000000
F8000000
F8000000
F8000000
F8000000
F8000000
F8000000
F8000000
FFFFFF00
FFFFFF00
FFFFFF00
FFFFFF00
00001E00
00003C00
00003800
00003800
00003800
00003C00
00003FC0
00001FC0
00000FC0
ENDCHAR
STARTCHAR 0119
ENCODING 281
SWIDTH 576 0
DWIDTH 32 0
BBX 27 39 3 -9
BITMAP
007FC000
01FFF000
07FFFC00
0FFFFE00
1FC07E00
1F001F00
3E000F80
7C000F80
7C0007C0
780007C0
F80007C0
F80003C0
F80003C0
FFFFFFC0
FFFFFFC0
FFFFFFE0
FFFFFFE0
F8000000
F8000000
F8000000
78000000
7C0007C0
7C0007C0
3E000F80
3F001F80
1FC07F00
0FFFFE00
07FFFC00
03FFF800
00FFE000
001E0000
003C0000
00380000
00780000
00780000
00780000
003FC000
003FC000
000FC000
ENDCHAR
STARTCHAR 011A
ENCODING 282
SWIDTH 558 0
DWIDTH 31 0
BBX 24 51 4 0
BITMAP
1F0078
0F80F0
0781F0
03C3E0
03E7C0
01FF80
00FF00
007E00
000000
000000
000000
000000
FFFFFF
FFFFFF
FFFFFF
FFFFFF
F80000
F80000
F80000
F80000
F80000
F80000
F80000
F80000
F80000
F80000
F80000
F80000
F80000
FFFFFC
FFFFFC
FFFFFC
FFFFFC
F80000
F80000
F80000
F80000
F80000
F80000
F80000
F80000
F80000
F80000
F80000
F80000
F80000
F80000
FFFFFF
FFFFFF
FFFFFF
FFFFFF
ENDCHAR
STARTCHAR 011B
ENCODING 283
SWIDTH 576 0
DWIDTH 32 0
BBX 27 41 3 0
BITMAP
07803C00
03C07C00
03E0F800
01F1F000
00FBE000
007FC000
003F8000
001F0000
00000000
00000000
00000000
007FC000
01FFF000
07FFFC00
0FFFFE00
1FC07E00
1F001F00
3E000F80
7C000F80
7C0007C0
780007C0
F80007C0
F80003C0
F80003C0
FFFFFFC0
FFFFFFC0
FFFFFFE0
FFFFFFE0
F8000000
F8000000
F8000000
78000000
7C0007C0
7C0007C0
3E000F80
3F001F80
1FC07F00
0FFFFE00
07FFFC00
03FFF800
00FFE000
ENDCHAR
STARTCHAR 011E
ENCODING 286
SWIDTH 702 0
DWIDTH 39 0
BBX 33 49 3 0
BITMAP
00F003C000
007807C000
003F1F8000
001FFF0000
000FFC0000
0000C00000
0000000000
0000000000
0000000000
0003F00000
003FFF0000
007FFFC000
01FFFFE000
03FFFFF800
07F803F800
0FE000FC00
1F80007E00
1F00003F00
3F00001F00
3E00001F80
7E00000F80
7C00000F80
7C00000000
7800000000
F800000000
F800000000
F800000000
F800000000
F800000000
F8003FFF80
F8003FFF80
F8003FFF80
F8003FFF80
F800000780
F800000780
7800000780
7C00000F80
7C00000F80
3E00000F80
3E00000F80
3F00001F80
1F80003F80
0F80007F80
0FE000FF80
07F803F780
03FFFFE780
01FFFFC780
007FFF0780
001FFC0780
ENDCHAR
STARTCHAR 011F
ENCODING 287
SWIDTH 612 0
DWIDTH 34 0
BBX 27 52 3 -12
BITMAP
07801E00
07803E00
03E07C00
01FFF800
00FFF000
003FC000
00000000
00000000
00000000
00000000
00FF0000
03FFC1E0
07FFE1E0
0FFFF1E0
1FE079E0
3F801DE0
3F000FE0
7E000FE0
7C0007E0
FC0003E0
F80003E0
F80003E0
F80003E0
F80003E0
F80003E0
F80003E0
F80003E0
F80003E0
F80003E0
FC0003E0
7C0007E0
7E0007E0
7E000FE0
3F001DE0
1FC079E0
1FFFF9E0
0FFFF1E0
07FFE1E0
01FF81E0
001801E0
000003E0
000003E0
000003E0
000007E0
000007C0
00000FC0
00003F80
007FFF00
007FFE00
007FFC00
007FF800
001F8000
ENDCHAR
STARTCHAR 0120
ENCODING 288
SWIDTH 702 0
DWIDTH 39 0
BBX 33 51 3 0
BITMAP
0000400000
0001F00000
0003F00000
0003F00000
0003F00000
0001F00000
0000C00000
0000000000
0000000000
0000000000
0000000000
0003F00000
003FFF0000
007FFFC000
01FFFFE000
03FFFFF800
07F803F800
0FE000FC00
1F80007E00
1F00003F00
3F00001F00
3E00001F80
7E00000F80
7C00000F80
7C00000000
7800000000
F800000000
F800000000
F800000000
F800000000
F800000000
F8003FFF80
F8003FFF80
F8003FFF80
F8003FFF80
F800000780
F800000780
7800000780
7C00000F80
7C00000F80
3E00000F80
3E00000F80
3F00001F80
1F80003F80
0F80007F80
0FE000FF80
07F803F780
03FFFFE780
01FFFFC780
007FFF0780
001FFC0780
ENDCHAR
STARTCHAR 0121
ENCODING 289
SWIDTH 612 0
DWIDTH 34 0
BBX 27 53 3 -12
BITMAP
000F0000
001F8000
001F8000
001F8000
001F8000
000F0000
00000000
00000000
00000000
00000000
00000000
00FF0000
03FFC1E0
07FFE1E0
0FFFF1E0
1FE079E0
3F801DE0
3F000FE0
7E000FE0
7C0007E0
FC0003E0
F80003E0
F80003E0
F80003E0
F80003E0
F80003E0
F80003E0
F80003E0
F80003E0
F80003E0
FC0003E0
7C0007E0
7E0007E0
7E000FE0
3F001DE0
1FC079E0
1FFFF9E0
0FFFF1E0
07FFE1E0
01FF81E0
001801E0
000003E0
000003E0
000003E0
000007E0
000007C0
00000FC0
00003F80
007FFF00
007FFE00
007FFC00
007FF800
001F8000
ENDCHAR
STARTCHAR 0126
ENCODING 294
SWIDTH 684 0
DWIDTH 38 0
BBX 36 39 1 0
BITMAP
0F00000F80
0F00000F80
0F00000F80
0F00000F80
0F00000F80
0F00000F80
0F00000F80
FFFFFFFFF0
FFFFFFFFF0
FFFFFFFFF0
0F00000F80
0F00000F80
0F00000F80
0F00000F80
0F00000F80
0F00000F80
0F00000F80
0FFFFFFF80
0FFFFFFF80
0FFFFFFF80
0FFFFFFF80
0F00000F80
0F00000F80
0F00000F80
0F00000F80
0F00000F80
0F00000F80
0F00000F80
0F00000F80
0F00000F80
0F00000F80
0F00000F80
0F00000F80
0F00000F80
0F00000F80
0F00000F80
0F00000F80
0F00000F80
0F00000F80
ENDCHAR
STARTCHAR 0127
ENCODING 295
SWIDTH 594 0
DWIDTH 33 0
BBX 31 42 0 0
BITMAP
07800000
07800000
07800000
07800000
07800000
FFFFC000
FFFFC000
FFFFC000
07800000
07800000
07800000
07800000
07807F80
0783FFE0
0787FFF0
078FFFF8
079F07F8
07BC01F8
07F000FC
07F0007C
07E0007C
07C0007C
07C0003E
07C0003E
07C0003E
0780003E
0780003E
0780003E
0780003E
0780003E
0780003E
0780003E
0780003E
0780003E
0780003E
0780003E
0780003E
0780003E
0780003E
0780003E
0780003E
0780003E
ENDCHAR
STARTCHAR 0128
ENCODING 296
SWIDTH 234 0
DWIDTH 13 0
BBX 16 50 -1 0
BITMAP
3E07
7F87
FFCE
E3FE
E1FC
E078
0000
0000
0000
0000
0000
07C0
07C0
07C0
07C0
07C0
07C0
07C0
07C0
07C0
07C0
07C0
07C0
07C0
07C0
07C0
07C0
07C0
07C0
07C0
07C0
07C0
07C0
07C0
07C0
07C0
07C0
07C0
07C0
07C0
07C0
07C0
07C0
07C0
07C0
07C0
07C0
07C0
07C0
07C0
ENDCHAR
STARTCHAR 0129
ENCODING 297
SWIDTH 234 0
DWIDTH 13 0
BBX 16 41 -1 0
BITMAP
0807
3F07
7F87
FFFE
E1FE
E0FC
E010
0000
0000
0000
0000
0000
03C0
03C0
03C0
03C0
03C0
03C0
03C0
03C0
03C0
03C0
03C0
03C0
03C0
03C0
03C0
03C0
03C0
03C0
03C0
03C0
03C0
03C0
03C0
03C0
03C0
03C0
03C0
03C0
03C0
ENDCHAR
STARTCHAR 012A
ENCODING 298
SWIDTH 234 0
DWIDTH 13 0
BBX 17 47 -2 0
BITMAP
FFFF80
FFFF80
FFFF80
000000
000000
000000
000000
000000
03E000
03E000
03E000
03E000
03E000
03E000
03E000
03E000
03E000
03E000
03E000
03E000
03E000
03E000
03E000
03E000
03E000
03E000
03E000
03E000
03E000
03E000
03E000
03E000
03E000
03E000
03E000
03E000
03E000
03E000
03E000
03E000
03E000
03E000
03E000
03E000
03E000
03E000
03E000
ENDCHAR
STARTCHAR 012B
ENCODING 299
SWIDTH 234 0
DWIDTH 13 0
BBX 16 37 -1 0
BITMAP
FFFF
FFFF
0000
0000
0000
0000
0000
0000
03C0
03C0
03C0
03C0
03C0
03C0
03C0
03C0
03C0
03C0
03C0
03C0
03C0
03C0
03C0
03C0
03C0
03C0
03C0
03C0
03C0
03C0
03C0
03C0
03C0
03C0
03C0
03C0
03C0
ENDCHAR
STARTCHAR 012E
ENCODING 302
SWIDTH 234 0
DWIDTH 13 0
BBX 8 48 3 -9
BITMAP
7C
7C
7C
7C
7C
7C
7C
7C
7C
7C
7C
7C
7C
7C
7C
7C
7C
7C
7C
7C
7C
7C
7C
7C
7C
7C
7C
7C
7C
7C
7C
7C
7C
7C
7C
7C
7C
7C
7C
78
F0
E0
E0
E0
F0
FF
7F
1F
ENDCHAR
STARTCHAR 012F
ENCODING 303
SWIDTH 234 0
DWIDTH 13 0
BBX 8 50 3 -9
BITMAP
3C
7E
7E
7E
7E
3C
00
00
00
00
00
00
3C
3C
3C
3C
3C
3C
3C
3C
3C
3C
3C
3C
3C
3C
3C
3C
3C
3C
3C
3C
3C
3C
3C
3C
3C
3C
3C
3C
3C
7C
70
F0
E0
E0
F0
FF
7F
1F
ENDCHAR
STARTCHAR 0130
ENCODING 304
SWIDTH 234 0
DWIDTH 13 0
BBX 6 51 4 0
BITMAP
20
F8
FC
FC
FC
F8
30
00
00
00
00
00
F8
F8
F8
F8
F8
F8
F8
F8
F8
F8
F8
F8
F8
F8
F8
F8
F8
F8
F8
F8
F8
F8
F8
F8
F8
F8
F8
F8
F8
F8
F8
F8
F8
F8
F8
F8
F8
F8
F8
ENDCHAR
STARTCHAR 0131
ENCODING 305
SWIDTH 234 0
DWIDTH 13 0
BBX 4 29 5 0
BITMAP
F0
F0
F0
F0
F0
F0
F0
F0
F0
F0
F0
F0
F0
F0
F0
F0
F0
F0
F0
F0
F0
F0
F0
F0
F0
F0
F0
F0
F0
ENDCHAR
STARTCHAR 0139
ENCODING 313
SWIDTH 522 0
DWIDTH 29 0
BBX 23 53 4 0
BITMAP
03E000
03C000
07C000
0F8000
0F0000
1F0000
1E0000
3C0000
3C0000
780000
000000
000000
000000
000000
F80000
F80000
F80000
F80000
F80000
F80000
F80000
F80000
F80000
F80000
F80000
F80000
F80000
F80000
F80000
F80000
F80000
F80000
F80000
F80000
F80000
F80000
F80000
F80000
F80000
F80000
F80000
F80000
F80000
F80000
F80000
F80000
F80000
F80000
F80000
FFFFFE
FFFFFE
FFFFFE
FFFFFE
ENDCHAR
STARTCHAR 013A
ENCODING 314
SWIDTH 306 0
DWIDTH 17 0
BBX 11 55 4 0
BITMAP
03E0
07C0
07C0
0F80
0F00
1F00
1E00
3C00
3800
7800
0000
0000
0000
F800
F800
F800
F800
F800
F800
F800
F800
F800
F800
F800
F800
F800
F800
F800
F800
F800
F800
F800
F800
F800
F800
F800
F800
F800
F800
F800
F800
F800
F800
F800
F800
F800
F800
F800
F800
F800
7C00
7E00
7FE0
3FE0
1FE0
ENDCHAR
STARTCHAR 013D
ENCODING 317
SWIDTH 522 0
DWIDTH 29 0
BBX 30 51 -3 0
BITMAP
F803E000
7C07C000
3E0F8000
1F1F0000
0FBE0000
07FC0000
03F80000
01F00000
00000000
00000000
00000000
00000000
01F00000
01F00000
01F00000
01F00000
01F00000
01F00000
01F00000
01F00000
01F00000
01F00000
01F00000
01F00000
01F00000
01F00000
01F00000
01F00000
01F00000
01F00000
01F00000
01F00000
01F00000
01F00000
01F00000
01F00000
01F00000
01F00000
01F00000
01F00000
01F00000
01F00000
01F00000
01F00000
01F00000
01F00000
01F00000
01FFFFFC
01FFFFFC
01FFFFFC
01FFFFFC
ENDCHAR
STARTCHAR 013E
ENCODING 318
SWIDTH 342 0
DWIDTH 19 0
BBX 15 44 4 0
BITMAP
0010
00FC
F8FE
F8FE
F8FE
F8FE
F83E
F80E
F80E
F80E
F80C
F81C
F838
F870
F840
F800
F800
F800
F800
F800
F800
F800
F800
F800
F800
F800
F800
F800
F800
F800
F800
F800
F800
F800
F800
F800
F800
F800
F800
7C00
7E00
7FE0
3FE0
1FE0
ENDCHAR
STARTCHAR 0143
ENCODING 323
SWIDTH 702 0
DWIDTH 39 0
BBX 31 53 4 0
BITMAP
00001F00
00001F00
00003E00
00003C00
00007C00
00007800
0000F000
0001F000
0001E000
0003C000
00000000
00000000
00000000
00000000
FC00001E
FC00001E
FE00001E
FF00001E
FF80001E
FF80001E
FFC0001E
FFE0001E
FFE0001E
FBF0001E
F9F8001E
F9F8001E
F8FC001E
F87E001E
F87E001E
F83F001E
F81F801E
F81F801E
F80FC01E
F807E01E
F807E01E
F803F01E
F801F81E
F801F81E
F800FC1E
F8007E1E
F8007E1E
F8003F1E
F8001F9E
F8001F9E
F8000FDE
F80007FE
F80007FE
F80003FE
F80001FE
F80000FE
F80000FE
F800007E
F800003E
ENDCHAR
STARTCHAR 0144
ENCODING 324
SWIDTH 612 0
DWIDTH 34 0
BBX 26 43 4 0
BITMAP
0000F800
0000F800
0001F000
0001E000
0003E000
0003C000
00078000
000F8000
000F0000
001E0000
00000000
00000000
00000000
001FE000
F87FF800
F8FFFC00
F9FFFE00
FBE0FF00
FB803F80
FE001F80
FE000F80
FC0007C0
FC0007C0
F80007C0
F80007C0
F80007C0
F80007C0
F80007C0
F80007C0
F80007C0
F80007C0
F80007C0
F80007C0
F80007C0
F80007C0
F80007C0
F80007C0
F80007C0
F80007C0
F80007C0
F80007C0
F80007C0
F80007C0
ENDCHAR
STARTCHAR 0147
ENCODING 327
SWIDTH 702 0
DWIDTH 39 0
BBX 31 51 4 0
BITMAP
01E00F80
01F01F00
00F83E00
007C7C00
003E7800
001FF000
000FF000
0007E000
00000000
00000000
00000000
00000000
FC00001E
FC00001E
FE00001E
FF00001E
FF80001E
FF80001E
FFC0001E
FFE0001E
FFE0001E
FBF0001E
F9F8001E
F9F8001E
F8FC001E
F87E001E
F87E001E
F83F001E
F81F801E
F81F801E
F80FC01E
F807E01E
F807E01E
F803F01E
F801F81E
F801F81E
F800FC1E
F8007E1E
F8007E1E
F8003F1E
F8001F9E
F8001F9E
F8000FDE
F80007FE
F80007FE
F80003FE
F80001FE
F80000FE
F80000FE
F800007E
F800003E
ENDCHAR
STARTCHAR 0148
ENCODING 328
SWIDTH 612 0
DWIDTH 34 0
BBX 26 41 4 0
BITMAP
0F807C00
07C0F800
03E1F000
01F3E000
00FFC000
007F8000
003F0000
003F0000
00000000
00000000
00000000
001FE000
F87FF800
F8FFFC00
F9FFFE00
FBE0FF00
FB803F80
FE001F80
FE000F80
FC0007C0
FC0007C0
F80007C0
F80007C0
F80007C0
F80007C0
F80007C0
F80007C0
F80007C0
F80007C0
F80007C0
F80007C0
F80007C0
F80007C0
F80007C0
F80007C0
F80007C0
F80007C0
F80007C0
F80007C0
F80007C0
F80007C0
ENDCHAR
STARTCHAR 014C
ENCODING 332
SWIDTH 720 0
DWIDTH 40 0
BBX 35 47 3 0
BITMAP
007FFFC000
007FFFC000
007FFFC000
0000000000
0000000000
0000000000
0000000000
0003F80000
001FFF0000
007FFFC000
01FFFFF000
03FFFFF800
07F803FC00
0FE000FE00
1FC0007E00
1F80003F00
3F00001F80
3E00000F80
7E00000F80
7C00000FC0
7C000007C0
FC000007C0
F8000007C0
F8000003E0
F8000003E0
F8000003E0
F8000003E0
F8000003E0
F8000003E0
F8000003E0
F8000003E0
F8000003E0
F8000007C0
FC000007C0
7C000007C0
7C00000FC0
7E00000F80
3E00001F80
3F00001F00
1F80003F00
1FC0007E00
0FF001FE00
07FC07FC00
03FFFFF800
01FFFFE000
007FFFC000
001FFE0000
ENDCHAR
STARTCHAR 014D
ENCODING 333
SWIDTH 594 0
DWIDTH 33 0
BBX 27 37 3 0
BITMAP
07FFFC00
07FFFC00
00000000
00000000
00000000
00000000
00000000
007FC000
01FFF000
07FFFC00
0FFFFE00
1FE0FF00
1F803F00
3F001F80
7E000FC0
7C0007C0
7C0007C0
F80003E0
F80003E0
F80003E0
F80003E0
F80003E0
F80003E0
F80003E0
F80003E0
F80003E0
F80003E0
7C0007C0
7C0007C0
7E000FC0
3E000F80
3F001F80
1FC07F00
0FFFFE00
07FFFC00
03FFF800
00FFE000
ENDCHAR
STARTCHAR 0152
ENCODING 338
SWIDTH 954 0
DWIDTH 53 0
BBX 48 39 2 0
BITMAP
0003FFFFFFFF
001FFFFFFFFF
007FFFFFFFFF
01FFFFFFFFFF
03FFC0F80000
07F800F80000
0FE000F80000
0FC000F80000
1F8000F80000
3F0000F80000
3F0000F80000
3E0000F80000
7E0000F80000
7C0000F80000
7C0000F80000
7C0000F80000
7C0000F80000
FC0000FFFFFC
F80000FFFFFC
F80000FFFFFC
F80000FFFFFC
FC0000F80000
7C0000F80000
7C0000F80000
7C0000F80000
7C0000F80000
7E0000F80000
3E0000F80000
3F0000F80000
3F0000F80000
1F8000F80000
1FC000F80000
0FE000F80000
07F800F80000
03FF80F80000
01FFFFFFFFFF
00FFFFFFFFFF
003FFFFFFFFF
0007FFFFFFFF
ENDCHAR
STARTCHAR 0153
ENCODING 339
SWIDTH 972 0
DWIDTH 54 0
BBX 49 30 3 0
BITMAP
003F8000FF0000
01FFE003FFE000
07FFF807FFF000
0FFFFC0FFFF800
1FE0FE1F80FC00
1F803F3E007E00
3E001F7C003E00
7E000FF8001F00
7C0007F8000F00
7C0007F0000F00
F80007F0000F80
F80003F0000F80
F80003F0000F80
F80003FFFFFF80
F80003FFFFFF80
F80003FFFFFF80
F80003FFFFFF80
F80003E0000000
F80003F0000000
F80003F0000000
780007F0000000
7C0007F8000F80
7C000FF8001F00
3E000FFC001F00
3F001F3E003E00
1FC07E3F00FC00
0FFFFC1FFFFC00
07FFFC0FFFF800
03FFF007FFE000
00FFC001FF8000
ENDCHAR
STARTCHAR 0154
ENCODING 340
SWIDTH 594 0
DWIDTH 33 0
BBX 27 53 4 0
BITMAP
0001F000
0001F000
0003E000
0003C000
0007C000
00078000
000F0000
000F0000
001E0000
003C0000
00000000
00000000
00000000
00000000
FFFFC000
FFFFF800
FFFFFC00
FFFFFE00
F807FF00
F8003F80
F8000FC0
F80007C0
F80003C0
F80003E0
F80003E0
F80003E0
F80003E0
F80003E0
F80003E0
F80007C0
F80007C0
F8000F80
F8003F80
FFFFFF00
FFFFFE00
FFFFFC00
FFFFF000
FFFF8000
F807C000
F807C000
F803E000
F803F000
F801F000
F800F800
F800FC00
F8007C00
F8003E00
F8003F00
F8001F00
F8000F80
F8000FC0
F80007C0
F80003E0
ENDCHAR
STARTCHAR 0155
ENCODING 341
SWIDTH 342 0
DWIDTH 19 0
BBX 15 43 4 0
BITMAP
007C
007C
00F8
00F0
01F0
01E0
03C0
07C0
0780
0F00
0000
0000
0000
0000
F87E
F9FE
FBFE
FFFE
FFC2
FE00
FC00
FC00
F800
F800
F800
F800
F800
F800
F800
F800
F800
F800
F800
F800
F800
F800
F800
F800
F800
F800
F800
F800
F800
ENDCHAR
STARTCHAR 0158
ENCODING 344
SWIDTH 594 0
DWIDTH 33 0
BBX 27 51 4 0
BITMAP
1E00F800
1F01F000
0F83E000
07C7C000
03E78000
01FF0000
00FF0000
007E0000
00000000
00000000
00000000
00000000
FFFFC000
FFFFF800
FFFFFC00
FFFFFE00
F807FF00
F8003F80
F8000FC0
F80007C0
F80003C0
F80003E0
F80003E0
F80003E0
F80003E0
F80003E0
F80003E0
F80007C0
F80007C0
F8000F80
F8003F80
FFFFFF00
FFFFFE00
FFFFFC00
FFFFF000
FFFF8000
F807C000
F807C000
F803E000
F803F000
F801F000
F800F800
F800FC00
F8007C00
F8003E00
F8003F00
F8001F00
F8000F80
F8000FC0
F80007C0
F80003E0
ENDCHAR
STARTCHAR 0159
ENCODING 345
SWIDTH 342 0
DWIDTH 19 0
BBX 18 41 1 0
BITMAP
F807C0
7C0F80
3E1F00
1F3E00
0FFC00
07F800
03F000
03F000
000000
000000
000000
000000
1F0FC0
1F3FC0
1F7FC0
1FFFC0
1FF840
1FC000
1F8000
1F8000
1F0000
1F0000
1F0000
1F0000
1F0000
1F0000
1F0000
1F0000
1F0000
1F0000
1F0000
1F0000
1F0000
1F0000
1F0000
1F0000
1F0000
1F0000
1F0000
1F0000
1F0000
ENDCHAR
STARTCHAR 015A
ENCODING 346
SWIDTH 594 0
DWIDTH 33 0
BBX 28 53 3 0
BITMAP
00003E00
00003E00
00007C00
0000F800
0000F800
0001F000
0001E000
0003C000
0003C000
00078000
00000000
00000000
00000000
001F0000
01FFF000
07FFFC00
0FFFFE00
1FFFFF00
3F803F80
3F001FC0
7E000FC0
7C0007C0
7C0007E0
7C0003E0
7C0003E0
7C000000
7C000000
7E000000
3F000000
3F800000
1FF00000
0FFF8000
07FFF800
01FFFE00
003FFF00
0001FF80
00001FC0
00000FE0
000007E0
000003E0
F80003F0
F80001F0
F80001F0
FC0003F0
FC0003E0
7E0003E0
7E0007E0
3F800FC0
1FE03F80
0FFFFF80
07FFFE00
03FFFC00
00FFF000
ENDCHAR
STARTCHAR 015B
ENCODING 347
SWIDTH 486 0
DWIDTH 27 0
BBX 22 44 3 0
BITMAP
0001F0
0003E0
0003C0
0007C0
000F80
000F00
001F00
001E00
003C00
003C00
000000
000000
000000
000000
01FE00
0FFF80
1FFFE0
3FFFF0
7E03F0
7C01F8
7800F8
F80078
F8007C
F80000
780000
7C0000
7F8000
3FFC00
1FFF80
07FFE0
00FFF0
0003F8
0000FC
00007C
F0007C
F8007C
F8007C
F8007C
7C00FC
7E01F8
3FFFF0
1FFFF0
0FFFC0
03FF00
ENDCHAR
STARTCHAR 015E
ENCODING 350
SWIDTH 594 0
DWIDTH 33 0
BBX 28 54 3 -14
BITMAP
001F0000
01FFF000
07FFFC00
0FFFFE00
1FFFFF00
3F803F80
3F001FC0
7E000FC0
7C0007C0
7C0007E0
7C0003E0
7C0003E0
7C000000
7C000000
7E000000
3F000000
3F800000
1FF00000
0FFF8000
07FFF800
01FFFE00
003FFF00
0001FF80
00001FC0
00000FE0
000007E0
000003E0
F80003F0
F80001F0
F80001F0
FC0003F0
FC0003E0
7E0003E0
7E0007E0
3F800FC0
1FE03F80
0FFFFF80
07FFFE00
03FFFC00
00FFF000
000E0000
000E0000
000C0000
001FC000
001FF000
001FF000
00003800
00003800
00003800
00003800
00007000
001FF000
001FE000
000F8000
ENDCHAR
STARTCHAR 015F
ENCODING 351
SWIDTH 486 0
DWIDTH 27 0
BBX 22 44 3 -14
BITMAP
01FE00
0FFF80
1FFFE0
3FFFF0
7E03F0
7C01F8
7800F8
F80078
F8007C
F80000
780000
7C0000
7F8000
3FFC00
1FFF80
07FFE0
00FFF0
0003F8
0000FC
00007C
F0007C
F8007C
F8007C
F8007C
7C00FC
7E01F8
3FFFF0
1FFFF0
0FFFC0
03FF00
003800
003000
007000
007F00
007F80
00FFC0
0000C0
0000E0
0000E0
0000E0
0003C0
007FC0
007F80
003C00
ENDCHAR
STARTCHAR 0160
ENCODING 352
SWIDTH 594 0
DWIDTH 33 0
BBX 28 51 3 0
BITMAP
07C01F00
03E03E00
01F07C00
00F8F800
007DF000
003FE000
001FC000
000FC000
00000000
00000000
00000000
001F0000
01FFF000
07FFFC00
0FFFFE00
1FFFFF00
3F803F80
3F001FC0
7E000FC0
7C0007C0
7C0007E0
7C0003E0
7C0003E0
7C000000
7C000000
7E000000
3F000000
3F800000
1FF00000
0FFF8000
07FFF800
01FFFE00
003FFF00
0001FF80
00001FC0
00000FE0
000007E0
000003E0
F80003F0
F80001F0
F80001F0
FC0003F0
FC0003E0
7E0003E0
7E0007E0
3F800FC0
1FE03F80
0FFFFF80
07FFFE00
03FFFC00
00FFF000
ENDCHAR
STARTCHAR 0161
ENCODING 353
SWIDTH 486 0
DWIDTH 27 0
BBX 22 41 3 0
BITMAP
3E01F0
1F03E0
0F87C0
07CF80
03FF00
01FE00
00FC00
007800
000000
000000
000000
01FE00
0FFF80
1FFFE0
3FFFF0
7E03F0
7C01F8
7800F8
F80078
F8007C
F80000
780000
7C0000
7F8000
3FFC00
1FFF80
07FFE0
00FFF0
0003F8
0000FC
00007C
F0007C
F8007C
F8007C
F8007C
7C00FC
7E01F8
3FFFF0
1FFFF0
0FFFC0
03FF00
ENDCHAR
STARTCHAR 0162
ENCODING 354
SWIDTH 576 0
DWIDTH 32 0
BBX 28 53 2 -14
BITMAP
FFFFFFF0
FFFFFFF0
FFFFFFF0
FFFFFFF0
000F8000
000F8000
000F8000
000F8000
000F8000
000F8000
000F8000
000F8000
000F8000
000F8000
000F8000
000F8000
000F8000
000F8000
000F8000
000F8000
000F8000
000F8000
000F8000
000F8000
000F8000
000F8000
000F8000
000F8000
000F8000
000F8000
000F8000
000F8000
000F8000
000F8000
000F8000
000F8000
000F8000
000F8000
000F8000
000E0000
000E0000
000C0000
001FC000
001FF000
001FF000
00003800
00003800
00003800
00003800
00007800
001FF000
001FE000
000F8000
ENDCHAR
STARTCHAR 0163
ENCODING 355
SWIDTH 378 0
DWIDTH 21 0
BBX 18 53 2 -14
BITMAP
07C000
07C000
07C000
07C000
07C000
07C000
07C000
07C000
07C000
07C000
FFFF80
FFFF80
FFFF80
FFFF80
07C000
07C000
07C000
07C000
07C000
07C000
07C000
07C000
07C000
07C000
07C000
07C000
07C000
07C000
07C000
07C000
07C000
07C000
07C000
07C000
07E000
03F180
03FF80
01FF80
00FF80
007000
007000
006000
00FE00
00FF80
00FFC0
0001C0
0001C0
0001C0
0001C0
0083C0
00FF80
00FF00
003800
ENDCHAR
STARTCHAR 0164
ENCODING 356
SWIDTH 576 0
DWIDTH 32 0
BBX 28 51 2 0
BITMAP
07C01F00
03E03E00
01F07C00
00F8F800
007DF000
003FE000
001FC000
001F8000
00000000
00000000
00000000
00000000
FFFFFFF0
FFFFFFF0
FFFFFFF0
FFFFFFF0
000F8000
000F8000
000F8000
000F8000
000F8000
000F8000
000F8000
000F8000
000F8000
000F8000
000F8000
000F8000
000F8000
000F8000
000F8000
000F8000
000F8000
000F8000
000F8000
000F8000
000F8000
000F8000
000F8000
000F8000
000F8000
000F8000
000F8000
000F8000
000F8000
000F8000
000F8000
000F8000
000F8000
000F8000
000F8000
ENDCHAR
STARTCHAR 0165
ENCODING 357
SWIDTH 486 0
DWIDTH 27 0
BBX 25 43 2 1
BITMAP
00003F00
00003F80
00007F80
00007F80
07C03F80
07C00F80
07C00380
07C00380
07C00380
07C00300
07C00700
07C00E00
07C01C00
07C01000
FFFF8000
FFFF8000
FFFF8000
FFFF8000
07C00000
07C00000
07C00000
07C00000
07C00000
07C00000
07C00000
07C00000
07C00000
07C00000
07C00000
07C00000
07C00000
07C00000
07C00000
07C00000
07C00000
07C00000
07C00000
07C00000
07E00000
03F18000
03FF8000
01FF8000
00FF8000
ENDCHAR
STARTCHAR 0166
ENCODING 358
SWIDTH 576 0
DWIDTH 32 0
BBX 28 39 2 0
BITMAP
FFFFFFF0
FFFFFFF0
FFFFFFF0
FFFFFFF0
000F8000
000F8000
000F8000
000F8000
000F8000
000F8000
000F8000
000F8000
000F8000
000F8000
000F8000
000F8000
1FFFFFC0
1FFFFFC0
1FFFFFC0
000F8000
000F8000
000F8000
000F8000
000F8000
000F8000
000F8000
000F8000
000F8000
000F8000
000F8000
000F8000
000F8000
000F8000
000F8000
000F8000
000F8000
000F8000
000F8000
000F8000
ENDCHAR
STARTCHAR 0167
ENCODING 359
SWIDTH 378 0
DWIDTH 21 0
BBX 17 39 2 0
BITMAP
07C000
07C000
07C000
07C000
07C000
07C000
07C000
07C000
07C000
07C000
FFFF80
FFFF80
FFFF80
FFFF80
07C000
07C000
07C000
07C000
07C000
07C000
07C000
FFFF80
FFFF80
FFFF80
07C000
07C000
07C000
07C000
07C000
07C000
07C000
07C000
07C000
07C000
07E000
03F180
03FF80
01FF80
00FF80
ENDCHAR
STARTCHAR 0168
ENCODING 360
SWIDTH 684 0
DWIDTH 38 0
BBX 30 51 4 -1
BITMAP
007C0E00
00FF0E00
00FFDE00
01E7FC00
01C1FC00
01C07000
00000000
00000000
00000000
00000000
00000000
F000003C
F000003C
F000003C
F000003C
F000003C
F000003C
F000003C
F000003C
F000003C
F000003C
F000003C
F000003C
F000003C
F000003C
F000003C
F000003C
F000003C
F000003C
F000003C
F000003C
F000003C
F000003C
F000003C
F000003C
F000007C
F800007C
F800007C
F800007C
F80000FC
7C0000F8
7C0000F8
7E0001F8
3F0003F0
1F8007E0
1FF01FE0
0FFFFFC0
07FFFF80
01FFFE00
007FF800
00030000
ENDCHAR
STARTCHAR 0169
ENCODING 361
SWIDTH 594 0
DWIDTH 33 0
BBX 26 42 4 -1
BITMAP
00807000
03F07000
07F87000
0FFFF000
0E1FE000
0E0FC000
0E010000
00000000
00000000
00000000
00000000
00000000
F80007C0
F80007C0
F80007C0
F80007C0
F80007C0
F80007C0
F80007C0
F80007C0
F80007C0
F80007C0
F80007C0
F80007C0
F80007C0
F80007C0
F80007C0
F80007C0
F80007C0
F80007C0
F80007C0
F8000FC0
7C000FC0
7C000FC0
7E001FC0
7F0037C0
3F80F7C0
1FFFE7C0
1FFFC7C0
07FF87C0
03FF07C0
00200000
ENDCHAR
STARTCHAR 016A
ENCODING 362
SWIDTH 684 0
DWIDTH 38 0
BBX 30 48 4 -1
BITMAP
01FFFE00
01FFFE00
01FFFE00
00000000
00000000
00000000
00000000
00000000
F000003C
F000003C
F000003C
F000003C
F000003C
F000003C
F000003C
F000003C
F000003C
F000003C
F000003C
F000003C
F000003C
F000003C
F000003C
F000003C
F000003C
F000003C
F000003C
F000003C
F000003C
F000003C
F000003C
F000003C
F000007C
F800007C
F800007C
F800007C
F80000FC
7C0000F8
7C0000F8
7E0001F8
3F0003F0
1F8007E0
1FF01FE0
0FFFFFC0
07FFFF80
01FFFE00
007FF800
00030000
ENDCHAR
STARTCHAR 016B
ENCODING 363
SWIDTH 594 0
DWIDTH 33 0
BBX 26 38 4 -1
BITMAP
0FFFF000
0FFFF000
00000000
00000000
00000000
00000000
00000000
00000000
F80007C0
F80007C0
F80007C0
F80007C0
F80007C0
F80007C0
F80007C0
F80007C0
F80007C0
F80007C0
F80007C0
F80007C0
F80007C0
F80007C0
F80007C0
F80007C0
F80007C0
F80007C0
F80007C0
F8000FC0
7C000FC0
7C000FC0
7E001FC0
7F0037C0
3F80F7C0
1FFFE7C0
1FFFC7C0
07FF87C0
03FF07C0
00200000
ENDCHAR
STARTCHAR 016E
ENCODING 366
SWIDTH 684 0
DWIDTH 38 0
BBX 30 54 4 -1
BITMAP
000FC000
001FE000
00186000
00387000
00303000
00387000
00186000
001FE000
000FC000
00000000
00000000
00000000
00000000
00000000
F000003C
F000003C
F000003C
F000003C
F000003C
F000003C
F000003C
F000003C
F000003C
F000003C
F000003C
F000003C
F000003C
F000003C
F000003C
F000003C
F000003C
F000003C
F000003C
F000003C
F000003C
F000003C
F000003C
F000003C
F000007C
F800007C
F800007C
F800007C
F80000FC
7C0000F8
7C0000F8
7E0001F8
3F0003F0
1F8007E0
1FF01FE0
0FFFFFC0
07FFFF80
01FFFE00
007FF800
00030000
ENDCHAR
STARTCHAR 016F
ENCODING 367
SWIDTH 594 0
DWIDTH 33 0
BBX 26 45 4 -1
BITMAP
001C0000
007E0000
00FF0000
01C38000
01818000
01818000
01C38000
00E70000
007F0000
003C0000
00000000
00000000
00000000
00000000
00000000
F80007C0
F80007C0
F80007C0
F80007C0
F80007C0
F80007C0
F80007C0
F80007C0
F80007C0
F80007C0
F80007C0
F80007C0
F80007C0
F80007C0
F80007C0
F80007C0
F80007C0
F80007C0
F80007C0
F8000FC0
7C000FC0
7C000FC0
7E001FC0
7F0037C0
3F80F7C0
1FFFE7C0
1FFFC7C0
07FF87C0
03FF07C0
00200000
ENDCHAR
STARTCHAR 0172
ENCODING 370
SWIDTH 684 0
DWIDTH 38 0
BBX 30 48 4 -9
BITMAP
F000003C
F000003C
F000003C
F000003C
F000003C
F000003C
F000003C
F000003C
F000003C
F000003C
F000003C
F000003C
F000003C
F000003C
F000003C
F000003C
F000003C
F000003C
F000003C
F000003C
F000003C
F000003C
F000003C
F000003C
F000007C
F800007C
F800007C
F800007C
F80000FC
7C0000F8
7C0000F8
7E0001F8
3F0003F0
1F8007E0
1FF01FE0
0FFFFFC0
07FFFF80
01FFFE00
007FF800
00078000
000F0000
001E0000
001C0000
001C0000
001E0000
001FB000
000FF000
0007F000
ENDCHAR
STARTCHAR 0173
ENCODING 371
SWIDTH 594 0
DWIDTH 33 0
BBX 27 38 4 -9
BITMAP
F80007C0
F80007C0
F80007C0
F80007C0
F80007C0
F80007C0
F80007C0
F80007C0
F80007C0
F80007C0
F80007C0
F80007C0
F80007C0
F80007C0
F80007C0
F80007C0
F80007C0
F80007C0
F80007C0
F8000FC0
7C000FC0
7C000FC0
7E001FC0
7F0037C0
3F80F7C0
1FFFE7C0
1FFFC7C0
07FF87C0
03FF07C0
00200F00
00001E00
00001C00
00003C00
00003C00
00003C00
00001FE0
00000FE0
000007E0
ENDCHAR
STARTCHAR 0174
ENCODING 372
SWIDTH 990 0
DWIDTH 55 0
BBX 53 51 1 0
BITMAP
000000F8000000
000001FC000000
000001FE000000
000003DF000000
000007CF000000
00000F87800000
00001F07C00000
00003E03E00000
00000000000000
00000000000000
00000000000000
00000000000000
F80000F80000F8
F80000F80000F8
F80000FC0000F8
7C0001FC0000F0
7C0001FC0001F0
7C0001FE0001F0
3C0003FE0001F0
3E0003FE0001E0
3E0003FE0003E0
3E0007DF0003E0
1E0007DF0003E0
1F00078F0003C0
1F000F8F8007C0
1F000F8F8007C0
0F000F07800780
0F801F07C00F80
0F801F07C00F80
0F801F03C00F80
07803E03E00F00
07C03E03E01F00
07C03E01E01F00
03C07C01F01F00
03C07C01F01E00
03E07C00F03E00
03E0F800F83E00
01E0F800F83E00
01F0F800783C00
01F1F0007C7C00
01F1F0007C7C00
00F1F0003C7800
00FBE0003E7800
00FBE0003EF800
00FBE0003EF800
007FC0001FF000
007FC0001FF000
007FC0001FF000
003F80000FF000
003F80000FE000
003F80000FE000
ENDCHAR
STARTCHAR 0175
ENCODING 373
SWIDTH 810 0
DWIDTH 45 0
BBX 41 41 2 0
BITMAP
00003E000000
00007F000000
0000FF800000
0001F7C00000
0001E3E00000
0003C1F00000
0007C0F80000
000F807C0000
000000000000
000000000000
000000000000
000000000000
F8003E000780
F8003E000780
78003F000F80
78007F000F80
7C007F000F00
7C007F800F00
3C00FF801F00
3E00FF801E00
3E00F7C01E00
1E00F3C03E00
1E01F3C03E00
1F01E3E03C00
1F01E3E03C00
0F03E1E07C00
0F03C1F07C00
0F83C1F07800
0F87C0F07800
0787C0F0F800
078780F8F000
07CF8078F000
03CF8078F000
03CF007DF000
03EF007DE000
03FF003DE000
01FE003FE000
01FE003FE000
01FE001FC000
00FE001FC000
00FC001FC000
ENDCHAR
STARTCHAR 0176
ENCODING 374
SWIDTH 612 0
DWIDTH 34 0
BBX 30 51 2 0
BITMAP
00078000
000FC000
001FE000
003FF000
007CF800
00F87C00
01F03E00
03E01F00
00000000
00000000
00000000
00000000
F800007C
7C0000F8
7C0000F8
3E0001F0
3E0001F0
1F0003E0
1F0003E0
0F8007C0
0F8007C0
07C00F80
07C00F80
03E01F00
03E01F00
01F03E00
01F03E00
00F87C00
00F87C00
007CF800
007CF800
003FF000
003FF000
001FE000
001FE000
000FC000
000FC000
00078000
00078000
00078000
00078000
00078000
00078000
00078000
00078000
00078000
00078000
00078000
00078000
00078000
00078000
ENDCHAR
STARTCHAR 0177
ENCODING 375
SWIDTH 522 0
DWIDTH 29 0
BBX 26 52 2 -11
BITMAP
003F0000
007F0000
007F8000
00F7C000
01F3E000
03E1F000
07C0F800
0F807C00
00000000
00000000
00000000
00000000
F80007C0
F80007C0
7C0007C0
7C000F80
7C000F80
3E001F00
3E001F00
1E001E00
1F003E00
1F003E00
0F803C00
0F807C00
07807800
07C0F800
07C0F800
03C0F000
03E1F000
01E1E000
01E1E000
01F3E000
00F3C000
00F7C000
00FF8000
007F8000
007F8000
003F0000
003F0000
003E0000
003E0000
003C0000
007C0000
007C0000
00F80000
00F80000
01F00000
03F00000
5FE00000
7FE00000
7FC00000
7F000000
ENDCHAR
STARTCHAR 0178
ENCODING 376
SWIDTH 612 0
DWIDTH 34 0
BBX 30 51 2 0
BITMAP
00400800
01F03E00
01F87E00
03F87F00
01F87E00
01F03E00
00401800
00000000
00000000
00000000
00000000
00000000
F800007C
7C0000F8
7C0000F8
3E0001F0
3E0001F0
1F0003E0
1F0003E0
0F8007C0
0F8007C0
07C00F80
07C00F80
03E01F00
03E01F00
01F03E00
01F03E00
00F87C00
00F87C00
007CF800
007CF800
003FF000
003FF000
001FE000
001FE000
000FC000
000FC000
00078000
00078000
00078000
00078000
00078000
00078000
00078000
00078000
00078000
00078000
00078000
00078000
00078000
00078000
ENDCHAR
STARTCHAR 0179
ENCODING 377
SWIDTH 612 0
DWIDTH 34 0
BBX 27 53 3 0
BITMAP
00003E00
00007C00
0000F800
0000F800
0001F000
0001E000
0003E000
0003C000
00078000
00078000
00000000
00000000
00000000
00000000
FFFFFFE0
FFFFFFE0
FFFFFFE0
FFFFFFE0
FFFFFFE0
000007E0
00000FC0
00001F80
00001F80
00003F00
00007E00
00007C00
0000FC00
0001F800
0003F000
0003E000
0007E000
000FC000
000F8000
001F8000
003F0000
007E0000
007C0000
00FC0000
01F80000
03F00000
03E00000
07E00000
0FC00000
0F800000
1F800000
3F000000
7E000000
7C000000
FC000000
FFFFFFE0
FFFFFFE0
FFFFFFE0
FFFFFFE0
ENDCHAR
STARTCHAR 017A
ENCODING 378
SWIDTH 486 0
DWIDTH 27 0
BBX 22 43 3 0
BITMAP
0001F0
0003E0
0007C0
0007C0
000F80
000F00
001F00
001E00
003C00
003800
000000
000000
000000
000000
7FFFFC
7FFFFC
7FFFFC
7FFFFC
0000FC
0000F8
0001F0
0003E0
0007C0
000FC0
000F80
001F00
003E00
007C00
00FC00
00F800
01F000
03E000
07C000
0FC000
0F8000
1F0000
3E0000
7C0000
FC0000
FFFFFC
FFFFFC
FFFFFC
FFFFFC
ENDCHAR
STARTCHAR 017B
ENCODING 379
SWIDTH 612 0
DWIDTH 34 0
BBX 27 50 3 1
BITMAP
000F0000
001F8000
001F8000
001F8000
000F0000
00060000
00000000
00000000
00000000
00000000
00000000
FFFFFFE0
FFFFFFE0
FFFFFFE0
FFFFFFE0
FFFFFFE0
000007E0
00000FC0
00001F80
00001F80
00003F00
00007E00
00007C00
0000FC00
0001F800
0003F000
0003E000
0007E000
000FC000
000F8000
001F8000
003F0000
007E0000
007C0000
00FC0000
01F80000
03F00000
03E00000
07E00000
0FC00000
0F800000
1F800000
3F000000
7E000000
7C000000
FC000000
FFFFFFE0
FFFFFFE0
FFFFFFE0
FFFFFFE0
ENDCHAR
STARTCHAR 017C
ENCODING 380
SWIDTH 486 0
DWIDTH 27 0
BBX 22 41 3 0
BITMAP
007800
00FC00
00FC00
00FC00
00FC00
007800
000000
000000
000000
000000
000000
000000
7FFFFC
7FFFFC
7FFFFC
7FFFFC
0000FC
0000F8
0001F0
0003E0
0007C0
000FC0
000F80
001F00
003E00
007C00
00FC00
00F800
01F000
03E000
07C000
0FC000
0F8000
1F0000
3E0000
7C0000
FC0000
FFFFFC
FFFFFC
FFFFFC
FFFFFC
ENDCHAR
STARTCHAR 017D
ENCODING 381
SWIDTH 612 0
DWIDTH 34 0
BBX 27 51 3 0
BITMAP
07C03E00
03C03C00
01E07800
01F0F800
00F9F000
007FE000
003FC000
001F8000
00000000
00000000
00000000
00000000
FFFFFFE0
FFFFFFE0
FFFFFFE0
FFFFFFE0
FFFFFFE0
000007E0
00000FC0
00001F80
00001F80
00003F00
00007E00
00007C00
0000FC00
0001F800
0003F000
0003E000
0007E000
000FC000
000F8000
001F8000
003F0000
007E0000
007C0000
00FC0000
01F80000
03F00000
03E00000
07E00000
0FC00000
0F800000
1F800000
3F000000
7E000000
7C000000
FC000000
FFFFFFE0
FFFFFFE0
FFFFFFE0
FFFFFFE0
ENDCHAR
STARTCHAR 017E
ENCODING 382
SWIDTH 486 0
DWIDTH 27 0
BBX 22 41 3 0
BITMAP
3E01F0
1F03E0
0F87C0
07C780
03EF00
01FF00
00FE00
007C00
000000
000000
000000
000000
7FFFFC
7FFFFC
7FFFFC
7FFFFC
0000FC
0000F8
0001F0
0003E0
0007C0
000FC0
000F80
001F00
003E00
007C00
00FC00
00F800
01F000
03E000
07C000
0FC000
0F8000
1F0000
3E0000
7C0000
FC0000
FFFFFC
FFFFFC
FFFFFC
FFFFFC
ENDCHAR
STARTCHAR 01A0
ENCODING 416
SWIDTH 720 0
DWIDTH 40 0
BBX 35 44 3 0
BITMAP
0000000F00
0000000F00
0000000F00
0000000F00
0003F81F00
001FFFFE00
007FFFFC00
01FFFFF000
03FFFFF800
07F803FC00
0FE000FE00
1FC0007E00
1F80003F00
3F00001F80
3E00000F80
7E00000F80
7C00000FC0
7C000007C0
FC000007C0
F8000007C0
F8000003E0
F8000003E0
F8000003E0
F8000003E0
F8000003E0
F8000003E0
F8000003E0
F8000003E0
F8000003E0
F8000007C0
FC000007C0
7C000007C0
7C00000FC0
7E00000F80
3E00001F80
3F00001F00
1F80003F00
1FC0007E00
0FF001FE00
07FC07FC00
03FFFFF800
01FFFFE000
007FFFC000
001FFE0000
ENDCHAR
STARTCHAR 01A1
ENCODING 417
SWIDTH 594 0
DWIDTH 33 0
BBX 27 34 3 0
BITMAP
000000E0
000000E0
000001E0
000001E0
007FC3E0
01FFFFC0
07FFFF80
0FFFFE00
1FE0FF00
1F803F00
3F001F80
7E000FC0
7C0007C0
7C0007C0
F80003E0
F80003E0
F80003E0
F80003E0
F80003E0
F80003E0
F80003E0
F80003E0
F80003E0
F80003E0
7C0007C0
7C0007C0
7E000FC0
3E000F80
3F001F80
1FC07F00
0FFFFE00
07FFFC00
03FFF800
00FFE000
ENDCHAR
STARTCHAR 01AF
ENCODING 431
SWIDTH 684 0
DWIDTH 38 0
BBX 36 45 4 -1
BITMAP
0000000070
0000000070
00000000F0
00000000F0
00000000F0
F000003FE0
F000003FC0
F000003E00
F000003C00
F000003C00
F000003C00
F000003C00
F000003C00
F000003C00
F000003C00
F000003C00
F000003C00
F000003C00
F000003C00
F000003C00
F000003C00
F000003C00
F000003C00
F000003C00
F000003C00
F000003C00
F000003C00
F000003C00
F000003C00
F000007C00
F800007C00
F800007C00
F800007C00
F80000FC00
7C0000F800
7C0000F800
7E0001F800
3F0003F000
1F8007E000
1FF01FE000
0FFFFFC000
07FFFF8000
01FFFE0000
007FF80000
0003000000
ENDCHAR
STARTCHAR 01B0
ENCODING 432
SWIDTH 594 0
DWIDTH 33 0
BBX 32 35 4 -1
BITMAP
0000000F
0000000F
0000000F
0000000F
0000003E
F80007FE
F80007F8
F80007C0
F80007C0
F80007C0
F80007C0
F80007C0
F80007C0
F80007C0
F80007C0
F80007C0
F80007C0
F80007C0
F80007C0
F80007C0
F80007C0
F80007C0
F80007C0
F80007C0
F8000FC0
7C000FC0
7C000FC0
7E001FC0
7F0037C0
3F80F7C0
1FFFE7C0
1FFFC7C0
07FF87C0
03FF07C0
00200000
ENDCHAR
STARTCHAR 02C6
ENCODING 710
SWIDTH 396 0
DWIDTH 22 0
BBX 17 8 3 33
BITMAP
03E000
07F000
0FF800
1F7C00
3E3E00
7C1F00
F80F00
F00F80
ENDCHAR
STARTCHAR 02C7
ENCODING 711
SWIDTH 396 0
DWIDTH 22 0
BBX 18 8 2 33
BITMAP
F807C0
7C0F80
3E1F00
1F3E00
0FFC00
07F800
03F800
03F000
ENDCHAR
STARTCHAR 02D8
ENCODING 728
SWIDTH 396 0
DWIDTH 22 0
BBX 18 6 2 34
BITMAP
F003C0
F807C0
7C0F80
3FFF00
1FFE00
07F800
ENDCHAR
STARTCHAR 02D9
ENCODING 729
SWIDTH 162 0
DWIDTH 9 0
BBX 6 6 2 35
BITMAP
78
FC
FC
FC
FC
78
ENDCHAR
STARTCHAR 02DA
ENCODING 730
SWIDTH 234 0
DWIDTH 13 0
BBX 9 10 2 34
BITMAP
1C00
7F00
FF80
C180
C180
C180
C180
E380
7F00
3E00
ENDCHAR
STARTCHAR 02DB
ENCODING 731
SWIDTH 198 0
DWIDTH 11 0
BBX 8 10 2 -10
BITMAP
18
3C
78
F0
E0
E0
E0
FD
7F
3F
ENDCHAR
STARTCHAR 02DC
ENCODING 732
SWIDTH 378 0
DWIDTH 21 0
BBX 16 7 3 34
BITMAP
0C07
7F07
7F8E
FFFE
E3FE
E0FC
E020
ENDCHAR
STARTCHAR 0300
ENCODING 768
SWIDTH 0 0
DWIDTH 0 0
BBX 10 10 -13 35
BITMAP
F800
7C00
3C00
3E00
1F00
0F00
0F80
0780
03C0
03C0
ENDCHAR
STARTCHAR 0301
ENCODING 769
SWIDTH 0 0
DWIDTH 0 0
BBX 10 10 -10 35
BITMAP
07C0
0F80
0F00
1F00
3E00
3C00
7C00
7800
F000
F000
ENDCHAR
STARTCHAR 0302
ENCODING 770
SWIDTH 0 0
DWIDTH 0 0
BBX 18 8 -19 33
BITMAP
03E000
07F000
0FF800
1F7C00
3E3E00
3C1F00
780F80
F807C0
ENDCHAR
STARTCHAR 0303
ENCODING 771
SWIDTH 0 0
DWIDTH 0 0
BBX 15 7 -17 34
BITMAP
080E
7E0E
FF8E
FFFE
E3FE
C0FC
C020
ENDCHAR
STARTCHAR 0304
ENCODING 772
SWIDTH 0 0
DWIDTH 0 0
BBX 17 2 -20 36
BITMAP
FFFF80
FFFF80
ENDCHAR
STARTCHAR 0306
ENCODING 774
SWIDTH 0 0
DWIDTH 0 0
BBX 19 6 -20 34
BITMAP
F003E0
F803C0
7C0F80
3FFF00
1FFE00
07F800
ENDCHAR
STARTCHAR 0307
ENCODING 775
SWIDTH 0 0
DWIDTH 0 0
BBX 6 6 -10 35
BITMAP
78
FC
FC
FC
FC
78
ENDCHAR
STARTCHAR 0308
ENCODING 776
SWIDTH 0 0
DWIDTH 0 0
BBX 17 6 -21 35
BITMAP
380700
7C1F80
FC1F80
FC1F80
FC1F80
780F00
ENDCHAR
STARTCHAR 0309
ENCODING 777
SWIDTH 0 0
DWIDTH 0 0
BBX 12 10 -14 35
BITMAP
0F80
3FE0
7FF0
78F0
F070
0070
00F0
00E0
03C0
0780
ENDCHAR
STARTCHAR 030A
ENCODING 778
SWIDTH 0 0
DWIDTH 0 0
BBX 9 10 -12 34
BITMAP
1C00
7F00
FF00
C380
C180
C180
C380
E780
7F00
3E00
ENDCHAR
STARTCHAR 030C
ENCODING 780
SWIDTH 0 0
DWIDTH 0 0
BBX 17 8 -20 33
BITMAP
F00780
780F80
7C1F00
3E3E00
1F7C00
0FF800
07F000
03E000
ENDCHAR
STARTCHAR 031B
ENCODING 795
SWIDTH 0 0
DWIDTH 0 0
BBX 9 7 -11 31
BITMAP
0380
0380
0780
0780
0780
FF00
FE00
ENDCHAR
STARTCHAR 0323
ENCODING 803
SWIDTH 0 0
DWIDTH 0 0
BBX 6 6 -7 -12
BITMAP
38
7C
FC
FC
FC
78
ENDCHAR
STARTCHAR 0327
ENCODING 807
SWIDTH 0 0
DWIDTH 0 0
BBX 10 14 -12 -14
BITMAP
3000
7000
7000
7E00
FF80
FFC0
01C0
00C0
00C0
01C0
03C0
7F80
7F00
7C00
ENDCHAR
STARTCHAR 0328
ENCODING 808
SWIDTH 0 0
DWIDTH 0 0
BBX 8 10 -10 -10
BITMAP
18
7C
F0
F0
E0
E0
E0
FF
7F
3F
ENDCHAR
STARTCHAR 1E80
ENCODING 7808
SWIDTH 990 0
DWIDTH 55 0
BBX 53 53 1 0
BITMAP
00003E00000000
00001F00000000
00001F00000000
00000F80000000
00000780000000
000007C0000000
000003C0000000
000001E0000000
000001E0000000
000000F0000000
00000000000000
00000000000000
00000000000000
00000000000000
F80000F80000F8
F80000F80000F8
F80000FC0000F8
7C0001FC0000F0
7C0001FC0001F0
7C0001FE0001F0
3C0003FE0001F0
3E0003FE0001E0
3E0003FE0003E0
3E0007DF0003E0
1E0007DF0003E0
1F00078F0003C0
1F000F8F8007C0
1F000F8F8007C0
0F000F07800780
0F801F07C00F80
0F801F07C00F80
0F801F03C00F80
07803E03E00F00
07C03E03E01F00
07C03E01E01F00
03C07C01F01F00
03C07C01F01E00
03E07C00F03E00
03E0F800F83E00
01E0F800F83E00
01F0F800783C00
01F1F0007C7C00
01F1F0007C7C00
00F1F0003C7800
00FBE0003E7800
00FBE0003EF800
00FBE0003EF800
007FC0001FF000
007FC0001FF000
007FC0001FF000
003F80000FF000
003F80000FE000
003F80000FE000
ENDCHAR
STARTCHAR 1E81
ENCODING 7809
SWIDTH 810 0
DWIDTH 45 0
BBX 41 43 2 0
BITMAP
000F80000000
0007C0000000
0003E0000000
0003E0000000
0001F0000000
0000F0000000
0000F8000000
000078000000
00003C000000
00003C000000
000000000000
000000000000
000000000000
000000000000
F8003E000780
F8003E000780
78003F000F80
78007F000F80
7C007F000F00
7C007F800F00
3C00FF801F00
3E00FF801E00
3E00F7C01E00
1E00F3C03E00
1E01F3C03E00
1F01E3E03C00
1F01E3E03C00
0F03E1E07C00
0F03C1F07C00
0F83C1F07800
0F87C0F07800
0787C0F0F800
078780F8F000
07CF8078F000
03CF8078F000
03CF007DF000
03EF007DE000
03FF003DE000
01FE003FE000
01FE003FE000
01FE001FC000
00FE001FC000
00FC001FC000
ENDCHAR
STARTCHAR 1E82
ENCODING 7810
SWIDTH 990 0
DWIDTH 55 0
BBX 53 53 1 0
BITMAP
00000003E00000
00000003E00000
00000007C00000
0000000F800000
0000000F800000
0000001F000000
0000001E000000
0000003C000000
0000003C000000
00000078000000
00000000000000
00000000000000
00000000000000
00000000000000
F80000F80000F8
F80000F80000F8
F80000FC0000F8
7C0001FC0000F0
7C0001FC0001F0
7C0001FE0001F0
3C0003FE0001F0
3E0003FE0001E0
3E0003FE0003E0
3E0007DF0003E0
1E0007DF0003E0
1F00078F0003C0
1F000F8F8007C0
1F000F8F8007C0
0F000F07800780
0F801F07C00F80
0F801F07C00F80
0F801F03C00F80
07803E03E00F00
07C03E03E01F00
07C03E01E01F00
03C07C01F01F00
03C07C01F01E00
03E07C00F03E00
03E0F800F83E00
01E0F800F83E00
01F0F800783C00
01F1F0007C7C00
01F1F0007C7C00
00F1F0003C7800
00FBE0003E7800
00FBE0003EF800
00FBE0003EF800
007FC0001FF000
007FC0001FF000
007FC0001FF000
003F80000FF000
003F80000FE000
003F80000FE000
ENDCHAR
STARTCHAR 1E83
ENCODING 7811
SWIDTH 810 0
DWIDTH 45 0
BBX 41 43 2 0
BITMAP
000000F80000
000000F00000
000001F00000
000003E00000
000003C00000
000007C00000
000007800000
00000F000000
00000F000000
00001E000000
000000000000
000000000000
000000000000
000000000000
F8003E000780
F8003E000780
78003F000F80
78007F000F80
7C007F000F00
7C007F800F00
3C00FF801F00
3E00FF801E00
3E00F7C01E00
1E00F3C03E00
1E01F3C03E00
1F01E3E03C00
1F01E3E03C00
0F03E1E07C00
0F03C1F07C00
0F83C1F07800
0F87C0F07800
0787C0F0F800
078780F8F000
07CF8078F000
03CF8078F000
03CF007DF000
03EF007DE000
03FF003DE000
01FE003FE000
01FE003FE000
01FE001FC000
00FE001FC000
00FC001FC000
ENDCHAR
STARTCHAR 1E84
ENCODING 7812
SWIDTH 990 0
DWIDTH 55 0
BBX 53 51 1 0
BITMAP
00000401000000
00001F03C00000
00003F07E00000
00003F07E00000
00003F07E00000
00001F03E00000
00000C01800000
00000000000000
00000000000000
00000000000000
00000000000000
00000000000000
F80000F80000F8
F80000F80000F8
F80000FC0000F8
7C0001FC0000F0
7C0001FC0001F0
7C0001FE0001F0
3C0003FE0001F0
3E0003FE0001E0
3E0003FE0003E0
3E0007DF0003E0
1E0007DF0003E0
1F00078F0003C0
1F000F8F8007C0
1F000F8F8007C0
0F000F07800780
0F801F07C00F80
0F801F07C00F80
0F801F03C00F80
07803E03E00F00
07C03E03E01F00
07C03E01E01F00
03C07C01F01F00
03C07C01F01E00
03E07C00F03E00
03E0F800F83E00
01E0F800F83E00
01F0F800783C00
01F1F0007C7C00
01F1F0007C7C00
00F1F0003C7800
00FBE0003E7800
00FBE0003EF800
00FBE0003EF800
007FC0001FF000
007FC0001FF000
007FC0001FF000
003F80000FF000
003F80000FE000
003F80000FE000
ENDCHAR
STARTCHAR 1E85
ENCODING 7813
SWIDTH 810 0
DWIDTH 45 0
BBX 41 41 2 0
BITMAP
000380700000
0007C0F80000
000FC1F80000
000FE1F80000
0007C1F80000
000780F00000
000000000000
000000000000
000000000000
000000000000
000000000000
000000000000
F8003E000780
F8003E000780
78003F000F80
78007F000F80
7C007F000F00
7C007F800F00
3C00FF801F00
3E00FF801E00
3E00F7C01E00
1E00F3C03E00
1E01F3C03E00
1F01E3E03C00
1F01E3E03C00
0F03E1E07C00
0F03C1F07C00
0F83C1F07800
0F87C0F07800
0787C0F0F800
078780F8F000
07CF8078F000
03CF8078F000
03CF007DF000
03EF007DE000
03FF003DE000
01FE003FE000
01FE003FE000
01FE001FC000
00FE001FC000
00FC001FC000
ENDCHAR
STARTCHAR 1EA0
ENCODING 7840
SWIDTH 666 0
DWIDTH 37 0
BBX 34 51 2 -12
BITMAP
0003E00000
0003F00000
0003F00000
0007F00000
0007F80000
0007F80000
000FFC0000
000F7C0000
001F3C0000
001F3E0000
001E1E0000
003E1E0000
003C1F0000
003C0F0000
007C0F8000
00780F8000
00F8078000
00F807C000
00F007C000
01F003E000
01F003E000
01E001E000
03E001F000
03E001F000
07FFFFF000
07FFFFF800
07FFFFF800
0FFFFFFC00
0F80007C00
0F00003C00
1F00003E00
1F00003E00
3E00001E00
3E00001F00
3E00001F00
7C00000F80
7C00000F80
7800000F80
F8000007C0
0000000000
0000000000
0000000000
0000000000
0000000000
0000000000
0001C00000
0003E00000
0003F00000
0003F00000
0003F00000
0001E00000
ENDCHAR
STARTCHAR 1EA1
ENCODING 7841
SWIDTH 612 0
DWIDTH 34 0
BBX 27 42 3 -12
BITMAP
00FF0000
03FFC3E0
07FFE3E0
0FFFF3E0
1FC0FBE0
3F003FE0
7E001FE0
7E000FE0
7C0007E0
F80007E0
F80003E0
F80003E0
F80003E0
F80003E0
F80003E0
F80003E0
F80003E0
F80003E0
F80003E0
F80003E0
F80007E0
7C0007E0
7C000FE0
7E000FE0
3F001FE0
3FC07BE0
1FFFF3E0
0FFFE3E0
07FFC3E0
01FF03E0
00000000
00000000
00000000
00000000
00000000
00000000
00070000
000F8000
001F8000
001F8000
001F8000
000F0000
ENDCHAR
STARTCHAR 1EA2
ENCODING 7842
SWIDTH 666 0
DWIDTH 37 0
BBX 34 53 2 0
BITMAP
0003F00000
000FF80000
000FFC0000
001E1E0000
001E1E0000
00001E0000
00001C0000
00003C0000
0000F80000
0001E00000
0000000000
0000000000
0000000000
0000000000
0003E00000
0003F00000
0003F00000
0007F00000
0007F80000
0007F80000
000FFC0000
000F7C0000
001F3C0000
001F3E0000
001E1E0000
003E1E0000
003C1F0000
003C0F0000
007C0F8000
00780F8000
00F8078000
00F807C000
00F007C000
01F003E000
01F003E000
01E001E000
03E001F000
03E001F000
07FFFFF000
07FFFFF800
07FFFFF800
0FFFFFFC00
0F80007C00
0F00003C00
1F00003E00
1F00003E00
3E00001E00
3E00001F00
3E00001F00
7C00000F80
7C00000F80
7800000F80
F8000007C0
ENDCHAR
STARTCHAR 1EA3
ENCODING 7843
SWIDTH 612 0
DWIDTH 34 0
BBX 27 44 3 0
BITMAP
00020000
003FC000
007FE000
0079F000
00F0F000
0000F000
0000F000
0000E000
0003C000
00078000
000F0000
00000000
00000000
00000000
00FF0000
03FFC3E0
07FFE3E0
0FFFF3E0
1FC0FBE0
3F003FE0
7E001FE0
7E000FE0
7C0007E0
F80007E0
F80003E0
F80003E0
F80003E0
F80003E0
F80003E0
F80003E0
F80003E0
F80003E0
F80003E0
F80003E0
F80007E0
7C0007E0
7C000FE0
7E000FE0
3F001FE0
3FC07BE0
1FFFF3E0
0FFFE3E0
07FFC3E0
01FF03E0
ENDCHAR
STARTCHAR 1EA4
ENCODING 7844
SWIDTH 666 0
DWIDTH 37 0
BBX 34 59 2 0
BITMAP
0000000FC0
0000000F80
0000001F00
0000001E00
0000003E00
0000003C00
0000007800
0000007800
0001E0F000
0003F0E000
0007F80000
000FFC0000
001F3E0000
003E1F0000
007C0F8000
00F8078000
0000004000
0000000000
0000000000
0000000000
0003E00000
0003F00000
0003F00000
0007F00000
0007F80000
0007F80000
000FFC0000
000F7C0000
001F3C0000
001F3E0000
001E1E0000
003E1E0000
003C1F0000
003C0F0000
007C0F8000
00780F8000
00F8078000
00F807C000
00F007C000
01F003E000
01F003E000
01E001E000
03E001F000
03E001F000
07FFFFF000
07FFFFF800
07FFFFF800
0FFFFFFC00
0F80007C00
0F00003C00
1F00003E00
1F00003E00
3E00001E00
3E00001F00
3E00001F00
7C00000F80
7C00000F80
7800000F80
F8000007C0
ENDCHAR
STARTCHAR 1EA5
ENCODING 7845
SWIDTH 612 0
DWIDTH 34 0
BBX 31 50 3 0
BITMAP
0000003E
0000007C
0000007C
000000F8
000000F0
000001F0
000001E0
000003C0
000003C0
001F8780
001FC000
003FC000
0079E000
00F9F000
01F0F800
03E07C00
07C03E00
00000000
00000000
00000000
00FF0000
03FFC3E0
07FFE3E0
0FFFF3E0
1FC0FBE0
3F003FE0
7E001FE0
7E000FE0
7C0007E0
F80007E0
F80003E0
F80003E0
F80003E0
F80003E0
F80003E0
F80003E0
F80003E0
F80003E0
F80003E0
F80003E0
F80007E0
7C0007E0
7C000FE0
7E000FE0
3F001FE0
3FC07BE0
1FFFF3E0
0FFFE3E0
07FFC3E0
01FF03E0
ENDCHAR
STARTCHAR 1EA6
ENCODING 7846
SWIDTH 666 0
DWIDTH 37 0
BBX 34 59 2 0
BITMAP
00007E0000
00003E0000
00001F0000
00000F0000
00000F8000
0000078000
000003C000
000003C000
0001E1E000
0003F0F000
0007F80000
000FFC0000
001F3E0000
003E1F0000
007C0F8000
00F8078000
0000004000
0000000000
0000000000
0000000000
0003E00000
0003F00000
0003F00000
0007F00000
0007F80000
0007F80000
000FFC0000
000F7C0000
001F3C0000
001F3E0000
001E1E0000
003E1E0000
003C1F0000
003C0F0000
007C0F8000
00780F8000
00F8078000
00F807C000
00F007C000
01F003E000
01F003E000
01E001E000
03E001F000
03E001F000
07FFFFF000
07FFFFF800
07FFFFF800
0FFFFFFC00
0F80007C00
0F00003C00
1F00003E00
1F00003E00
3E00001E00
3E00001F00
3E00001F00
7C00000F80
7C00000F80
7800000F80
F8000007C0
ENDCHAR
STARTCHAR 1EA7
ENCODING 7847
SWIDTH 612 0
DWIDTH 34 0
BBX 27 50 3 0
BITMAP
0003E000
0001F000
0000F800
0000F800
00007C00
00003C00
00003E00
00001E00
00000F00
001F8F00
001FC000
003FC000
0079E000
00F9F000
01F0F800
03E07C00
07C03E00
00000000
00000000
00000000
00FF0000
03FFC3E0
07FFE3E0
0FFFF3E0
1FC0FBE0
3F003FE0
7E001FE0
7E000FE0
7C0007E0
F80007E0
F80003E0
F80003E0
F80003E0
F80003E0
F80003E0
F80003E0
F80003E0
F80003E0
F80003E0
F80003E0
F80007E0
7C0007E0
7C000FE0
7E000FE0
3F001FE0
3FC07BE0
1FFFF3E0
0FFFE3E0
07FFC3E0
01FF03E0
ENDCHAR
STARTCHAR 1EA8
ENCODING 7848
SWIDTH 666 0
DWIDTH 37 0
BBX 34 60 2 0
BITMAP
000003F000
000007FC00
00000FFE00
00000F1E00
00001E0E00
0000000E00
0000001E00
0000003C00
0000007800
0001E0F000
0003F00000
0007F80000
000FFC0000
001F3E0000
003E1F0000
007C0F8000
00F8078000
0000004000
0000000000
0000000000
0000000000
0003E00000
0003F00000
0003F00000
0007F00000
0007F80000
0007F80000
000FFC0000
000F7C0000
001F3C0000
001F3E0000
001E1E0000
003E1E0000
003C1F0000
003C0F0000
007C0F8000
00780F8000
00F8078000
00F807C000
00F007C000
01F003E000
01F003E000
01E001E000
03E001F000
03E001F000
07FFFFF000
07FFFFF800
07FFFFF800
0FFFFFFC00
0F80007C00
0F00003C00
1F00003E00
1F00003E00
3E00001E00
3E00001F00
3E00001F00
7C00000F80
7C00000F80
7800000F80
F8000007C0
ENDCHAR
STARTCHAR 1EA9
ENCODING 7849
SWIDTH 612 0
DWIDTH 34 0
BBX 28 50 3 0
BITMAP
00001FC0
00003FF0
00007DF0
00007870
00000070
00000070
000000F0
000001E0
000003C0
001F8780
001FC000
003FC000
007DE000
00F9F000
01F0F800
03E07C00
07C03E00
00000000
00000000
00000000
00FF0000
03FFC3E0
07FFE3E0
0FFFF3E0
1FC0FBE0
3F003FE0
7E001FE0
7E000FE0
7C0007E0
F80007E0
F80003E0
F80003E0
F80003E0
F80003E0
F80003E0
F80003E0
F80003E0
F80003E0
F80003E0
F80003E0
F80007E0
7C0007E0
7C000FE0
7E000FE0
3F001FE0
3FC07BE0
1FFFF3E0
0FFFE3E0
07FFC3E0
01FF03E0
ENDCHAR
STARTCHAR 1EAA
ENCODING 7850
SWIDTH 666 0
DWIDTH 37 0
BBX 34 59 2 0
BITMAP
000E038000
003F838000
003FE78000
007BFF0000
0070FF0000
00703E0000
0000000000
0000000000
0001E00000
0003F00000
0007F80000
000FFC0000
001F3E0000
003E1F0000
007C0F0000
00F8078000
0000004000
0000000000
0000000000
0000000000
0003E00000
0003F00000
0003F00000
0007F00000
0007F80000
0007F80000
000FFC0000
000F7C0000
001F3C0000
001F3E0000
001E1E0000
003E1E0000
003C1F0000
003C0F0000
007C0F8000
00780F8000
00F8078000
00F807C000
00F007C000
01F003E000
01F003E000
01E001E000
03E001F000
03E001F000
07FFFFF000
07FFFFF800
07FFFFF800
0FFFFFFC00
0F80007C00
0F00003C00
1F00003E00
1F00003E00
3E00001E00
3E00001F00
3E00001F00
7C00000F80
7C00000F80
7800000F80
F8000007C0
ENDCHAR
STARTCHAR 1EAB
ENCODING 7851
SWIDTH 612 0
DWIDTH 34 0
BBX 27 49 3 0
BITMAP
00F81C00
01FE1C00
01FFBC00
03CFF800
0383F800
0380E000
00000000
00000000
001F8000
001FC000
003FC000
0079E000
00F9F000
01F0F800
03E07C00
07C03E00
00000000
00000000
00000000
00FF0000
03FFC3E0
07FFE3E0
0FFFF3E0
1FC0FBE0
3F003FE0
7E001FE0
7E000FE0
7C0007E0
F80007E0
F80003E0
F80003E0
F80003E0
F80003E0
F80003E0
F80003E0
F80003E0
F80003E0
F80003E0
F80003E0
F80007E0
7C0007E0
7C000FE0
7E000FE0
3F001FE0
3FC07BE0
1FFFF3E0
0FFFE3E0
07FFC3E0
01FF03E0
ENDCHAR
STARTCHAR 1EAC
ENCODING 7852
SWIDTH 666 0
DWIDTH 37 0
BBX 34 63 2 -12
BITMAP
0001E00000
0003F00000
0007F80000
000FFC0000
001F3E0000
003E1F0000
007C0F0000
00F8078000
0000004000
0000000000
0000000000
0000000000
0003E00000
0003F00000
0003F00000
0007F00000
0007F80000
0007F80000
000FFC0000
000F7C0000
001F3C0000
001F3E0000
001E1E0000
003E1E0000
003C1F0000
003C0F0000
007C0F8000
00780F8000
00F8078000
00F807C000
00F007C000
01F003E000
01F003E000
01E001E000
03E001F000
03E001F000
07FFFFF000
07FFFFF800
07FFFFF800
0FFFFFFC00
0F80007C00
0F00003C00
1F00003E00
1F00003E00
3E00001E00
3E00001F00
3E00001F00
7C00000F80
7C00000F80
7800000F80
F8000007C0
0000000000
0000000000
0000000000
0000000000
0000000000
0000000000
0001C00000
0003E00000
0003F00000
0003F00000
0003F00000
0001E00000
ENDCHAR
STARTCHAR 1EAD
ENCODING 7853
SWIDTH 612 0
DWIDTH 34 0
BBX 27 53 3 -12
BITMAP
001F8000
001FC000
003FC000
0079E000
00F9F000
01F0F800
03E07C00
07C03E00
00000000
00000000
00000000
00FF0000
03FFC3E0
07FFE3E0
0FFFF3E0
1FC0FBE0
3F003FE0
7E001FE0
7E000FE0
7C0007E0
F80007E0
F80003E0
F80003E0
F80003E0
F80003E0
F80003E0
F80003E0
F80003E0
F80003E0
F80003E0
F80003E0
F80007E0
7C0007E0
7C000FE0
7E000FE0
3F001FE0
3FC07BE0
1FFFF3E0
0FFFE3E0
07FFC3E0
01FF03E0
00000000
00000000
00000000
00000000
00000000
00000000
00070000
000F8000
001F8000
001F8000
001F8000
000F0000
ENDCHAR
STARTCHAR 1EAE
ENCODING 7854
SWIDTH 666 0
DWIDTH 37 0
BBX 34 61 2 0
BITMAP
00000FC000
00000F8000
00001F0000
00001F0000
00003E0000
00003C0000
00007C0000
0000780000
0000F00000
0000F00000
0000000000
0000000000
00F003C000
0078078000
007E3F0000
003FFE0000
000FFC0000
0000C00000
0000000000
0000000000
0000000000
0000000000
0003E00000
0003F00000
0003F00000
0007F00000
0007F80000
0007F80000
000FFC0000
000F7C0000
001F3C0000
001F3E0000
001E1E0000
003E1E0000
003C1F0000
003C0F0000
007C0F8000
00780F8000
00F8078000
00F807C000
00F007C000
01F003E000
01F003E000
01E001E000
03E001F000
03E001F000
07FFFFF000
07FFFFF800
07FFFFF800
0FFFFFFC00
0F80007C00
0F00003C00
1F00003E00
1F00003E00
3E00001E00
3E00001F00
3E00001F00
7C00000F80
7C00000F80
7800000F80
F8000007C0
ENDCHAR
STARTCHAR 1EAF
ENCODING 7855
SWIDTH 612 0
DWIDTH 34 0
BBX 27 51 3 0
BITMAP
00007C00
00007C00
0000F800
0000F000
0001F000
0001E000
0003C000
0003C000
00078000
000F0000
00000000
07801E00
07C03E00
03E07C00
01FFF800
00FFF000
003FC000
00000000
00000000
00000000
00000000
00FF0000
03FFC3E0
07FFE3E0
0FFFF3E0
1FC0FBE0
3F003FE0
7E001FE0
7E000FE0
7C0007E0
F80007E0
F80003E0
F80003E0
F80003E0
F80003E0
F80003E0
F80003E0
F80003E0
F80003E0
F80003E0
F80003E0
F80007E0
7C0007E0
7C000FE0
7E000FE0
3F001FE0
3FC07BE0
1FFFF3E0
0FFFE3E0
07FFC3E0
01FF03E0
ENDCHAR
STARTCHAR 1EB0
ENCODING 7856
SWIDTH 666 0
DWIDTH 37 0
BBX 34 61 2 0
BITMAP
00F8000000
007C000000
003E000000
003E000000
001F000000
000F000000
000F800000
0007800000
0003C00000
0003C00000
0000000000
0000000000
00F003C000
0078078000
003F1F8000
001FFE0000
000FFC0000
0000C00000
0000000000
0000000000
0000000000
0000000000
0003E00000
0003F00000
0003F00000
0007F00000
0007F80000
0007F80000
000FFC0000
000F7C0000
001F3C0000
001F3E0000
001E1E0000
003E1E0000
003C1F0000
003C0F0000
007C0F8000
00780F8000
00F8078000
00F807C000
00F007C000
01F003E000
01F003E000
01E001E000
03E001F000
03E001F000
07FFFFF000
07FFFFF800
07FFFFF800
0FFFFFFC00
0F80007C00
0F00003C00
1F00003E00
1F00003E00
3E00001E00
3E00001F00
3E00001F00
7C00000F80
7C00000F80
7800000F80
F8000007C0
ENDCHAR
STARTCHAR 1EB1
ENCODING 7857
SWIDTH 612 0
DWIDTH 34 0
BBX 27 51 3 0
BITMAP
03E00000
03E00000
01F00000
00F00000
00780000
007C0000
003C0000
001E0000
001E0000
000F0000
00000000
07801F00
07C01E00
03E07C00
01FFF800
00FFF000
003FC000
00000000
00000000
00000000
00000000
00FF0000
03FFC3E0
07FFE3E0
0FFFF3E0
1FC0FBE0
3F003FE0
7E001FE0
7E000FE0
7C0007E0
F80007E0
F80003E0
F80003E0
F80003E0
F80003E0
F80003E0
F80003E0
F80003E0
F80003E0
F80003E0
F80003E0
F80007E0
7C0007E0
7C000FE0
7E000FE0
3F001FE0
3FC07BE0
1FFFF3E0
0FFFE3E0
07FFC3E0
01FF03E0
ENDCHAR
STARTCHAR 1EB2
ENCODING 7858
SWIDTH 666 0
DWIDTH 37 0
BBX 34 61 2 0
BITMAP
0003F00000
000FF80000
000FFC0000
001E1E0000
001E1E0000
00001E0000
00001C0000
00003C0000
0000780000
0001E00000
0000000000
0000000000
00F003C000
0078078000
007E3F0000
003FFE0000
000FFC0000
0000C00000
0000000000
0000000000
0000000000
0000000000
0003E00000
0003F00000
0003F00000
0007F00000
0007F80000
0007F80000
000FFC0000
000F7C0000
001F3C0000
001F3E0000
001E1E0000
003E1E0000
003C1F0000
003C0F0000
007C0F8000
00780F8000
00F8078000
00F807C000
00F007C000
01F003E000
01F003E000
01E001E000
03E001F000
03E001F000
07FFFFF000
07FFFFF800
07FFFFF800
0FFFFFFC00
0F80007C00
0F00003C00
1F00003E00
1F00003E00
3E00001E00
3E00001F00
3E00001F00
7C00000F80
7C00000F80
7800000F80
F8000007C0
ENDCHAR
STARTCHAR 1EB3
ENCODING 7859
SWIDTH 612 0
DWIDTH 34 0
BBX 27 51 3 0
BITMAP
003FC000
007FE000
007FF000
00F0F000
0000F000
0000F000
0000E000
0003E000
00078000
000F0000
00000000
07801E00
07C03E00
03E07C00
01FFF800
00FFF000
003FC000
00000000
00000000
00000000
00000000
00FF0000
03FFC3E0
07FFE3E0
0FFFF3E0
1FC0FBE0
3F003FE0
7E001FE0
7E000FE0
7C0007E0
F80007E0
F80003E0
F80003E0
F80003E0
F80003E0
F80003E0
F80003E0
F80003E0
F80003E0
F80003E0
F80003E0
F80007E0
7C0007E0
7C000FE0
7E000FE0
3F001FE0
3FC07BE0
1FFFF3E0
0FFFE3E0
07FFC3E0
01FF03E0
ENDCHAR
STARTCHAR 1EB4
ENCODING 7860
SWIDTH 666 0
DWIDTH 37 0
BBX 34 58 2 0
BITMAP
001F038000
003FC38000
007FE70000
0079FF0000
0070FF0000
00703C0000
0000000000
0000000000
0000000000
00F003C000
00F8078000
007E3F0000
003FFE0000
000FFC0000
0000C00000
0000000000
0000000000
0000000000
0000000000
0003E00000
0003F00000
0003F00000
0007F00000
0007F80000
0007F80000
000FFC0000
000F7C0000
001F3C0000
001F3E0000
001E1E0000
003E1E0000
003C1F0000
003C0F0000
007C0F8000
00780F8000
00F8078000
00F807C000
00F007C000
01F003E000
01F003E000
01E001E000
03E001F000
03E001F000
07FFFFF000
07FFFFF800
07FFFFF800
0FFFFFFC00
0F80007C00
0F00003C00
1F00003E00
1F00003E00
3E00001E00
3E00001F00
3E00001F00
7C00000F80
7C00000F80
7800000F80
F8000007C0
ENDCHAR
STARTCHAR 1EB5
ENCODING 7861
SWIDTH 612 0
DWIDTH 34 0
BBX 27 49 3 0
BITMAP
00001C00
00FC1C00
01FE1C00
03FFFC00
0387F800
0383F000
03804000
00000000
00000000
07801E00
07C03E00
03E07C00
01FFF800
00FFF000
003FC000
00000000
00000000
00000000
00000000
00FF0000
03FFC3E0
07FFE3E0
0FFFF3E0
1FC0FBE0
3F003FE0
7E001FE0
7E000FE0
7C0007E0
F80007E0
F80003E0
F80003E0
F80003E0
F80003E0
F80003E0
F80003E0
F80003E0
F80003E0
F80003E0
F80003E0
F80007E0
7C0007E0
7C000FE0
7E000FE0
3F001FE0
3FC07BE0
1FFFF3E0
0FFFE3E0
07FFC3E0
01FF03E0
ENDCHAR
STARTCHAR 1EB6
ENCODING 7862
SWIDTH 666 0
DWIDTH 37 0
BBX 34 61 2 -12
BITMAP
00F003C000
0078078000
007E3F0000
003FFE0000
000FFC0000
0000C00000
0000000000
0000000000
0000000000
0000000000
0003E00000
0003F00000
0003F00000
0007F00000
0007F80000
0007F80000
000FFC0000
000F7C0000
001F3C0000
001F3E0000
001E1E0000
003E1E0000
003C1F0000
003C0F0000
007C0F8000
00780F8000
00F8078000
00F807C000
00F007C000
01F003E000
01F003E000
01E001E000
03E001F000
03E001F000
07FFFFF000
07FFFFF800
07FFFFF800
0FFFFFFC00
0F80007C00
0F00003C00
1F00003E00
1F00003E00
3E00001E00
3E00001F00
3E00001F00
7C00000F80
7C00000F80
7800000F80
F8000007C0
0000000000
0000000000
0000000000
0000000000
0000000000
0000000000
0001C00000
0003E00000
0003F00000
0003F00000
0003F00000
0001E00000
ENDCHAR
STARTCHAR 1EB7
ENCODING 7863
SWIDTH 612 0
DWIDTH 34 0
BBX 27 52 3 -12
BITMAP
07801E00
07C03E00
03E07C00
01FFF800
00FFF000
003FC000
00000000
00000000
00000000
00000000
00FF0000
03FFC3E0
07FFE3E0
0FFFF3E0
1FC0FBE0
3F003FE0
7E001FE0
7E000FE0
7C0007E0
F80007E0
F80003E0
F80003E0
F80003E0
F80003E0
F80003E0
F80003E0
F80003E0
F80003E0
F80003E0
F80003E0
F80007E0
7C0007E0
7C000FE0
7E000FE0
3F001FE0
3FC07BE0
1FFFF3E0
0FFFE3E0
07FFC3E0
01FF03E0
00000000
00000000
00000000
00000000
00000000
00000000
00070000
000F8000
001F8000
001F8000
001F8000
000F0000
ENDCHAR
STARTCHAR 1EB8
ENCODING 7864
SWIDTH 558 0
DWIDTH 31 0
BBX 24 51 4 -12
BITMAP
FFFFFF
FFFFFF
FFFFFF
FFFFFF
F80000
F80000
F80000
F80000
F80000
F80000
F80000
F80000
F80000
F80000
F80000
F80000
F80000
FFFFFC
FFFFFC
FFFFFC
FFFFFC
F80000
F80000
F80000
F80000
F80000
F80000
F80000
F80000
F80000
F80000
F80000
F80000
F80000
F80000
FFFFFF
FFFFFF
FFFFFF
FFFFFF
000000
000000
000000
000000
000000
000000
001C00
003E00
007E00
007E00
007E00
003C00
ENDCHAR
STARTCHAR 1EB9
ENCODING 7865
SWIDTH 576 0
DWIDTH 32 0
BBX 27 42 3 -12
BITMAP
007FC000
01FFF000
07FFFC00
0FFFFE00
1FC07E00
1F001F00
3E000F80
7C000F80
7C0007C0
780007C0
F80007C0
F80003C0
F80003C0
FFFFFFC0
FFFFFFC0
FFFFFFE0
FFFFFFE0
F8000000
F8000000
F8000000
78000000
7C0007C0
7C0007C0
3E000F80
3F001F80
1FC07F00
0FFFFE00
07FFFC00
03FFF800
00FFE000
00000000
00000000
00000000
00000000
00000000
00000000
000E0000
001F0000
001F8000
003F8000
001F0000
001F0000
ENDCHAR
STARTCHAR 1EBA
ENCODING 7866
SWIDTH 558 0
DWIDTH 31 0
BBX 24 53 4 0
BITMAP
007E00
00FF80
01FF80
03C3C0
03C1C0
0003C0
0003C0
000780
000F00
001E00
000000
000000
000000
000000
FFFFFF
FFFFFF
FFFFFF
FFFFFF
F80000
F80000
F80000
F80000
F80000
F80000
F80000
F80000
F80000
F80000
F80000
F80000
F80000
FFFFFC
FFFFFC
FFFFFC
FFFFFC
F80000
F80000
F80000
F80000
F80000
F80000
F80000
F80000
F80000
F80000
F80000
F80000
F80000
F80000
FFFFFF
FFFFFF
FFFFFF
FFFFFF
ENDCHAR
STARTCHAR 1EBB
ENCODING 7867
SWIDTH 576 0
DWIDTH 32 0
BBX 27 44 3 0
BITMAP
00040000
003FC000
007FE000
00F9E000
00F0E000
0000E000
0000E000
0001E000
0003C000
00078000
000F0000
00000000
00000000
00000000
007FC000
01FFF000
07FFFC00
0FFFFE00
1FC07E00
1F001F00
3E000F80
7C000F80
7C0007C0
780007C0
F80007C0
F80003C0
F80003C0
FFFFFFC0
FFFFFFC0
FFFFFFE0
FFFFFFE0
F8000000
F8000000
F8000000
78000000
7C0007C0
7C0007C0
3E000F80
3F001F80
1FC07F00
0FFFFE00
07FFFC00
03FFF800
00FFE000
ENDCHAR
STARTCHAR 1EBC
ENCODING 7868
SWIDTH 558 0
DWIDTH 31 0
BBX 24 50 4 0
BITMAP
03E070
07F870
07FEF0
0F3FE0
0E0FE0
0E0380
000000
000000
000000
000000
000000
FFFFFF
FFFFFF
FFFFFF
FFFFFF
F80000
F80000
F80000
F80000
F80000
F80000
F80000
F80000
F80000
F80000
F80000
F80000
F80000
FFFFFC
FFFFFC
FFFFFC
FFFFFC
F80000
F80000
F80000
F80000
F80000
F80000
F80000
F80000
F80000
F80000
F80000
F80000
F80000
F80000
FFFFFF
FFFFFF
FFFFFF
FFFFFF
ENDCHAR
STARTCHAR 1EBD
ENCODING 7869
SWIDTH 576 0
DWIDTH 32 0
BBX 27 41 3 0
BITMAP
00201800
01F81800
03FE3800
03FFF800
038FF800
0383F000
03808000
00000000
00000000
00000000
00000000
007FC000
01FFF000
07FFFC00
0FFFFE00
1FC07E00
1F001F00
3E000F80
7C000F80
7C0007C0
780007C0
F80007C0
F80003C0
F80003C0
FFFFFFC0
FFFFFFC0
FFFFFFE0
FFFFFFE0
F8000000
F8000000
F8000000
78000000
7C0007C0
7C0007C0
3E000F80
3F001F80
1FC07F00
0FFFFE00
07FFFC00
03FFF800
00FFE000
ENDCHAR
STARTCHAR 1EBE
ENCODING 7870
SWIDTH 558 0
DWIDTH 31 0
BBX 29 59 4 0
BITMAP
000000F8
000001F0
000001E0
000003E0
000003C0
00000780
00000F80
00000F00
003C1E00
007E1E00
00FF0000
01FF8000
03E7C000
07C3E000
0781F000
0F00F800
10000000
00000000
00000000
00000000
FFFFFF00
FFFFFF00
FFFFFF00
FFFFFF00
F8000000
F8000000
F8000000
F8000000
F8000000
F8000000
F8000000
F8000000
F8000000
F8000000
F8000000
F8000000
F8000000
FFFFFC00
FFFFFC00
FFFFFC00
FFFFFC00
F8000000
F8000000
F8000000
F8000000
F8000000
F8000000
F8000000
F8000000
F8000000
F8000000
F8000000
F8000000
F8000000
F8000000
FFFFFF00
FFFFFF00
FFFFFF00
FFFFFF00
ENDCHAR
STARTCHAR 1EBF
ENCODING 7871
SWIDTH 576 0
DWIDTH 32 0
BBX 31 50 3 0
BITMAP
0000003E
0000007C
000000F8
000000F8
000001F0
000001E0
000003E0
000003C0
00000780
001F0780
003F8000
007FC000
00FBE000
01F1F000
03E0F800
03C07C00
07803C00
00000000
00000000
00000000
007FC000
01FFF000
07FFFC00
0FFFFE00
1FC07E00
1F001F00
3E000F80
7C000F80
7C0007C0
780007C0
F80007C0
F80003C0
F80003C0
FFFFFFC0
FFFFFFC0
FFFFFFE0
FFFFFFE0
F8000000
F8000000
F8000000
78000000
7C0007C0
7C0007C0
3E000F80
3F001F80
1FC07F00
0FFFFE00
07FFFC00
03FFF800
00FFE000
ENDCHAR
STARTCHAR 1EC0
ENCODING 7872
SWIDTH 558 0
DWIDTH 31 0
BBX 24 59 4 0
BITMAP
0007C0
0003C0
0003E0
0001E0
0000F0
0000F8
000078
00003C
003C3C
007E1E
00FF00
01FF80
03E7C0
07C3E0
0F81F0
0F00F8
100000
000000
000000
000000
FFFFFF
FFFFFF
FFFFFF
FFFFFF
F80000
F80000
F80000
F80000
F80000
F80000
F80000
F80000
F80000
F80000
F80000
F80000
F80000
FFFFFC
FFFFFC
FFFFFC
FFFFFC
F80000
F80000
F80000
F80000
F80000
F80000
F80000
F80000
F80000
F80000
F80000
F80000
F80000
F80000
FFFFFF
FFFFFF
FFFFFF
FFFFFF
ENDCHAR
STARTCHAR 1EC1
ENCODING 7873
SWIDTH 576 0
DWIDTH 32 0
BBX 27 50 3 0
BITMAP
0003E000
0001F000
0001F000
0000F800
00007800
00007C00
00003C00
00001E00
00001E00
001F0F00
003F8000
007FC000
00FBE000
01F1F000
03E0F800
03C07C00
07803C00
00000000
00000000
00000000
007FC000
01FFF000
07FFFC00
0FFFFE00
1FC07E00
1F001F00
3E000F80
7C000F80
7C0007C0
780007C0
F80007C0
F80003C0
F80003C0
FFFFFFC0
FFFFFFC0
FFFFFFE0
FFFFFFE0
F8000000
F8000000
F8000000
78000000
7C0007C0
7C0007C0
3E000F80
3F001F80
1FC07F00
0FFFFE00
07FFFC00
03FFF800
00FFE000
ENDCHAR
STARTCHAR 1EC2
ENCODING 7874
SWIDTH 558 0
DWIDTH 31 0
BBX 27 60 4 0
BITMAP
00003F00
0000FF80
0001FFC0
0001E1C0
0001C1E0
000001E0
000001C0
000003C0
00000F00
003C1E00
007E0000
00FF0000
01FF8000
03E7C000
07C3E000
0781F000
0F00F800
10000000
00000000
00000000
00000000
FFFFFF00
FFFFFF00
FFFFFF00
FFFFFF00
F8000000
F8000000
F8000000
F8000000
F8000000
F8000000
F8000000
F8000000
F8000000
F8000000
F8000000
F8000000
F8000000
FFFFFC00
FFFFFC00
FFFFFC00
FFFFFC00
F8000000
F8000000
F8000000
F8000000
F8000000
F8000000
F8000000
F8000000
F8000000
F8000000
F8000000
F8000000
F8000000
F8000000
FFFFFF00
FFFFFF00
FFFFFF00
FFFFFF00
ENDCHAR
STARTCHAR 1EC3
ENCODING 7875
SWIDTH 576 0
DWIDTH 32 0
BBX 28 50 3 0
BITMAP
00003FC0
00007FE0
00007DF0
0000F0F0
00000070
000000F0
000000E0
000001E0
00000780
001F0F00
003F8000
007FC000
00FBE000
01F1F000
03E0F800
03C07C00
07803C00
00000000
00000000
00000000
007FC000
01FFF000
07FFFC00
0FFFFE00
1FC07E00
1F001F00
3E000F80
7C000F80
7C0007C0
780007C0
F80007C0
F80003C0
F80003C0
FFFFFFC0
FFFFFFC0
FFFFFFE0
FFFFFFE0
F8000000
F8000000
F8000000
78000000
7C0007C0
7C0007C0
3E000F80
3F001F80
1FC07F00
0FFFFE00
07FFFC00
03FFF800
00FFE000
ENDCHAR
STARTCHAR 1EC4
ENCODING 7876
SWIDTH 558 0
DWIDTH 31 0
BBX 24 59 4 0
BITMAP
01E070
03F870
07FC70
077FF0
0E1FE0
0E07C0
000000
000000
003C00
007E00
00FF00
01FF80
03E7C0
07C3E0
0781F0
0F00F8
100000
000000
000000
000000
FFFFFF
FFFFFF
FFFFFF
FFFFFF
F80000
F80000
F80000
F80000
F80000
F80000
F80000
F80000
F80000
F80000
F80000
F80000
F80000
FFFFFC
FFFFFC
FFFFFC
FFFFFC
F80000
F80000
F80000
F80000
F80000
F80000
F80000
F80000
F80000
F80000
F80000
F80000
F80000
F80000
FFFFFF
FFFFFF
FFFFFF
FFFFFF
ENDCHAR
STARTCHAR 1EC5
ENCODING 7877
SWIDTH 576 0
DWIDTH 32 0
BBX 27 49 3 0
BITMAP
00F81C00
01FE3C00
03FFF800
038FF800
0387F000
0381C000
00000000
00000000
001F0000
003F8000
007FC000
00FBE000
01F1F000
03E0F800
03C07C00
07803C00
00000000
00000000
00000000
007FC000
01FFF000
07FFFC00
0FFFFE00
1FC07E00
1F001F00
3E000F80
7C000F80
7C0007C0
780007C0
F80007C0
F80003C0
F80003C0
FFFFFFC0
FFFFFFC0
FFFFFFE0
FFFFFFE0
F8000000
F8000000
F8000000
78000000
7C0007C0
7C0007C0
3E000F80
3F001F80
1FC07F00
0FFFFE00
07FFFC00
03FFF800
00FFE000
ENDCHAR
STARTCHAR 1EC6
ENCODING 7878
SWIDTH 558 0
DWIDTH 31 0
BBX 24 63 4 -12
BITMAP
003C00
007E00
00FF00
01FF80
03E7C0
07C3E0
0781F0
0F00F8
100000
000000
000000
000000
FFFFFF
FFFFFF
FFFFFF
FFFFFF
F80000
F80000
F80000
F80000
F80000
F80000
F80000
F80000
F80000
F80000
F80000
F80000
F80000
FFFFFC
FFFFFC
FFFFFC
FFFFFC
F80000
F80000
F80000
F80000
F80000
F80000
F80000
F80000
F80000
F80000
F80000
F80000
F80000
F80000
FFFFFF
FFFFFF
FFFFFF
FFFFFF
000000
000000
000000
000000
000000
000000
001C00
003E00
007E00
007E00
007E00
003C00
ENDCHAR
STARTCHAR 1EC7
ENCODING 7879
SWIDTH 576 0
DWIDTH 32 0
BBX 27 53 3 -12
BITMAP
001F0000
003F8000
007FC000
00FBE000
01F1F000
03E0F800
03C07C00
07803C00
00000000
00000000
00000000
007FC000
01FFF000
07FFFC00
0FFFFE00
1FC07E00
1F001F00
3E000F80
7C000F80
7C0007C0
780007C0
F80007C0
F80003C0
F80003C0
FFFFFFC0
FFFFFFC0
FFFFFFE0
FFFFFFE0
F8000000
F8000000
F8000000
78000000
7C0007C0
7C0007C0
3E000F80
3F001F80
1FC07F00
0FFFFE00
07FFFC00
03FFF800
00FFE000
00000000
00000000
00000000
00000000
00000000
00000000
000E0000
001F0000
001F8000
003F8000
001F0000
001F0000
ENDCHAR
STARTCHAR 1EC8
ENCODING 7880
SWIDTH 234 0
DWIDTH 13 0
BBX 12 53 1 0
BITMAP
1F80
7FC0
7FE0
F0F0
F0F0
00F0
00E0
01E0
0780
0F00
0000
0000
0000
0000
1F00
1F00
1F00
1F00
1F00
1F00
1F00
1F00
1F00
1F00
1F00
1F00
1F00
1F00
1F00
1F00
1F00
1F00
1F00
1F00
1F00
1F00
1F00
1F00
1F00
1F00
1F00
1F00
1F00
1F00
1F00
1F00
1F00
1F00
1F00
1F00
1F00
1F00
1F00
ENDCHAR
STARTCHAR 1EC9
ENCODING 7881
SWIDTH 234 0
DWIDTH 13 0
BBX 12 44 1 0
BITMAP
0200
3FC0
7FE0
79F0
F0F0
00F0
00F0
01E0
03C0
0780
0F00
0000
0000
0000
0000
0F00
0F00
0F00
0F00
0F00
0F00
0F00
0F00
0F00
0F00
0F00
0F00
0F00
0F00
0F00
0F00
0F00
0F00
0F00
0F00
0F00
0F00
0F00
0F00
0F00
0F00
0F00
0F00
0F00
ENDCHAR
STARTCHAR 1ECA
ENCODING 7882
SWIDTH 234 0
DWIDTH 13 0
BBX 6 51 4 -12
BITMAP
F8
F8
F8
F8
F8
F8
F8
F8
F8
F8
F8
F8
F8
F8
F8
F8
F8
F8
F8
F8
F8
F8
F8
F8
F8
F8
F8
F8
F8
F8
F8
F8
F8
F8
F8
F8
F8
F8
F8
00
00
00
00
00
00
70
F8
FC
FC
FC
78
ENDCHAR
STARTCHAR 1ECB
ENCODING 7883
SWIDTH 234 0
DWIDTH 13 0
BBX 6 53 4 -12
BITMAP
78
FC
FC
FC
FC
78
00
00
00
00
00
00
78
78
78
78
78
78
78
78
78
78
78
78
78
78
78
78
78
78
78
78
78
78
78
78
78
78
78
78
78
00
00
00
00
00
00
30
FC
FC
FC
FC
78
ENDCHAR
STARTCHAR 1ECC
ENCODING 7884
SWIDTH 720 0
DWIDTH 40 0
BBX 35 52 3 -12
BITMAP
0003F80000
001FFF0000
007FFFC000
01FFFFF000
03FFFFF800
07F803FC00
0FE000FE00
1FC0007E00
1F80003F00
3F00001F80
3E00000F80
7E00000F80
7C00000FC0
7C000007C0
FC000007C0
F8000007C0
F8000003E0
F8000003E0
F8000003E0
F8000003E0
F8000003E0
F8000003E0
F8000003E0
F8000003E0
F8000003E0
F8000007C0
FC000007C0
7C000007C0
7C00000FC0
7E00000F80
3E00001F80
3F00001F00
1F80003F00
1FC0007E00
0FF001FE00
07FC07FC00
03FFFFF800
01FFFFE000
007FFFC000
001FFE0000
0000000000
0000000000
0000000000
0000000000
0000000000
0000000000
0000E00000
0001F00000
0003F80000
0003F80000
0001F00000
0001F00000
ENDCHAR
STARTCHAR 1ECD
ENCODING 7885
SWIDTH 594 0
DWIDTH 33 0
BBX 27 42 3 -12
BITMAP
007FC000
01FFF000
07FFFC00
0FFFFE00
1FE0FF00
1F803F00
3F001F80
7E000FC0
7C0007C0
7C0007C0
F80003E0
F80003E0
F80003E0
F80003E0
F80003E0
F80003E0
F80003E0
F80003E0
F80003E0
F80003E0
7C0007C0
7C0007C0
7E000FC0
3E000F80
3F001F80
1FC07F00
0FFFFE00
07FFFC00
03FFF800
00FFE000
00000000
00000000
00000000
00000000
00000000
00000000
000E0000
001F0000
001F8000
003F8000
001F0000
001F0000
ENDCHAR
STARTCHAR 1ECE
ENCODING 7886
SWIDTH 720 0
DWIDTH 40 0
BBX 35 53 3 0
BITMAP
0003F80000
0007FC0000
000FFE0000
000F1E0000
001E0E0000
00000E0000
00001E0000
00003C0000
0000780000
0000F00000
0000000000
0000000000
0000000000
0003F80000
001FFF0000
007FFFC000
01FFFFF000
03FFFFF800
07F803FC00
0FE000FE00
1FC0007E00
1F80003F00
3F00001F80
3E00000F80
7E00000F80
7C00000FC0
7C000007C0
FC000007C0
F8000007C0
F8000003E0
F8000003E0
F8000003E0
F8000003E0
F8000003E0
F8000003E0
F8000003E0
F8000003E0
F8000003E0
F8000007C0
FC000007C0
7C000007C0
7C00000FC0
7E00000F80
3E00001F80
3F00001F00
1F80003F00
1FC0007E00
0FF001FE00
07FC07FC00
03FFFFF800
01FFFFE000
007FFFC000
001FFE0000
ENDCHAR
STARTCHAR 1ECF
ENCODING 7887
SWIDTH 594 0
DWIDTH 33 0
BBX 27 44 3 0
BITMAP
00040000
003FC000
007FE000
00F9E000
00F0E000
0000E000
0000E000
0001E000
0003C000
00078000
000F0000
00000000
00000000
00000000
007FC000
01FFF000
07FFFC00
0FFFFE00
1FE0FF00
1F803F00
3F001F80
7E000FC0
7C0007C0
7C0007C0
F80003E0
F80003E0
F80003E0
F80003E0
F80003E0
F80003E0
F80003E0
F80003E0
F80003E0
F80003E0
7C0007C0
7C0007C0
7E000FC0
3E000F80
3F001F80
1FC07F00
0FFFFE00
07FFFC00
03FFF800
00FFE000
ENDCHAR
STARTCHAR 1ED0
ENCODING 7888
SWIDTH 720 0
DWIDTH 40 0
BBX 35 59 3 0
BITMAP
00000007C0
0000000780
0000000F80
0000001F00
0000001E00
0000003E00
0000003C00
0000007800
0001F07800
0003F8F000
0007FC0000
0007BC0000
000F1E0000
001E1F0000
003E0F8000
007C07C000
0000000000
0000000000
0000000000
0003F80000
001FFF0000
007FFFC000
01FFFFF000
03FFFFF800
07F803FC00
0FE000FE00
1FC0007E00
1F80003F00
3F00001F80
3E00000F80
7E00000F80
7C00000FC0
7C000007C0
FC000007C0
F8000007C0
F8000003E0
F8000003E0
F8000003E0
F8000003E0
F8000003E0
F8000003E0
F8000003E0
F8000003E0
F8000003E0
F8000007C0
FC000007C0
7C000007C0
7C00000FC0
7E00000F80
3E00001F80
3F00001F00
1F80003F00
1FC0007E00
0FF001FE00
07FC07FC00
03FFFFF800
01FFFFE000
007FFFC000
001FFE0000
ENDCHAR
STARTCHAR 1ED1
ENCODING 7889
SWIDTH 594 0
DWIDTH 33 0
BBX 31 50 3 0
BITMAP
0000003E
0000007C
000000F8
000000F8
000001F0
000001E0
000003E0
000003C0
00000780
001F0780
003F8000
007FC000
00FBE000
01F1F000
03E0F800
03C07C00
07803C00
00000000
00000000
00000000
007FC000
01FFF000
07FFFC00
0FFFFE00
1FE0FF00
1F803F00
3F001F80
7E000FC0
7C0007C0
7C0007C0
F80003E0
F80003E0
F80003E0
F80003E0
F80003E0
F80003E0
F80003E0
F80003E0
F80003E0
F80003E0
7C0007C0
7C0007C0
7E000FC0
3E000F80
3F001F80
1FC07F00
0FFFFE00
07FFFC00
03FFF800
00FFE000
ENDCHAR
STARTCHAR 1ED2
ENCODING 7890
SWIDTH 720 0
DWIDTH 40 0
BBX 35 59 3 0
BITMAP
00003E0000
00001F0000
00000F0000
00000F8000
0000078000
000003C000
000003C000
000001E000
0001F0F000
0003F8F000
0007F80000
000FBC0000
000F3E0000
001E1F0000
003E0F8000
007C07C000
0000000000
0000000000
0000000000
0003F80000
001FFF0000
007FFFC000
01FFFFF000
03FFFFF800
07F803FC00
0FE000FE00
1FC0007E00
1F80003F00
3F00001F80
3E00000F80
7E00000F80
7C00000FC0
7C000007C0
FC000007C0
F8000007C0
F8000003E0
F8000003E0
F8000003E0
F8000003E0
F8000003E0
F8000003E0
F8000003E0
F8000003E0
F8000003E0
F8000007C0
FC000007C0
7C000007C0
7C00000FC0
7E00000F80
3E00001F80
3F00001F00
1F80003F00
1FC0007E00
0FF001FE00
07FC07FC00
03FFFFF800
01FFFFE000
007FFFC000
001FFE0000
ENDCHAR
STARTCHAR 1ED3
ENCODING 7891
SWIDTH 594 0
DWIDTH 33 0
BBX 27 50 3 0
BITMAP
0003E000
0001E000
0001F000
0000F800
00007800
00007C00
00003C00
00001E00
00001E00
001F0F00
003F8000
007FC000
00FBE000
01F1F000
03E0F800
03C07800
07803C00
00000000
00000000
00000000
007FC000
01FFF000
07FFFC00
0FFFFE00
1FE0FF00
1F803F00
3F001F80
7E000FC0
7C0007C0
7C0007C0
F80003E0
F80003E0
F80003E0
F80003E0
F80003E0
F80003E0
F80003E0
F80003E0
F80003E0
F80003E0
7C0007C0
7C0007C0
7E000FC0
3E000F80
3F001F80
1FC07F00
0FFFFE00
07FFFC00
03FFF800
00FFE000
ENDCHAR
STARTCHAR 1ED4
ENCODING 7892
SWIDTH 720 0
DWIDTH 40 0
BBX 35 60 3 0
BITMAP
000001F800
000003FE00
000007FE00
00000F0F00
00000F0F00
0000000F00
0000000F00
0000001E00
0000003C00
0001F0F800
0003F80000
0007FC0000
0007BC0000
000F1E0000
001E1F0000
003E0F8000
007C07C000
0000000000
0000000000
0000000000
0003F80000
001FFF0000
007FFFC000
01FFFFF000
03FFFFF800
07F803FC00
0FE000FE00
1FC0007E00
1F80003F00
3F00001F80
3E00000F80
7E00000F80
7C00000FC0
7C000007C0
FC000007C0
F8000007C0
F8000003E0
F8000003E0
F8000003E0
F8000003E0
F8000003E0
F8000003E0
F8000003E0
F8000003E0
F8000003E0
F8000007C0
FC000007C0
7C000007C0
7C00000FC0
7E00000F80
3E00001F80
3F00001F00
1F80003F00
1FC0007E00
0FF001FE00
07FC07FC00
03FFFFF800
01FFFFE000
007FFFC000
001FFE0000
ENDCHAR
STARTCHAR 1ED5
ENCODING 7893
SWIDTH 594 0
DWIDTH 33 0
BBX 28 50 3 0
BITMAP
00003FC0
00007FE0
00007DF0
0000F0F0
00000070
000000F0
000000E0
000001E0
00000780
001F0F00
003F8000
007FC000
00FBE000
01F1F000
03E0F800
03C07C00
07803C00
00000000
00000000
00000000
007FC000
01FFF000
07FFFC00
0FFFFE00
1FE0FF00
1F803F00
3F001F80
7E000FC0
7C0007C0
7C0007C0
F80003E0
F80003E0
F80003E0
F80003E0
F80003E0
F80003E0
F80003E0
F80003E0
F80003E0
F80003E0
7C0007C0
7C0007C0
7E000FC0
3E000F80
3F001F80
1FC07F00
0FFFFE00
07FFFC00
03FFF800
00FFE000
ENDCHAR
STARTCHAR 1ED6
ENCODING 7894
SWIDTH 720 0
DWIDTH 40 0
BBX 35 59 3 0
BITMAP
000F018000
001FC38000
003FE38000
003DFF8000
00387F0000
00383E0000
0000000000
0000000000
0001F00000
0003F80000
0007FC0000
0007BC0000
000F3E0000
001E1F0000
003E0F8000
007C07C000
0000000000
0000000000
0000000000
0003F80000
001FFF0000
007FFFC000
01FFFFF000
03FFFFF800
07F803FC00
0FE000FE00
1FC0007E00
1F80003F00
3F00001F80
3E00000F80
7E00000F80
7C00000FC0
7C000007C0
FC000007C0
F8000007C0
F8000003E0
F8000003E0
F8000003E0
F8000003E0
F8000003E0
F8000003E0
F8000003E0
F8000003E0
F8000003E0
F8000007C0
FC000007C0
7C000007C0
7C00000FC0
7E00000F80
3E00001F80
3F00001F00
1F80003F00
1FC0007E00
0FF001FE00
07FC07FC00
03FFFFF800
01FFFFE000
007FFFC000
001FFE0000
ENDCHAR
STARTCHAR 1ED7
ENCODING 7895
SWIDTH 594 0
DWIDTH 33 0
BBX 27 49 3 0
BITMAP
00F81C00
01FE3C00
03FFF800
038FF800
0387F000
0381C000
00000000
00000000
001F0000
003F8000
007FC000
00FBE000
01F1F000
03E0F800
03C07C00
07803C00
00000000
00000000
00000000
007FC000
01FFF000
07FFFC00
0FFFFE00
1FE0FF00
1F803F00
3F001F80
7E000FC0
7C0007C0
7C0007C0
F80003E0
F80003E0
F80003E0
F80003E0
F80003E0
F80003E0
F80003E0
F80003E0
F80003E0
F80003E0
7C0007C0
7C0007C0
7E000FC0
3E000F80
3F001F80
1FC07F00
0FFFFE00
07FFFC00
03FFF800
00FFE000
ENDCHAR
STARTCHAR 1ED8
ENCODING 7896
SWIDTH 720 0
DWIDTH 40 0
BBX 35 63 3 -12
BITMAP
0001F00000
0003F80000
0007FC0000
0007BC0000
000F1E0000
001E1F0000
003E0F8000
007C07C000
0000000000
0000000000
0000000000
0003F80000
001FFF0000
007FFFC000
01FFFFF000
03FFFFF800
07F803FC00
0FE000FE00
1FC0007E00
1F80003F00
3F00001F80
3E00000F80
7E00000F80
7C00000FC0
7C000007C0
FC000007C0
F8000007C0
F8000003E0
F8000003E0
F8000003E0
F8000003E0
F8000003E0
F8000003E0
F8000003E0
F8000003E0
F8000003E0
F8000007C0
FC000007C0
7C000007C0
7C00000FC0
7E00000F80
3E00001F80
3F00001F00
1F80003F00
1FC0007E00
0FF001FE00
07FC07FC00
03FFFFF800
01FFFFE000
007FFFC000
001FFE0000
0000000000
0000000000
0000000000
0000000000
0000000000
0000000000
0000E00000
0001F00000
0003F80000
0003F80000
0001F00000
0001F00000
ENDCHAR
STARTCHAR 1ED9
ENCODING 7897
SWIDTH 594 0
DWIDTH 33 0
BBX 27 53 3 -12
BITMAP
001F0000
003F8000
007FC000
00FBE000
01F1F000
03E0F800
03C07C00
07803C00
00000000
00000000
00000000
007FC000
01FFF000
07FFFC00
0FFFFE00
1FE0FF00
1F803F00
3F001F80
7E000FC0
7C0007C0
7C0007C0
F80003E0
F80003E0
F80003E0
F80003E0
F80003E0
F80003E0
F80003E0
F80003E0
F80003E0
F80003E0
7C0007C0
7C0007C0
7E000FC0
3E000F80
3F001F80
1FC07F00
0FFFFE00
07FFFC00
03FFF800
00FFE000
00000000
00000000
00000000
00000000
00000000
00000000
000E0000
001F0000
001F8000
003F8000
001F0000
001F0000
ENDCHAR
STARTCHAR 1EDA
ENCODING 7898
SWIDTH 720 0
DWIDTH 40 0
BBX 35 53 3 0
BITMAP
000007C000
00000F8000
00000F8000
00001F0000
00001E0000
00003E0000
00003C0000
0000780000
0000780000
0000F00F00
0000000F00
0000000F00
0000000F00
0003F81F00
001FFFFE00
007FFFFC00
01FFFFF000
03FFFFF800
07F803FC00
0FE000FE00
1FC0007E00
1F80003F00
3F00001F80
3E00000F80
7E00000F80
7C00000FC0
7C000007C0
FC000007C0
F8000007C0
F8000003E0
F8000003E0
F8000003E0
F8000003E0
F8000003E0
F8000003E0
F8000003E0
F8000003E0
F8000003E0
F8000007C0
FC000007C0
7C000007C0
7C00000FC0
7E00000F80
3E00001F80
3F00001F00
1F80003F00
1FC0007E00
0FF001FE00
07FC07FC00
03FFFFF800
01FFFFE000
007FFFC000
001FFE0000
ENDCHAR
STARTCHAR 1EDB
ENCODING 7899
SWIDTH 594 0
DWIDTH 33 0
BBX 27 43 3 0
BITMAP
00007C00
0000F800
0000F800
0001F000
0001E000
0003E000
0003C000
00078000
000F0000
000F00E0
000000E0
000001E0
000001E0
007FC3E0
01FFFFC0
07FFFF80
0FFFFE00
1FE0FF00
1F803F00
3F001F80
7E000FC0
7C0007C0
7C0007C0
F80003E0
F80003E0
F80003E0
F80003E0
F80003E0
F80003E0
F80003E0
F80003E0
F80003E0
F80003E0
7C0007C0
7C0007C0
7E000FC0
3E000F80
3F001F80
1FC07F00
0FFFFE00
07FFFC00
03FFF800
00FFE000
ENDCHAR
STARTCHAR 1EDC
ENCODING 7900
SWIDTH 720 0
DWIDTH 40 0
BBX 35 53 3 0
BITMAP
007C000000
003C000000
003E000000
001F000000
000F000000
000F800000
0007800000
0003C00000
0003C00000
0001E00F00
0000000F00
0000000F00
0000000F00
0003F81F00
001FFFFE00
007FFFFC00
01FFFFF000
03FFFFF800
07F803FC00
0FE000FE00
1FC0007E00
1F80003F00
3F00001F80
3E00000F80
7E00000F80
7C00000FC0
7C000007C0
FC000007C0
F8000007C0
F8000003E0
F8000003E0
F8000003E0
F8000003E0
F8000003E0
F8000003E0
F8000003E0
F8000003E0
F8000003E0
F8000007C0
FC000007C0
7C000007C0
7C00000FC0
7E00000F80
3E00001F80
3F00001F00
1F80003F00
1FC0007E00
0FF001FE00
07FC07FC00
03FFFFF800
01FFFFE000
007FFFC000
001FFE0000
ENDCHAR
STARTCHAR 1EDD
ENCODING 7901
SWIDTH 594 0
DWIDTH 33 0
BBX 27 43 3 0
BITMAP
07C00000
03E00000
01E00000
01F00000
00F00000
00780000
007C0000
003C0000
001E0000
001E00E0
000000E0
000001E0
000001E0
007FC3E0
01FFFFC0
07FFFF80
0FFFFE00
1FE0FF00
1F803F00
3F001F80
7E000FC0
7C0007C0
7C0007C0
F80003E0
F80003E0
F80003E0
F80003E0
F80003E0
F80003E0
F80003E0
F80003E0
F80003E0
F80003E0
7C0007C0
7C0007C0
7E000FC0
3E000F80
3F001F80
1FC07F00
0FFFFE00
07FFFC00
03FFF800
00FFE000
ENDCHAR
STARTCHAR 1EDE
ENCODING 7902
SWIDTH 720 0
DWIDTH 40 0
BBX 35 53 3 0
BITMAP
0003F80000
0007FC0000
000FFE0000
000F1E0000
001E0E0000
00000E0000
00001E0000
00003C0000
0000780000
0000F00F00
0000000F00
0000000F00
0000000F00
0003F81F00
001FFFFE00
007FFFFC00
01FFFFF000
03FFFFF800
07F803FC00
0FE000FE00
1FC0007E00
1F80003F00
3F00001F80
3E00000F80
7E00000F80
7C00000FC0
7C000007C0
FC000007C0
F8000007C0
F8000003E0
F8000003E0
F8000003E0
F8000003E0
F8000003E0
F8000003E0
F8000003E0
F8000003E0
F8000003E0
F8000007C0
FC000007C0
7C000007C0
7C00000FC0
7E00000F80
3E00001F80
3F00001F00
1F80003F00
1FC0007E00
0FF001FE00
07FC07FC00
03FFFFF800
01FFFFE000
007FFFC000
001FFE0000
ENDCHAR
STARTCHAR 1EDF
ENCODING 7903
SWIDTH 594 0
DWIDTH 33 0
BBX 27 44 3 0
BITMAP
00040000
003FC000
007FE000
00F9E000
00F0E000
0000E000
0000E000
0001E000
0003C000
00078000
000F00E0
000000E0
000001E0
000001E0
007FC3E0
01FFFFC0
07FFFF80
0FFFFE00
1FE0FF00
1F803F00
3F001F80
7E000FC0
7C0007C0
7C0007C0
F80003E0
F80003E0
F80003E0
F80003E0
F80003E0
F80003E0
F80003E0
F80003E0
F80003E0
F80003E0
7C0007C0
7C0007C0
7E000FC0
3E000F80
3F001F80
1FC07F00
0FFFFE00
07FFFC00
03FFF800
00FFE000
ENDCHAR
STARTCHAR 1EE0
ENCODING 7904
SWIDTH 720 0
DWIDTH 40 0
BBX 35 50 3 0
BITMAP
000F838000
001FC38000
003FF78000
0038FF8000
00307F0000
00701E0000
0000000F00
0000000F00
0000000F00
0000000F00
0003F81F00
001FFFFE00
007FFFFC00
01FFFFF000
03FFFFF800
07F803FC00
0FE000FE00
1FC0007E00
1F80003F00
3F00001F80
3E00000F80
7E00000F80
7C00000FC0
7C000007C0
FC000007C0
F8000007C0
F8000003E0
F8000003E0
F8000003E0
F8000003E0
F8000003E0
F8000003E0
F8000003E0
F8000003E0
F8000003E0
F8000007C0
FC000007C0
7C000007C0
7C00000FC0
7E00000F80
3E00001F80
3F00001F00
1F80003F00
1FC0007E00
0FF001FE00
07FC07FC00
03FFFFF800
01FFFFE000
007FFFC000
001FFE0000
ENDCHAR
STARTCHAR 1EE1
ENCODING 7905
SWIDTH 594 0
DWIDTH 33 0
BBX 27 41 3 0
BITMAP
00201800
01F81800
03FE3800
03FFF800
038FF800
0383F000
03808000
000000E0
000000E0
000001E0
000001E0
007FC3E0
01FFFFC0
07FFFF80
0FFFFE00
1FE0FF00
1F803F00
3F001F80
7E000FC0
7C0007C0
7C0007C0
F80003E0
F80003E0
F80003E0
F80003E0
F80003E0
F80003E0
F80003E0
F80003E0
F80003E0
F80003E0
7C0007C0
7C0007C0
7E000FC0
3E000F80
3F001F80
1FC07F00
0FFFFE00
07FFFC00
03FFF800
00FFE000
ENDCHAR
STARTCHAR 1EE2
ENCODING 7906
SWIDTH 720 0
DWIDTH 40 0
BBX 35 56 3 -12
BITMAP
0000000F00
0000000F00
0000000F00
0000000F00
0003F81F00
001FFFFE00
007FFFFC00
01FFFFF000
03FFFFF800
07F803FC00
0FE000FE00
1FC0007E00
1F80003F00
3F00001F80
3E00000F80
7E00000F80
7C00000FC0
7C000007C0
FC000007C0
F8000007C0
F8000003E0
F8000003E0
F8000003E0
F8000003E0
F8000003E0
F8000003E0
F8000003E0
F8000003E0
F8000003E0
F8000007C0
FC000007C0
7C000007C0
7C00000FC0
7E00000F80
3E00001F80
3F00001F00
1F80003F00
1FC0007E00
0FF001FE00
07FC07FC00
03FFFFF800
01FFFFE000
007FFFC000
001FFE0000
0000000000
0000000000
0000000000
0000000000
0000000000
0000000000
0000E00000
0001F00000
0003F80000
0003F80000
0001F00000
0001F00000
ENDCHAR
STARTCHAR 1EE3
ENCODING 7907
SWIDTH 594 0
DWIDTH 33 0
BBX 27 46 3 -12
BITMAP
000000E0
000000E0
000001E0
000001E0
007FC3E0
01FFFFC0
07FFFF80
0FFFFE00
1FE0FF00
1F803F00
3F001F80
7E000FC0
7C0007C0
7C0007C0
F80003E0
F80003E0
F80003E0
F80003E0
F80003E0
F80003E0
F80003E0
F80003E0
F80003E0
F80003E0
7C0007C0
7C0007C0
7E000FC0
3E000F80
3F001F80
1FC07F00
0FFFFE00
07FFFC00
03FFF800
00FFE000
00000000
00000000
00000000
00000000
00000000
00000000
000E0000
001F0000
001F8000
003F8000
001F0000
001F0000
ENDCHAR
STARTCHAR 1EE4
ENCODING 7908
SWIDTH 684 0
DWIDTH 38 0
BBX 30 51 4 -12
BITMAP
F000003C
F000003C
F000003C
F000003C
F000003C
F000003C
F000003C
F000003C
F000003C
F000003C
F000003C
F000003C
F000003C
F000003C
F000003C
F000003C
F000003C
F000003C
F000003C
F000003C
F000003C
F000003C
F000003C
F000003C
F000007C
F800007C
F800007C
F800007C
F80000FC
7C0000F8
7C0000F8
7E0001F8
3F0003F0
1F8007E0
1FF01FE0
0FFFFFC0
07FFFF80
01FFFE00
007FF800
00030000
00000000
00000000
00000000
00000000
00000000
00038000
0007C000
000FC000
000FC000
000FC000
00078000
ENDCHAR
STARTCHAR 1EE5
ENCODING 7909
SWIDTH 594 0
DWIDTH 33 0
BBX 26 41 4 -12
BITMAP
F80007C0
F80007C0
F80007C0
F80007C0
F80007C0
F80007C0
F80007C0
F80007C0
F80007C0
F80007C0
F80007C0
F80007C0
F80007C0
F80007C0
F80007C0
F80007C0
F80007C0
F80007C0
F80007C0
F8000FC0
7C000FC0
7C000FC0
7E001FC0
7F0037C0
3F80F7C0
1FFFE7C0
1FFFC7C0
07FF87C0
03FF07C0
00200000
00000000
00000000
00000000
00000000
00000000
001C0000
003E0000
007E0000
007E0000
007E0000
003C0000
ENDCHAR
STARTCHAR 1EE6
ENCODING 7910
SWIDTH 684 0
DWIDTH 38 0
BBX 30 54 4 -1
BITMAP
000FC000
001FF000
003FF000
00787800
00787800
00007800
00007800
0000F000
0001E000
0007C000
00000000
00000000
00000000
00000000
F000003C
F000003C
F000003C
F000003C
F000003C
F000003C
F000003C
F000003C
F000003C
F000003C
F000003C
F000003C
F000003C
F000003C
F000003C
F000003C
F000003C
F000003C
F000003C
F000003C
F000003C
F000003C
F000003C
F000003C
F000007C
F800007C
F800007C
F800007C
F80000FC
7C0000F8
7C0000F8
7E0001F8
3F0003F0
1F8007E0
1FF01FE0
0FFFFFC0
07FFFF80
01FFFE00
007FF800
00030000
ENDCHAR
STARTCHAR 1EE7
ENCODING 7911
SWIDTH 594 0
DWIDTH 33 0
BBX 26 45 4 -1
BITMAP
00080000
00FF0000
01FF8000
01E7C000
03C3C000
0003C000
0003C000
00038000
000F0000
001E0000
003C0000
00000000
00000000
00000000
00000000
F80007C0
F80007C0
F80007C0
F80007C0
F80007C0
F80007C0
F80007C0
F80007C0
F80007C0
F80007C0
F80007C0
F80007C0
F80007C0
F80007C0
F80007C0
F80007C0
F80007C0
F80007C0
F80007C0
F8000FC0
7C000FC0
7C000FC0
7E001FC0
7F0037C0
3F80F7C0
1FFFE7C0
1FFFC7C0
07FF87C0
03FF07C0
00200000
ENDCHAR
STARTCHAR 1EE8
ENCODING 7912
SWIDTH 684 0
DWIDTH 38 0
BBX 36 54 4 -1
BITMAP
00001F0000
00003E0000
00007C0000
00007C0000
0000F80000
0000F00000
0001F00000
0001E00000
0003C00000
0003C00070
0000000070
00000000F0
00000000F0
00000000F0
F000003FE0
F000003FC0
F000003E00
F000003C00
F000003C00
F000003C00
F000003C00
F000003C00
F000003C00
F000003C00
F000003C00
F000003C00
F000003C00
F000003C00
F000003C00
F000003C00
F000003C00
F000003C00
F000003C00
F000003C00
F000003C00
F000003C00
F000003C00
F000003C00
F000007C00
F800007C00
F800007C00
F800007C00
F80000FC00
7C0000F800
7C0000F800
7E0001F800
3F0003F000
1F8007E000
1FF01FE000
0FFFFFC000
07FFFF8000
01FFFE0000
007FF80000
0003000000
ENDCHAR
STARTCHAR 1EE9
ENCODING 7913
SWIDTH 594 0
DWIDTH 33 0
BBX 32 44 4 -1
BITMAP
0001F000
0001F000
0003E000
0003C000
0007C000
00078000
000F0000
000F0000
001E0000
003C000F
0000000F
0000000F
0000000F
0000003E
F80007FE
F80007F8
F80007C0
F80007C0
F80007C0
F80007C0
F80007C0
F80007C0
F80007C0
F80007C0
F80007C0
F80007C0
F80007C0
F80007C0
F80007C0
F80007C0
F80007C0
F80007C0
F80007C0
F8000FC0
7C000FC0
7C000FC0
7E001FC0
7F0037C0
3F80F7C0
1FFFE7C0
1FFFC7C0
07FF87C0
03FF07C0
00200000
ENDCHAR
STARTCHAR 1EEA
ENCODING 7914
SWIDTH 684 0
DWIDTH 38 0
BBX 36 54 4 -1
BITMAP
03F0000000
01F0000000
00F8000000
00F8000000
007C000000
003C000000
001E000000
001E000000
000F000000
0007000070
0000000070
00000000F0
00000000F0
00000000F0
F000003FE0
F000003FC0
F000003E00
F000003C00
F000003C00
F000003C00
F000003C00
F000003C00
F000003C00
F000003C00
F000003C00
F000003C00
F000003C00
F000003C00
F000003C00
F000003C00
F000003C00
F000003C00
F000003C00
F000003C00
F000003C00
F000003C00
F000003C00
F000003C00
F000007C00
F800007C00
F800007C00
F800007C00
F80000FC00
7C0000F800
7C0000F800
7E0001F800
3F0003F000
1F8007E000
1FF01FE000
0FFFFFC000
07FFFF8000
01FFFE0000
007FF80000
0003000000
ENDCHAR
STARTCHAR 1EEB
ENCODING 7915
SWIDTH 594 0
DWIDTH 33 0
BBX 32 44 4 -1
BITMAP
0F800000
0F800000
07C00000
03C00000
03E00000
01E00000
00F00000
00F80000
00780000
003C000F
0000000F
0000000F
0000000F
0000003E
F80007FE
F80007F8
F80007C0
F80007C0
F80007C0
F80007C0
F80007C0
F80007C0
F80007C0
F80007C0
F80007C0
F80007C0
F80007C0
F80007C0
F80007C0
F80007C0
F80007C0
F80007C0
F80007C0
F8000FC0
7C000FC0
7C000FC0
7E001FC0
7F0037C0
3F80F7C0
1FFFE7C0
1FFFC7C0
07FF87C0
03FF07C0
00200000
ENDCHAR
STARTCHAR 1EEC
ENCODING 7916
SWIDTH 684 0
DWIDTH 38 0
BBX 36 54 4 -1
BITMAP
000FC00000
001FF00000
003FF00000
0078780000
0078780000
0000780000
0000780000
0000F00000
0001E00000
0007C00070
0000000070
00000000F0
00000000F0
00000000F0
F000003FE0
F000003FC0
F000003E00
F000003C00
F000003C00
F000003C00
F000003C00
F000003C00
F000003C00
F000003C00
F000003C00
F000003C00
F000003C00
F000003C00
F000003C00
F000003C00
F000003C00
F000003C00
F000003C00
F000003C00
F000003C00
F000003C00
F000003C00
F000003C00
F000007C00
F800007C00
F800007C00
F800007C00
F80000FC00
7C0000F800
7C0000F800
7E0001F800
3F0003F000
1F8007E000
1FF01FE000
0FFFFFC000
07FFFF8000
01FFFE0000
007FF80000
0003000000
ENDCHAR
STARTCHAR 1EED
ENCODING 7917
SWIDTH 594 0
DWIDTH 33 0
BBX 32 45 4 -1
BITMAP
00080000
00FF0000
01FF8000
01E7C000
03C3C000
0003C000
0003C000
00038000
000F0000
001E0000
003C000F
0000000F
0000000F
0000000F
0000003E
F80007FE
F80007F8
F80007C0
F80007C0
F80007C0
F80007C0
F80007C0
F80007C0
F80007C0
F80007C0
F80007C0
F80007C0
F80007C0
F80007C0
F80007C0
F80007C0
F80007C0
F80007C0
F80007C0
F8000FC0
7C000FC0
7C000FC0
7E001FC0
7F0037C0
3F80F7C0
1FFFE7C0
1FFFC7C0
07FF87C0
03FF07C0
00200000
ENDCHAR
STARTCHAR 1EEE
ENCODING 7918
SWIDTH 684 0
DWIDTH 38 0
BBX 36 51 4 -1
BITMAP
007C0E0000
00FF0E0000
00FFDE0000
01E7FC0000
01C1FC0000
01C0700000
0000000070
0000000070
00000000F0
00000000F0
00000000F0
F000003FE0
F000003FC0
F000003E00
F000003C00
F000003C00
F000003C00
F000003C00
F000003C00
F000003C00
F000003C00
F000003C00
F000003C00
F000003C00
F000003C00
F000003C00
F000003C00
F000003C00
F000003C00
F000003C00
F000003C00
F000003C00
F000003C00
F000003C00
F000003C00
F000007C00
F800007C00
F800007C00
F800007C00
F80000FC00
7C0000F800
7C0000F800
7E0001F800
3F0003F000
1F8007E000
1FF01FE000
0FFFFFC000
07FFFF8000
01FFFE0000
007FF80000
0003000000
ENDCHAR
STARTCHAR 1EEF
ENCODING 7919
SWIDTH 594 0
DWIDTH 33 0
BBX 32 42 4 -1
BITMAP
00403800
01F83800
03FC3800
07FFF000
070FF000
0707E000
07008000
0000000F
0000000F
0000000F
0000000F
0000003E
F80007FE
F80007F8
F80007C0
F80007C0
F80007C0
F80007C0
F80007C0
F80007C0
F80007C0
F80007C0
F80007C0
F80007C0
F80007C0
F80007C0
F80007C0
F80007C0
F80007C0
F80007C0
F80007C0
F8000FC0
7C000FC0
7C000FC0
7E001FC0
7F0037C0
3F80F7C0
1FFFE7C0
1FFFC7C0
07FF87C0
03FF07C0
00200000
ENDCHAR
STARTCHAR 1EF0
ENCODING 7920
SWIDTH 684 0
DWIDTH 38 0
BBX 36 56 4 -12
BITMAP
0000000070
0000000070
00000000F0
00000000F0
00000000F0
F000003FE0
F000003FC0
F000003E00
F000003C00
F000003C00
F000003C00
F000003C00
F000003C00
F000003C00
F000003C00
F000003C00
F000003C00
F000003C00
F000003C00
F000003C00
F000003C00
F000003C00
F000003C00
F000003C00
F000003C00
F000003C00
F000003C00
F000003C00
F000003C00
F000007C00
F800007C00
F800007C00
F800007C00
F80000FC00
7C0000F800
7C0000F800
7E0001F800
3F0003F000
1F8007E000
1FF01FE000
0FFFFFC000
07FFFF8000
01FFFE0000
007FF80000
0003000000
0000000000
0000000000
0000000000
0000000000
0000000000
0003800000
0007C00000
000FC00000
000FC00000
000FC00000
0007800000
ENDCHAR
STARTCHAR 1EF1
ENCODING 7921
SWIDTH 594 0
DWIDTH 33 0
BBX 32 46 4 -12
BITMAP
0000000F
0000000F
0000000F
0000000F
0000003E
F80007FE
F80007F8
F80007C0
F80007C0
F80007C0
F80007C0
F80007C0
F80007C0
F80007C0
F80007C0
F80007C0
F80007C0
F80007C0
F80007C0
F80007C0
F80007C0
F80007C0
F80007C0
F80007C0
F8000FC0
7C000FC0
7C000FC0
7E001FC0
7F0037C0
3F80F7C0
1FFFE7C0
1FFFC7C0
07FF87C0
03FF07C0
00200000
00000000
00000000
00000000
00000000
00000000
001C0000
003E0000
007E0000
007E0000
007E0000
003C0000
ENDCHAR
STARTCHAR 1EF2
ENCODING 7922
SWIDTH 612 0
DWIDTH 34 0
BBX 30 53 2 0
BITMAP
03E00000
01F00000
00F80000
00F80000
007C0000
003C0000
003E0000
001E0000
000F0000
000F0000
00000000
00000000
00000000
00000000
F800007C
7C0000F8
7C0000F8
3E0001F0
3E0001F0
1F0003E0
1F0003E0
0F8007C0
0F8007C0
07C00F80
07C00F80
03E01F00
03E01F00
01F03E00
01F03E00
00F87C00
00F87C00
007CF800
007CF800
003FF000
003FF000
001FE000
001FE000
000FC000
000FC000
00078000
00078000
00078000
00078000
00078000
00078000
00078000
00078000
00078000
00078000
00078000
00078000
00078000
00078000
ENDCHAR
STARTCHAR 1EF3
ENCODING 7923
SWIDTH 522 0
DWIDTH 29 0
BBX 26 54 2 -11
BITMAP
07C00000
07C00000
03E00000
01E00000
01F00000
00F00000
00780000
00780000
003C0000
001E0000
00000000
00000000
00000000
00000000
F80007C0
F80007C0
7C0007C0
7C000F80
7C000F80
3E001F00
3E001F00
1E001E00
1F003E00
1F003E00
0F803C00
0F807C00
07807800
07C0F800
07C0F800
03C0F000
03E1F000
01E1E000
01E1E000
01F3E000
00F3C000
00F7C000
00FF8000
007F8000
007F8000
003F0000
003F0000
003E0000
003E0000
003C0000
007C0000
007C0000
00F80000
00F80000
01F00000
03F00000
5FE00000
7FE00000
7FC00000
7F000000
ENDCHAR
STARTCHAR 1EF4
ENCODING 7924
SWIDTH 612 0
DWIDTH 34 0
BBX 30 51 2 -12
BITMAP
F800007C
7C0000F8
7C0000F8
3E0001F0
3E0001F0
1F0003E0
1F0003E0
0F8007C0
0F8007C0
07C00F80
07C00F80
03E01F00
03E01F00
01F03E00
01F03E00
00F87C00
00F87C00
007CF800
007CF800
003FF000
003FF000
001FE000
001FE000
000FC000
000FC000
00078000
00078000
00078000
00078000
00078000
00078000
00078000
00078000
00078000
00078000
00078000
00078000
00078000
00078000
00000000
00000000
00000000
00000000
00000000
00000000
00030000
000FC000
000FC000
000FC000
000FC000
00078000
ENDCHAR
STARTCHAR 1EF5
ENCODING 7925
SWIDTH 522 0
DWIDTH 29 0
BBX 26 41 2 -12
BITMAP
F80007C0
F80007C0
7C0007C0
7C000F80
7C000F80
3E001F00
3E001F00
1E001E00
1F003E00
1F003E00
0F803C00
0F807C00
07807800
07C0F800
07C0F800
03C0F000
03E1F000
01E1E000
01E1E000
01F3E000
00F3C000
00F7C000
00FF8000
007F8000
007F8000
003F0000
003F0000
003E0000
003E0000
003C0000
007C0000
007C0000
00F80000
00F80000
01F00000
03F00E00
5FE01F00
7FE03F00
7FC03F00
7F003F00
00001E00
ENDCHAR
STARTCHAR 1EF6
ENCODING 7926
SWIDTH 612 0
DWIDTH 34 0
BBX 30 53 2 0
BITMAP
000FC000
003FF000
003FF000
00787800
00787800
00007800
00007000
0000F000
0003E000
00078000
00000000
00000000
00000000
00000000
F800007C
7C0000F8
7C0000F8
3E0001F0
3E0001F0
1F0003E0
1F0003E0
0F8007C0
0F8007C0
07C00F80
07C00F80
03E01F00
03E01F00
01F03E00
01F03E00
00F87C00
00F87C00
007CF800
007CF800
003FF000
003FF000
001FE000
001FE000
000FC000
000FC000
00078000
00078000
00078000
00078000
00078000
00078000
00078000
00078000
00078000
00078000
00078000
00078000
00078000
00078000
ENDCHAR
STARTCHAR 1EF7
ENCODING 7927
SWIDTH 522 0
DWIDTH 29 0
BBX 26 55 2 -11
BITMAP
00040000
007F8000
00FFC000
00F3E000
01E1E000
0001E000
0001E000
0003C000
00078000
000F0000
001E0000
00000000
00000000
00000000
00000000
F80007C0
F80007C0
7C0007C0
7C000F80
7C000F80
3E001F00
3E001F00
1E001E00
1F003E00
1F003E00
0F803C00
0F807C00
07807800
07C0F800
07C0F800
03C0F000
03E1F000
01E1E000
01E1E000
01F3E000
00F3C000
00F7C000
00FF8000
007F8000
007F8000
003F0000
003F0000
003E0000
003E0000
003C0000
007C0000
007C0000
00F80000
00F80000
01F00000
03F00000
5FE00000
7FE00000
7FC00000
7F000000
ENDCHAR
STARTCHAR 1EF8
ENCODING 7928
SWIDTH 612 0
DWIDTH 34 0
BBX 30 50 2 0
BITMAP
007C0E00
00FF0E00
00FFDE00
01E7FC00
01C1FC00
01C0F000
00000000
00000000
00000000
00000000
00000000
F800007C
7C0000F8
7C0000F8
3E0001F0
3E0001F0
1F0003E0
1F0003E0
0F8007C0
0F8007C0
07C00F80
07C00F80
03E01F00
03E01F00
01F03E00
01F03E00
00F87C00
00F87C00
007CF800
007CF800
003FF000
003FF000
001FE000
001FE000
000FC000
000FC000
00078000
00078000
00078000
00078000
00078000
00078000
00078000
00078000
00078000
00078000
00078000
00078000
00078000
00078000
ENDCHAR
STARTCHAR 1EF9
ENCODING 7929
SWIDTH 522 0
DWIDTH 29 0
BBX 26 52 2 -11
BITMAP
00403800
01F83800
03FC3800
07FFF000
070FF000
0707E000
07008000
00000000
00000000
00000000
00000000
00000000
F80007C0
F80007C0
7C0007C0
7C000F80
7C000F80
3E001F00
3E001F00
1E001E00
1F003E00
1F003E00
0F803C00
0F807C00
07807800
07C0F800
07C0F800
03C0F000
03E1F000
01E1E000
01E1E000
01F3E000
00F3C000
00F7C000
00FF8000
007F8000
007F8000
003F0000
003F0000
003E0000
003E0000
003C0000
007C0000
007C0000
00F80000
00F80000
01F00000
03F00000
5FE00000
7FE00000
7FC00000
7F000000
ENDCHAR
STARTCHAR 2013
ENCODING 8211
SWIDTH 648 0
DWIDTH 36 0
BBX 24 4 6 15
BITMAP
FFFFFF
FFFFFF
FFFFFF
FFFFFF
ENDCHAR
STARTCHAR 2014
ENCODING 8212
SWIDTH 756 0
DWIDTH 42 0
BBX 30 4 6 15
BITMAP
FFFFFFFC
FFFFFFFC
FFFFFFFC
FFFFFFFC
ENDCHAR
STARTCHAR 2018
ENCODING 8216
SWIDTH 288 0
DWIDTH 16 0
BBX 7 14 5 28
BITMAP
0C
3C
70
60
E0
C0
C0
E0
FC
FE
FE
FE
FC
7C
ENDCHAR
STARTCHAR 2019
ENCODING 8217
SWIDTH 252 0
DWIDTH 14 0
BBX 7 14 5 25
BITMAP
30
FC
FE
FE
FE
7E
0E
0E
0E
0E
0C
1C
78
60
ENDCHAR
STARTCHAR 201A
ENCODING 8218
SWIDTH 288 0
DWIDTH 16 0
BBX 8 15 4 -9
BITMAP
18
7E
FE
FE
FF
7F
0F
07
06
06
0E
1C
38
70
60
ENDCHAR
STARTCHAR 201C
ENCODING 8220
SWIDTH 504 0
DWIDTH 28 0
BBX 19 14 5 28
BITMAP
0C00C0
3C01C0
700380
600600
E00E00
C00E00
C00E00
E00E00
FC0FC0
FE0FE0
FE0FE0
FE0FE0
FE07E0
7C03C0
ENDCHAR
STARTCHAR 201D
ENCODING 8221
SWIDTH 522 0
DWIDTH 29 0
BBX 20 14 4 26
BITMAP
7E03E0
7E07F0
FF07F0
7F07F0
7F07F0
0F00F0
070070
070070
060070
060060
0C00E0
3C01C0
300380
200200
ENDCHAR
STARTCHAR 201E
ENCODING 8222
SWIDTH 504 0
DWIDTH 28 0
BBX 20 13 4 -8
BITMAP
7E07E0
FE07E0
FE07F0
FF07F0
7F07F0
0F00F0
070070
060070
060060
0E0060
1C00C0
3803C0
300300
ENDCHAR
STARTCHAR 2020
ENCODING 8224
SWIDTH 576 0
DWIDTH 32 0
BBX 22 52 5 -13
BITMAP
007800
007800
007800
007800
007800
007800
007800
007800
007800
007800
FFFFFC
FFFFFC
FFFFFC
FFFFFC
007800
007800
007800
007800
007800
007800
007800
007800
007800
007800
007800
007800
007800
007800
007800
007800
007800
007800
007800
007800
007800
007800
007800
007800
007800
007800
007800
007800
007800
007800
007800
007800
007800
007800
007800
007800
007800
007800
ENDCHAR
STARTCHAR 2021
ENCODING 8225
SWIDTH 576 0
DWIDTH 32 0
BBX 22 52 5 -13
BITMAP
007800
007800
007800
007800
007800
007800
007800
007800
007800
007800
FFFFFC
FFFFFC
FFFFFC
FFFFFC
007800
007800
007800
007800
007800
007800
007800
007800
007800
007800
007800
007800
007800
007800
007800
007800
007800
007800
007800
007800
007800
007800
007800
007800
FFFFFC
FFFFFC
FFFFFC
FFFFFC
007800
007800
007800
007800
007800
007800
007800
007800
007800
007800
ENDCHAR
STARTCHAR 2022
ENCODING 8226
SWIDTH 378 0
DWIDTH 21 0
BBX 11 11 4 15
BITMAP
3F00
7F80
7FC0
FFE0
FFE0
FFE0
FFE0
FFC0
7FC0
3F80
0C00
ENDCHAR
STARTCHAR 2026
ENCODING 8230
SWIDTH 792 0
DWIDTH 44 0
BBX 35 6 4 0
BITMAP
3800E003C0
7C01F007E0
FE03F807E0
FE03F807E0
7C01F807E0
7C01F003C0
ENDCHAR
STARTCHAR 2030
ENCODING 8240
SWIDTH 1188 0
DWIDTH 66 0
BBX 62 40 2 -1
BITMAP
1FE0000780000000
3FF8000F00000000
7EF8000F00000000
783C001E00000000
F01C001E00000000
F01C003C00000000
F01E003C00000000
E01E007800000000
E01E007800000000
F01C00F000000000
F01C00F000000000
703C01E000000000
7C7803E000000000
3FF803C000000000
1FF007C000000000
0380078000000000
00000F8000000000
00000F0000000000
00001F0000000000
00001E0000000000
00003E0000000000
00003C0000000000
00007C0000000000
0000780000000000
0000F801FE001FE0
0000F007FF003FF0
0001F007CF807CF8
0001E00F0380F038
0003C00E03C0F03C
0003C01E03C0E01C
0007801E01C1E01C
0007801E01C1E01C
000F001E01C1E01C
000F001E03C0E01C
001E000E03C0F03C
001E000F0380F038
003C0007CF807CF8
003C0007FF003FF0
00780001FE001FE0
0000000020000300
ENDCHAR
STARTCHAR 2039
ENCODING 8249
SWIDTH 360 0
DWIDTH 20 0
BBX 16 23 2 6
BITMAP
003F
003E
007C
00F8
01F0
03E0
07C0
0F80
1F00
3E00
7C00
F800
7C00
3E00
1F00
0F80
07C0
03E0
01F0
00F8
007C
003E
001F
ENDCHAR
STARTCHAR 203A
ENCODING 8250
SWIDTH 360 0
DWIDTH 20 0
BBX 15 23 3 6
BITMAP
F800
7C00
3E00
1F00
0F80
07C0
07E0
03F0
01F0
00F8
007C
003E
007C
00F8
01F0
03E0
07C0
0F80
1F00
3F00
3E00
7C00
F800
ENDCHAR
STARTCHAR 2044
ENCODING 8260
SWIDTH 468 0
DWIDTH 26 0
BBX 28 39 -1 0
BITMAP
000001F0
000003E0
000003C0
000007C0
00000780
00000F80
00001F00
00001E00
00003E00
00003C00
00007C00
0000F800
0000F000
0001F000
0001E000
0003E000
0007C000
00078000
000F8000
000F0000
001F0000
003E0000
003C0000
007C0000
00780000
00F80000
00F00000
01E00000
03E00000
03C00000
07C00000
07800000
0F000000
1F000000
1E000000
3E000000
3C000000
78000000
F8000000
ENDCHAR
STARTCHAR 2070
ENCODING 8304
SWIDTH 324 0
DWIDTH 18 0
BBX 16 21 1 21
BITMAP
07F0
1FF8
1E7C
3C1E
381E
780E
700F
700F
700F
F007
F007
7007
700F
700F
700F
780E
381E
3C1C
1F7C
0FF8
07F0
ENDCHAR
STARTCHAR 2074
ENCODING 8308
SWIDTH 324 0
DWIDTH 18 0
BBX 16 21 1 21
BITMAP
0078
00F8
01F8
01F8
03B8
0738
0738
0E38
1C38
1C38
3838
7038
7038
FFFF
FFFF
FFFF
0038
0038
0038
0038
0038
ENDCHAR
STARTCHAR 2075
ENCODING 8309
SWIDTH 306 0
DWIDTH 17 0
BBX 14 21 2 21
BITMAP
FFF8
FFF8
FFF8
E000
E000
E000
E000
EFE0
FFF0
F078
E038
003C
001C
001C
001C
E03C
F038
F8F8
7FF0
3FE0
0380
ENDCHAR
STARTCHAR 2076
ENCODING 8310
SWIDTH 306 0
DWIDTH 17 0
BBX 15 21 1 21
BITMAP
01C0
0380
0780
0700
0E00
1E00
1C00
39C0
3FF0
7FF8
783C
701C
700E
F00E
700E
700E
701C
783C
3FF8
1FF0
03C0
ENDCHAR
STARTCHAR 2077
ENCODING 8311
SWIDTH 288 0
DWIDTH 16 0
BBX 14 21 1 21
BITMAP
FFFC
FFFC
FFFC
001C
0038
0038
0070
0070
00F0
00E0
01E0
01C0
01C0
0380
0380
0700
0700
0F00
0E00
1E00
1C00
ENDCHAR
STARTCHAR 2078
ENCODING 8312
SWIDTH 324 0
DWIDTH 18 0
BBX 14 21 2 21
BITMAP
1FE0
3FF0
7878
703C
E01C
E01C
E01C
703C
7878
3FF0
3FF0
7878
F01C
E01C
E01C
E01C
E01C
F03C
7FF8
7FF8
1FE0
ENDCHAR
STARTCHAR 2079
ENCODING 8313
SWIDTH 306 0
DWIDTH 17 0
BBX 14 21 2 21
BITMAP
1FC0
3FF0
7CF8
F038
E03C
E01C
E01C
E01C
E01C
F03C
7878
7FF8
3FB8
0070
00E0
00E0
01C0
03C0
0380
0700
0F00
ENDCHAR
STARTCHAR 2080
ENCODING 8320
SWIDTH 324 0
DWIDTH 18 0
BBX 16 22 1 -14
BITMAP
0080
0FF0
1FF8
3E3C
3C1E
780E
780E
700F
700F
F00F
F007
F007
F00F
700F
700F
700F
780E
381E
3C3C
1FFC
0FF8
03E0
ENDCHAR
STARTCHAR 2081
ENCODING 8321
SWIDTH 252 0
DWIDTH 14 0
BBX 12 21 1 -14
BITMAP
0F00
1F00
3F00
7F00
F700
E700
C700
8700
0700
0700
0700
0700
0700
0700
0700
0700
0700
0700
7FF0
7FF0
7FF0
ENDCHAR
STARTCHAR 2082
ENCODING 8322
SWIDTH 288 0
DWIDTH 16 0
BBX 14 21 1 -14
BITMAP
0FE0
1FF0
3FF8
783C
701C
701C
701C
001C
003C
0038
0078
00F0
01E0
07C0
0F00
1E00
3C00
7800
FFFC
FFFC
FFFC
ENDCHAR
STARTCHAR 2083
ENCODING 8323
SWIDTH 306 0
DWIDTH 17 0
BBX 14 22 2 -14
BITMAP
0200
1FE0
3FF0
7878
F038
E03C
001C
003C
0038
00F8
07F0
07E0
00F8
0038
001C
001C
E01C
E03C
F078
7FF8
3FF0
1FC0
ENDCHAR
STARTCHAR 2084
ENCODING 8324
SWIDTH 324 0
DWIDTH 18 0
BBX 16 21 1 -14
BITMAP
0078
00F8
00F8
01F8
03B8
0338
0738
0E38
0E38
1C38
3838
3838
7038
FFFF
FFFF
FFFF
0038
0038
0038
0038
0038
ENDCHAR
STARTCHAR 2085
ENCODING 8325
SWIDTH 306 0
DWIDTH 17 0
BBX 14 21 2 -14
BITMAP
FFF8
FFF8
FFF8
E000
E000
E000
E000
E7C0
FFF0
F8F8
F038
E03C
001C
001C
001C
E03C
E038
F078
7FF0
3FE0
0FC0
ENDCHAR
STARTCHAR 2086
ENCODING 8326
SWIDTH 306 0
DWIDTH 17 0
BBX 15 21 1 -14
BITMAP
01C0
03C0
0380
0700
0E00
0E00
1C00
3980
3FF0
7FF8
783C
701C
700E
F00E
700E
700E
701C
783C
3FF8
1FF0
07E0
ENDCHAR
STARTCHAR 2087
ENCODING 8327
SWIDTH 288 0
DWIDTH 16 0
BBX 14 21 1 -14
BITMAP
FFFC
FFFC
FFFC
001C
0038
0038
0038
0070
0070
00E0
00E0
01C0
01C0
03C0
0380
0780
0700
0F00
0E00
0E00
1C00
ENDCHAR
STARTCHAR 2088
ENCODING 8328
SWIDTH 324 0
DWIDTH 18 0
BBX 14 21 2 -13
BITMAP
1FE0
3FF0
7878
F03C
E01C
E01C
E01C
7038
7878
1FE0
3FF0
7038
E01C
E01C
E01C
E01C
E01C
F03C
7FF8
3FF0
1FE0
ENDCHAR
STARTCHAR 2089
ENCODING 8329
SWIDTH 306 0
DWIDTH 17 0
BBX 14 21 2 -14
BITMAP
1FC0
3FF0
7DF8
F038
E03C
E01C
E01C
E01C
E01C
E03C
7878
7FF8
3FB8
0470
00E0
00E0
01C0
03C0
0380
0700
0F00
ENDCHAR
STARTCHAR 20AB
ENCODING 8363
SWIDTH 594 0
DWIDTH 33 0
BBX 30 46 2 0
BITMAP
000003E0
000003E0
000003E0
000003E0
0003FFFC
0003FFFC
0003FFFC
0003FFFC
000003E0
000003E0
000003E0
01FF83E0
07FFE3E0
0FFFF3E0
1FFFFBE0
3F807BE0
3F001FE0
7E000FE0
7C0007E0
7C0007E0
F80007E0
F80003E0
F80003E0
F80003E0
F80003E0
F80003E0
F80003E0
F80007E0
7C0007E0
7C000FE0
7E000FE0
3F001FE0
3FC07BE0
1FFFFBE0
0FFFF3E0
03FFC3E0
00FF03E0
00000000
00000000
00000000
00000000
00000000
00000000
1FFFFFE0
1FFFFFE0
1FFFFFE0
ENDCHAR
STARTCHAR 20AC
ENCODING 8364
SWIDTH 684 0
DWIDTH 38 0
BBX 36 39 1 0
BITMAP
00001E0000
0001FFE000
0007FFF800
001FFFFC00
003FFFFE00
007F007F00
00FE003F80
00FC000F80
01F80007C0
01F00007C0
03E00003E0
03E00003E0
03E00001E0
07C00001F0
07C0000000
FFFFF80000
FFFFF80000
07C0000000
07C0000000
07C0000000
07C0000000
07C0000000
07C0000000
FFFFF80000
FFFFF80000
07C0000000
07C0000000
03E00001E0
03E00003E0
03F00003E0
01F00007C0
01F8000FC0
00FC001F80
007E003F80
007F80FF00
003FFFFE00
001FFFFC00
0007FFF000
0001FFC000
ENDCHAR
STARTCHAR 2122
ENCODING 8482
SWIDTH 378 0
DWIDTH 21 0
BBX 18 9 2 30
BITMAP
FEE1C0
FEF3C0
30F3C0
30FFC0
30DEC0
30DCC0
30CCC0
30C0C0
30C0C0
ENDCHAR
STARTCHAR 215B
ENCODING 8539
SWIDTH 882 0
DWIDTH 49 0
BBX 46 39 2 0
BITMAP
0F000000F000
1F000001F000
3F000001E000
7F000003E000
FF000003C000
EF000007C000
CF00000F8000
8F00000F0000
0F00001F0000
0F00001E0000
0F00003E0000
0F00007C0000
0F0000780000
0F0000F80000
0F0000F00000
0F0001F00000
FFE003E00000
FFE003C00000
FFE007C00000
FFE007800700
00000F803FE0
00001F007FF0
00001E00F8F8
00003E00F078
00003C00E038
00007C00E038
00007800F078
0000F00078F0
0001F0003FE0
0001E0003FE0
0003E0007070
0003C000E038
00078000E038
000F8001E03C
000F0001E03C
001F0000F078
001E0000FFF8
003C00007FF0
007C00003FE0
ENDCHAR
STARTCHAR 215C
ENCODING 8540
SWIDTH 846 0
DWIDTH 47 0
BBX 43 39 2 0
BITMAP
0FE00001E000
3FF00003E000
3FF80003C000
783C0007C000
703C00078000
001C000F8000
003C001F0000
003C001E0000
03F8003E0000
03F0003C0000
03F0007C0000
007800F80000
003C00F00000
001C01F00000
001C01E00000
F03C03E00000
787C07C00000
7FF807800000
3FF00F800000
0FE00F003C00
00001F00FF80
00003E01FFC0
00003C03C3C0
00007C0381E0
0000780381E0
0000F80381E0
0000F00381C0
0001E001E3C0
0003E000FF80
0003C001FF80
0007C003C3C0
0007800380E0
000F000780E0
001F000780E0
001E000780E0
003E000781E0
003C0003FFE0
00780001FFC0
00F80000FF80
ENDCHAR
STARTCHAR 215D
ENCODING 8541
SWIDTH 882 0
DWIDTH 49 0
BBX 46 39 2 0
BITMAP
7FF80000F000
7FF80001F000
7FF80001E000
70000003C000
70000007C000
700000078000
71C0000F8000
7FF0000F0000
FFF8001E0000
F878003E0000
F03C003C0000
003C007C0000
003C00780000
003C00F00000
F03C01F00000
787801E00000
7FF803E00000
3FF003C00000
1FE007800000
02000F800700
00000F003FE0
00001F007FF0
00001E00F0F8
00003C00F078
00007C00E038
00007800E038
0000F800F078
0000F00078F0
0001E0003FE0
0003E0003FE0
0003C0007070
0007C000E038
00078000E038
000F0001E03C
001F0001E03C
001E0000F078
003E0000FFF8
003C00007FF0
007800003FE0
ENDCHAR
STARTCHAR 215E
ENCODING 8542
SWIDTH 900 0
DWIDTH 50 0
BBX 46 39 2 0
BITMAP
FFF80000F000
FFF80001E000
FFF80003E000
00380003C000
00780007C000
007000078000
0070000F0000
00F0001F0000
00E0001E0000
01E0003E0000
01C0003C0000
03C000780000
038000F80000
078000F00000
070001F00000
0F0001E00000
0F0003C00000
1E0007C00000
1E0007800000
1C000F800780
00000F003FE0
00001E007FF0
00003E007878
00003C00F038
00007C00F038
00007800F038
0000F8007038
0001F0007870
0001E0003FE0
0003E0003FF0
0003C0007878
0007C000F038
000F8000E01C
000F0000E01C
001F0000E03C
001E0000F03C
003E0000FFF8
007C00007FF0
007800001FE0
ENDCHAR
STARTCHAR 2212
ENCODING 8722
SWIDTH 594 0
DWIDTH 33 0
BBX 22 5 6 15
BITMAP
FFFFFC
FFFFFC
FFFFFC
FFFFFC
FFFFFC
ENDCHAR
STARTCHAR 2215
ENCODING 8725
SWIDTH 504 0
DWIDTH 28 0
BBX 24 39 3 0
BITMAP
00001F
00001E
00003E
00003C
00007C
000078
0000F8
0000F0
0001F0
0001E0
0003E0
0003C0
0007C0
000780
000F80
000F00
001F00
001E00
003E00
003C00
007C00
007800
00F800
00F000
01F000
01E000
03E000
03C000
07C000
078000
0F8000
0F0000
1F0000
1E0000
3E0000
3C0000
7C0000
780000
F80000
ENDCHAR
STARTCHAR 2248
ENCODING 8776
SWIDTH 558 0
DWIDTH 31 0
BBX 21 17 5 9
BITMAP
1FC078
3FF078
7FFFF0
787FE0
F01FC0
E00700
000000
000000
000000
000000
000000
070038
1FE078
3FF0F0
7FFFF0
707FE0
F01FC0
ENDCHAR
STARTCHAR 2260
ENCODING 8800
SWIDTH 720 0
DWIDTH 40 0
BBX 26 33 7 1
BITMAP
00000F80
00000F00
00001F00
00003E00
00003C00
00007C00
00007800
0000F800
FFFFFFC0
FFFFFFC0
FFFFFFC0
FFFFFFC0
FFFFFFC0
00078000
000F8000
000F0000
001E0000
003E0000
003C0000
007C0000
00780000
FFFFFFC0
FFFFFFC0
FFFFFFC0
FFFFFFC0
03C00000
07C00000
07800000
0F000000
1F000000
1E000000
3E000000
3C000000
ENDCHAR
STARTCHAR 2264
ENCODING 8804
SWIDTH 594 0
DWIDTH 33 0
BBX 23 33 6 0
BITMAP
00001C
00003C
0000FC
0003FC
000FF0
003FC0
00FF80
03FE00
0FF800
1FE000
7F8000
7E0000
7E0000
7F8000
1FE000
07F800
01FE00
00FF80
003FE0
000FF8
0003FC
0000FC
00003C
00000C
000000
000000
000000
000000
000000
000000
FFFFFE
FFFFFE
FFFFFE
ENDCHAR
STARTCHAR 2265
ENCODING 8805
SWIDTH 612 0
DWIDTH 34 0
BBX 23 33 6 0
BITMAP
600000
780000
7E0000
7F8000
3FE000
0FF800
03FE00
00FF00
003FC0
000FF0
0003FC
0000FC
0000FC
0003FC
000FF0
003FC0
00FF00
03FC00
0FF800
3FE000
7F8000
7E0000
780000
600000
000000
000000
000000
000000
000000
000000
FFFFFE
FFFFFE
FFFFFE
ENDCHAR
ENDFONT
